<svg width="70.76" height="72" viewBox="0 0 117 119" fill="none" xmlns="http://www.w3.org/2000/svg">
<path d="M91.454 46.4458H85.8976M91.454 46.4458L90.0045 116.504M91.454 46.4458H109.814M90.0045 116.504H101.828C104.406 116.504 106.53 114.48 106.654 111.906L109.814 46.4458M90.0045 116.504H71.1612M109.814 46.4458H110.297C112.966 46.4458 115.129 44.2826 115.129 41.6142V34.8499C115.129 32.1815 112.966 30.0183 110.297 30.0183H103.05M34.441 101.043L35.1241 111.974C35.2833 114.52 37.3949 116.504 39.9463 116.504H52.3179M52.3179 116.504L51.8348 97.1778M52.3179 116.504H71.1612M71.1612 116.504V88.9641M90.9708 30.0183V18.659C90.9708 17.0071 90.0768 15.5122 88.8419 14.4149C82.1808 8.49582 87.0897 1.51121 94.3408 3.80747C95.9209 4.30788 97.6441 4.35711 99.2258 3.86153C107.065 1.40523 111.182 8.44806 105.001 14.4115C103.866 15.5062 103.05 16.9457 103.05 18.5223V30.0183M90.9708 30.0183H103.05M90.9708 30.0183H80.3413M31.0588 30.0183C29.4836 27.1829 29.5518 25.58 30.5937 24.2721C31.7783 22.785 32.6997 21.0834 32.6474 19.1828C32.6131 17.9332 32.7749 17.0179 33.1598 16.3428C34.3666 14.2259 36.4427 12.4532 37.8854 10.4895C38.5254 9.6184 39.4467 9.09946 40.5998 8.75981C42.1494 8.30337 43.4849 7.35209 44.3984 6.0197C45.1911 4.86345 45.8837 4.53821 47.1481 4.44673C48.2984 4.36349 49.3932 3.95874 50.3663 3.33967C52.4852 1.99166 54.459 1.83664 56.5521 2.74234C57.9235 3.33575 59.4272 3.60517 60.906 3.39122C63.3797 3.03336 64.9336 3.70897 66.422 5.66206C67.3818 6.9214 68.7615 7.7894 70.2268 8.38925C71.444 8.88751 72.4078 9.63669 73.0886 10.5041C74.7361 12.6033 76.5761 15.7708 77.2942 18.3408C77.3597 18.5754 77.4129 18.8208 77.454 19.0772C77.763 21.0031 78.6942 22.7524 80.0737 24.1313C81.4089 25.4657 81.6471 27.0803 80.3413 30.0183M31.0588 30.0183H36.8568M31.0588 30.0183C28.6573 30.0183 26.7104 31.9652 26.7104 34.3668V42.5805C26.7104 44.9821 28.6573 46.9289 31.0588 46.9289M80.3413 30.0183H65.8464M36.8568 30.0183C35.4338 28.2397 36.1063 27.2468 37.3313 26.0754C38.2575 25.1898 38.7714 23.9833 38.8043 22.7023C38.8845 19.5808 39.3957 18.83 42.6547 18.4226M36.8568 30.0183H65.8464M65.8464 30.0183C68.2508 26.927 68.9459 24.8124 67.9316 23.1538C67.027 21.6746 65.9432 20.2317 65.6063 18.5309C64.8869 14.9001 62.5512 13.6789 58.599 14.0741M24.7778 85.5819L14.3071 95.6338C13.2866 96.6135 11.8807 97.045 10.4697 97.1469C2.65894 97.7111 -2.6594 105.217 6.4879 108.859C8.17193 109.529 9.52738 110.885 10.1938 112.57C13.7967 121.684 20.9974 115.862 21.4415 107.235C21.5171 105.767 22.0135 104.316 23.0748 103.299L32.9913 93.7957M24.7778 85.5819L32.9913 93.7957M24.7778 85.5819C24.4734 84.6692 24.2649 83.9001 24.1673 83.2144C23.8284 80.8338 24.359 77.6503 24.6478 75.2632C24.7563 74.3661 24.9654 73.4575 25.2552 72.6766C25.8173 71.1621 26.6834 69.5836 27.3158 68.0971C27.4485 67.7852 27.6002 67.5085 27.7729 67.2624C29.3051 65.0777 31.2837 63.0637 32.0076 60.4954C32.1599 59.955 32.3888 59.4074 32.7135 58.8078C33.1677 57.969 33.4601 57.0471 33.5093 56.0945C33.6695 52.9925 34.4008 51.2431 36.08 49.5279C36.8521 48.7393 37.4311 47.7802 37.7429 46.7216C38.5803 43.8786 39.9298 42.319 42.1045 41.5731C43.3444 41.1479 44.5134 40.5051 45.4274 39.5655C47.6425 37.2885 49.7902 36.8374 53.0572 36.7877C53.5274 36.7806 53.997 36.7116 54.4496 36.5841C58.6087 35.413 61.3538 35.3996 65.0991 36.5437C65.5957 36.6954 66.1123 36.7771 66.6312 36.7973C69.2108 36.8977 70.851 37.5287 72.0845 39.0453C72.854 39.9914 73.7543 40.8413 74.8149 41.4434C77.1628 42.7761 78.3794 44.695 79.4782 47.4027C79.7375 48.0418 80.1231 48.6216 80.5719 49.1454C82.0054 50.8183 82.2314 52.098 82.2671 54.0014C82.2811 54.7514 82.4554 55.4892 82.7679 56.1711C84.0815 59.0377 84.4306 61.1342 83.3352 63.6603C83.0007 64.4317 82.7838 65.2522 82.6817 66.0868C82.4326 68.1211 81.5847 69.5858 80.4332 70.9236C79.7762 71.6869 79.3133 72.594 79.0793 73.5734C78.7128 75.1079 78.156 76.1619 76.7741 77.1163C75.9892 77.6584 75.276 78.3075 74.7418 79.0977C73.7114 80.6219 72.7087 81.4412 71.2368 81.7212C69.439 82.0632 67.726 82.7894 66.3673 84.0154C65.4755 84.8202 64.4987 85.3019 63.3227 85.3843C61.9234 85.4822 60.4903 85.9681 59.1561 86.4204L59.0428 86.4588C56.9046 87.1832 54.3865 87.2977 52.9419 89.0325C50.9184 91.4627 48.6232 92.5753 45.3567 92.7901C44.5373 92.8439 43.7307 93.0473 42.9976 93.4171C39.2425 95.3111 36.5194 95.5597 32.9913 93.7957M52.8011 44.5133C50.6017 44.7882 49.3409 45.5324 48.6627 47.013C47.5514 49.4389 45.105 51.1107 43.579 53.2997C43 54.1302 42.9156 55.2591 43.1379 56.5923M63.4305 43.0638C65.7552 43.4513 66.8371 44.1494 67.4237 45.9059C67.7427 46.861 68.2242 47.7533 68.7637 48.6036C69.6443 49.9918 69.3993 51.2107 68.2621 52.727M63.4305 62.3902C64.4501 63.4098 64.5134 64.9076 63.4522 66.0427C62.4565 67.1077 61.3061 68.1129 60.3253 69.1917C58.5143 71.1837 55.6844 71.1713 53.7672 69.6376M44.1041 63.8397C42.6546 64.3229 41.9318 65.7723 41.6903 67.705C39.7575 68.1881 39.2725 71.0871 39.2725 72.0534" stroke="url(#paint0_angular_142_14273)" stroke-width="3.29"/>
<defs>
<radialGradient id="paint0_angular_142_14273" cx="-.5" cy="-.2" r="1" gradientUnits="userSpaceOnUse" gradientTransform="translate(58 60) rotate(90) scale(57 57)">
<stop offset="0.1" stop-color="#8BAAE2"/>
<stop offset="0.5" stop-color="#FF096C"/>
<stop offset="1" stop-color="#8BAAE2"/>
</radialGradient>
</defs>
</svg>