<svg width="20" height="20" viewBox="0 0 20 20" fill="none" xmlns="http://www.w3.org/2000/svg">
<path d="M17.9614 0H1.56982C0.703125 0 0 0.703125 0 1.56982V17.9614C0 18.8281 0.703125 19.5312 1.56982 19.5312H17.9614C18.8281 19.5312 19.5312 18.8281 19.5312 17.9614V1.56982C19.5312 0.703125 18.8281 0 17.9614 0V0ZM17.9614 17.9688C7.02881 17.9663 1.5625 17.9639 1.5625 17.9614C1.56494 7.02881 1.56738 1.5625 1.56982 1.5625C12.5024 1.56494 17.9688 1.56738 17.9688 1.56982C17.9663 12.5024 17.9639 17.9688 17.9614 17.9688ZM2.89551 7.32178H5.79346V16.6431H2.89551V7.32178ZM4.3457 6.04736C5.271 6.04736 6.02539 5.29541 6.02539 4.36768C6.02539 4.1471 5.98194 3.92868 5.89753 3.72489C5.81312 3.5211 5.6894 3.33593 5.53342 3.17996C5.37745 3.02398 5.19228 2.90026 4.98849 2.81585C4.7847 2.73143 4.56628 2.68799 4.3457 2.68799C4.12512 2.68799 3.9067 2.73143 3.70291 2.81585C3.49913 2.90026 3.31396 3.02398 3.15798 3.17996C3.00201 3.33593 2.87829 3.5211 2.79387 3.72489C2.70946 3.92868 2.66602 4.1471 2.66602 4.36768C2.66357 5.29541 3.41553 6.04736 4.3457 6.04736ZM10.5054 12.0312C10.5054 10.8154 10.7373 9.63867 12.2437 9.63867C13.728 9.63867 13.75 11.0278 13.75 12.1094V16.6431H16.6455V11.5308C16.6455 9.021 16.1035 7.08984 13.1714 7.08984C11.7627 7.08984 10.8179 7.86377 10.4297 8.59619H10.3906V7.32178H7.60986V16.6431H10.5054V12.0312Z" fill="black"/>
</svg>
