<svg width="44" height="76" viewBox="0 0 44 76" fill="none" xmlns="http://www.w3.org/2000/svg">
<path d="M18.3593 9.60431L17.056 18.3023L15.4563 29.0485L22.8326 30.6377C23.6124 30.7961 24.3835 30.995 25.1426 31.2336L26.6511 21.0019L28.3323 9.60431H18.3593Z" fill="#E4C040"/>
<path d="M43.1468 50.8699L41.8762 59.366H10.9602L12.2993 50.3815L13.6025 41.664L15.4759 29.0388L22.8522 30.6279C23.632 30.7863 24.4031 30.9852 25.1622 31.2238L23.4582 42.7809L22.2527 50.8537V50.8699H43.1468Z" fill="#E4C040"/>
<path d="M16.7376 10.9069C17.6327 9.93645 18.751 9.19873 19.9957 8.75769C21.4813 8.22073 23.0525 7.95919 24.632 7.98591C26.1473 7.95574 27.6564 8.18821 29.0923 8.67302C30.2884 9.07602 31.3188 9.86098 32.0246 10.9069C32.7153 11.9381 33.014 13.3276 32.9206 15.0752H43.1119C43.2823 12.5237 42.6782 9.98017 41.3785 7.7775C40.0471 5.48496 38.0575 3.61468 35.4097 2.16665C32.762 0.718617 29.5039 -0.00322727 25.6355 0.00111465C22.24 -0.0302694 18.8711 0.601359 15.7179 1.86054C12.802 3.00106 10.195 4.81032 8.10698 7.14249C6.09313 9.41079 4.81011 12.2331 4.42534 15.2413C3.94315 19.0513 4.62734 22.0972 6.47794 24.3788C8.32853 26.6605 11.0642 28.1574 14.6851 28.8695L15.467 29.0388L22.8433 30.628C23.6231 30.7864 24.3942 30.9853 25.1533 31.2239C25.7495 31.4075 26.3347 31.6249 26.9061 31.8752C27.9541 32.2851 28.8787 32.958 29.5908 33.829C30.2098 34.6301 30.427 35.6624 30.2424 36.9259C30.0614 38.2723 29.4079 39.5106 28.3983 40.4201C27.2914 41.3945 25.9782 42.1059 24.5571 42.5009C24.1889 42.6084 23.824 42.7061 23.4395 42.7843L22.2536 50.8537C24.6252 50.6131 26.9537 50.0556 29.177 49.1962C32.3439 47.9435 34.9221 46.2458 36.9117 44.1031C38.8176 42.1153 40.0517 39.58 40.4402 36.8543C40.6268 35.4579 40.6836 34.0473 40.6096 32.6404C40.5295 31.0857 40.15 29.5609 39.4921 28.1498C38.707 26.5538 37.5203 25.1892 36.0483 24.19C34.4323 23.0176 32.1419 22.1352 29.177 21.5425L26.6618 20.9921L21.123 19.784C19.3376 19.3704 17.9822 18.8885 17.0667 18.3023C16.7433 18.1032 16.4475 17.8623 16.187 17.5859C15.366 16.6915 15.0597 15.5213 15.2683 14.0755C15.4215 12.8937 15.9345 11.7876 16.7376 10.9069ZM11.73 39.987C10.9204 38.8728 10.4661 37.5403 10.4267 36.1639H0.0204109C-0.0968802 38.7104 0.337531 40.9259 1.32364 42.8103C2.2831 44.6723 3.69039 46.2669 5.41906 47.4507C7.25302 48.7043 9.29324 49.6258 11.4465 50.1731C11.7397 50.2513 12.0199 50.3197 12.3132 50.3815L13.6164 41.664C12.8917 41.2231 12.2526 40.655 11.73 39.987Z" fill="#4E196E"/>
<path d="M0 63.391H2.16011H2.93879C3.9535 63.3781 4.95733 63.601 5.87107 64.0423C6.58858 64.4061 7.16915 64.9921 7.52618 65.7128C7.89497 66.5089 8.07557 67.3791 8.05399 68.2561C8.07635 69.1702 7.88444 70.0769 7.4936 70.9036C7.11997 71.6436 6.51951 72.2449 5.77984 72.6197C4.87362 73.0548 3.87502 73.2627 2.87037 73.2254H0V63.391ZM2.00046 64.9964V71.62H2.91273C3.44214 71.6271 3.96645 71.5159 4.44729 71.2944C4.91463 71.0622 5.29664 70.6883 5.53875 70.2262C5.84208 69.6119 5.98445 68.9307 5.95252 68.2463C5.97849 67.6044 5.85351 66.9653 5.58762 66.3804C5.36825 65.9281 5.00817 65.5591 4.56132 65.3286C4.05072 65.0958 3.49316 64.9844 2.93228 65.0029L2.00046 64.9964Z" fill="white"/>
<path d="M11.1785 70.1644C11.1658 70.4846 11.2237 70.8036 11.3479 71.099C11.4534 71.3505 11.6329 71.564 11.8627 71.7112C12.1066 71.8598 12.3884 71.9344 12.6739 71.9261C12.9866 71.9337 13.2958 71.8584 13.5699 71.7079C13.8357 71.549 14.0277 71.2915 14.1042 70.9915H15.8929C15.8304 71.467 15.6286 71.9134 15.313 72.2746C14.9921 72.6276 14.5956 72.9036 14.1531 73.0822C13.6308 73.2927 13.069 73.3874 12.5065 73.3599C11.9441 73.3323 11.3942 73.1831 10.895 72.9226C10.3734 72.6352 9.94495 72.2047 9.66021 71.6819C9.35428 71.099 9.2018 70.4479 9.21711 69.7899C9.20635 69.1347 9.34448 68.4855 9.62112 67.8914C9.87342 67.3418 10.2782 66.8761 10.7875 66.5497C11.3399 66.2096 11.9798 66.0386 12.6283 66.058C13.2606 66.0363 13.8862 66.1932 14.4333 66.5107C14.9191 66.8087 15.3031 67.247 15.5345 67.7676C15.7922 68.3531 15.919 68.9876 15.906 69.6271V70.1644H11.1785ZM11.1785 68.9823H14.0423C14.0453 68.7158 13.992 68.4517 13.8859 68.2073C13.7892 67.9777 13.6243 67.7834 13.4135 67.6504C13.1752 67.5065 12.9001 67.4352 12.6218 67.4453C12.3425 67.4369 12.0674 67.5142 11.8334 67.6667C11.6215 67.8108 11.4517 68.0086 11.3414 68.2398C11.229 68.4712 11.1711 68.7251 11.172 68.9823H11.1785Z" fill="white"/>
<path d="M20.0437 73.3622C19.5607 73.3634 19.0812 73.2808 18.6265 73.1179C18.1862 72.9658 17.7917 72.7048 17.4796 72.3592C17.1493 71.9786 16.9405 71.508 16.8801 71.0078H18.6004C18.6467 71.2337 18.7603 71.4403 18.9262 71.6004C19.0791 71.7419 19.2617 71.8476 19.4605 71.9098C19.646 71.9689 19.8393 71.9997 20.034 72.001C20.3511 72.0145 20.667 71.9532 20.956 71.8219C21.0626 71.7738 21.1525 71.6952 21.2145 71.5961C21.2766 71.4971 21.3079 71.3819 21.3046 71.265C21.3082 71.1785 21.2912 71.0923 21.2549 71.0136C21.2187 70.9349 21.1642 70.8659 21.0961 70.8124C20.8937 70.6716 20.6599 70.5821 20.4151 70.5519L19.1738 70.2946C18.6282 70.1958 18.1149 69.9656 17.6784 69.6238C17.4878 69.4576 17.3371 69.2508 17.2372 69.0186C17.1374 68.7863 17.0911 68.5347 17.1017 68.2821C17.0928 67.8791 17.2064 67.4828 17.4275 67.1456C17.6775 66.7914 18.0233 66.5158 18.4245 66.3511C18.941 66.1405 19.4959 66.0406 20.0535 66.058C20.7896 66.0205 21.5182 66.2203 22.1322 66.6279C22.3878 66.8133 22.5938 67.0589 22.7319 67.3429C22.87 67.6269 22.9359 67.9406 22.9239 68.2561H21.2623C21.2433 68.1257 21.197 68.0008 21.1262 67.8897C21.0554 67.7785 20.9619 67.6836 20.8517 67.6113C20.6053 67.4567 20.3182 67.3795 20.0274 67.3899C19.7328 67.3783 19.4401 67.4422 19.1771 67.5755C19.0748 67.6269 18.9896 67.7069 18.9317 67.8057C18.8739 67.9045 18.846 68.018 18.8513 68.1323C18.8509 68.2235 18.8765 68.3129 18.9249 68.3901C18.9733 68.4674 19.0427 68.5293 19.1249 68.5687C19.39 68.7046 19.6747 68.798 19.9688 68.8455L21.1124 69.1028C21.4581 69.1765 21.7886 69.3086 22.0898 69.4935C22.3128 69.6367 22.5072 69.82 22.6632 70.0341C22.792 70.2121 22.888 70.4117 22.9467 70.6235C22.9954 70.7975 23.0217 70.9769 23.0249 71.1576C23.0378 71.5857 22.9058 72.0056 22.6502 72.3494C22.3815 72.693 22.0213 72.9537 21.6109 73.1017C21.1094 73.2859 20.5778 73.3743 20.0437 73.3622Z" fill="white"/>
<path d="M26.4101 63.3975V65.1885H24.478V63.3975H26.4101ZM26.3905 66.1947V73.2254H24.4911V66.1947H26.3905Z" fill="white"/>
<path d="M31.4047 75.5506C30.1536 75.5506 29.2023 75.3921 28.5506 75.0751C27.899 74.7582 27.5732 74.3413 27.5732 73.8246C27.5664 73.6068 27.6342 73.3931 27.7654 73.2189C27.8867 73.0603 28.0384 72.9274 28.2118 72.8282C28.3588 72.746 28.5125 72.6763 28.6712 72.6198C28.7605 72.5902 28.8476 72.5542 28.9318 72.5123L28.606 72.3332C28.4623 72.2471 28.3344 72.137 28.2281 72.0075C28.1086 71.8533 28.0474 71.6619 28.0554 71.467C28.0603 71.3325 28.0947 71.2006 28.156 71.0808C28.2174 70.961 28.3043 70.856 28.4105 70.7734C28.725 70.5275 29.1019 70.3741 29.4987 70.3305C29.0705 70.1419 28.7045 69.8359 28.4431 69.448C28.2132 69.1106 28.0874 68.7132 28.0815 68.305C28.0716 67.854 28.2362 67.4166 28.5409 67.0838C28.8625 66.7324 29.2718 66.4728 29.7268 66.3316C30.2764 66.1508 30.8523 66.0628 31.4308 66.0711C31.8338 66.0603 32.236 66.1119 32.6232 66.2241C32.9229 66.3239 33.2104 66.4572 33.4801 66.6214L33.8939 66.4618C34.0666 66.3967 34.2523 66.3251 34.451 66.2436C34.6498 66.1622 34.8485 66.0873 35.0375 66.0059L35.549 65.7943V67.328L34.3305 67.5267C34.3811 67.654 34.4193 67.786 34.4445 67.9207C34.4703 68.0351 34.4845 68.1519 34.4869 68.2692C34.4858 68.6776 34.3609 69.0762 34.1285 69.4122C33.8585 69.7911 33.4886 70.0876 33.0598 70.2686C32.5043 70.5007 31.9056 70.6117 31.3037 70.5943H30.9584L30.6098 70.5747C30.4202 70.5709 30.2319 70.6052 30.0559 70.6757C29.9581 70.731 29.906 70.7929 29.906 70.8645C29.906 70.9362 30.0103 71.0469 30.2123 71.0795C30.4143 71.112 30.727 71.1446 31.1376 71.1706L31.7436 71.2065C32.0042 71.2065 32.2877 71.2358 32.6004 71.2586C33.2965 71.2642 33.9724 71.4924 34.5292 71.9099C34.7353 72.0743 34.901 72.2835 35.014 72.5217C35.1269 72.7598 35.184 73.0206 35.1808 73.2841C35.177 73.6127 35.0891 73.9349 34.9254 74.2199C34.7617 74.5049 34.5278 74.7433 34.2458 74.9123C33.6007 75.3356 32.6623 75.5506 31.4047 75.5506ZM31.7305 74.4434C32.1326 74.4744 32.5363 74.4074 32.9067 74.248C33.0145 74.1929 33.1049 74.1089 33.1676 74.0054C33.2304 73.9018 33.263 73.7829 33.2618 73.6618C33.2629 73.5599 33.2388 73.4594 33.1916 73.369C33.1444 73.2787 33.0757 73.2014 32.9914 73.144C32.7524 72.993 32.4759 72.9118 32.1932 72.9096L30.5641 72.7989C30.3747 72.7865 30.1849 72.8189 30.0103 72.8933C29.8609 72.958 29.7315 73.0614 29.6356 73.1929C29.5505 73.3128 29.505 73.4562 29.5053 73.6032C29.5053 73.8963 29.6845 74.1134 30.0428 74.2545C30.5884 74.4129 31.157 74.4767 31.724 74.4434H31.7305ZM31.3559 69.4968C31.6868 69.514 32.0118 69.4046 32.2649 69.1907C32.3798 69.084 32.4702 68.9536 32.5298 68.8085C32.5894 68.6635 32.6169 68.5072 32.6102 68.3506C32.6159 68.1864 32.5872 68.0228 32.526 67.8703C32.4649 67.7178 32.3726 67.5797 32.2551 67.4648C32.0015 67.2502 31.68 67.1324 31.3477 67.1324C31.0154 67.1324 30.6939 67.2502 30.4403 67.4648C30.3224 67.5792 30.2301 67.7173 30.1694 67.87C30.1088 68.0227 30.0812 68.1865 30.0885 68.3506C30.0801 68.5047 30.1048 68.6589 30.161 68.8027C30.2172 68.9465 30.3036 69.0766 30.4143 69.1842C30.673 69.4068 31.0087 69.519 31.3493 69.4968H31.3559Z" fill="white"/>
<path d="M36.6895 73.2254V66.1947H38.6443V67.1717C38.7635 66.9881 38.9059 66.8207 39.0679 66.6734C39.2594 66.5029 39.4801 66.3683 39.7195 66.2761C40.0241 66.1654 40.3467 66.1124 40.6708 66.1198C41.087 66.1167 41.499 66.2022 41.8796 66.3706C42.2537 66.5395 42.5698 66.8147 42.7886 67.1619C43.0356 67.5907 43.1554 68.0809 43.1339 68.5752V73.2124H41.1465V68.8325C41.1606 68.6744 41.1386 68.5151 41.0822 68.3668C41.0257 68.2184 40.9363 68.0848 40.8207 67.976C40.5881 67.7822 40.2926 67.6802 39.9899 67.6894C39.7748 67.689 39.5615 67.7287 39.3611 67.8067C39.1692 67.8758 38.9994 67.995 38.8691 68.1519C38.739 68.3128 38.6708 68.5149 38.6769 68.7217V73.2254H36.6895Z" fill="white"/>
</svg>
