<svg width="107.77" height="72" viewBox="0 0 178 119" fill="none" xmlns="http://www.w3.org/2000/svg">
<path d="M176.16 72.1047V109.402C176.16 113.693 172.681 117.172 168.39 117.172H106.228C101.936 117.172 98.4573 113.693 98.4573 109.402V82.9831M176.16 72.1047C176.16 67.8133 172.681 64.3344 168.39 64.3344H163.728M176.16 72.1047V12.1722C176.16 6.64939 171.683 2.17224 166.16 2.17224H151.295C147.862 2.17224 145.079 4.95534 145.079 8.38846V8.38846C145.079 11.8216 147.862 14.6047 151.295 14.6047H154.403C159.553 14.6047 163.728 18.7793 163.728 23.929V64.3344M79.8087 70.5506V70.5506C79.8087 67.1175 77.0256 64.3344 73.5924 64.3344H14.5384M79.8087 70.5506H98.6127M79.8087 70.5506V82.9831M98.6127 70.5506C99.3327 67.0039 102.468 64.3344 106.228 64.3344H163.728M98.6127 70.5506C98.5108 71.0528 98.4573 71.5725 98.4573 72.1047V82.9831M79.8087 82.9831V107.172C79.8087 112.695 75.3315 117.172 69.8086 117.172H12.106C6.58311 117.172 2.10596 112.695 2.10596 107.172V68.9966M79.8087 82.9831H98.4573M14.5384 64.3344V23.929C14.5384 18.7793 18.713 14.6047 23.8627 14.6047H26.9708C30.4039 14.6047 33.187 11.8216 33.187 8.38846V8.38846C33.187 4.95534 30.4039 2.17224 26.9708 2.17224H12.106C6.58312 2.17224 2.10596 6.64939 2.10596 12.1722V68.9966M14.5384 64.3344H10.1332C7.48106 64.3344 5.01731 65.4587 3.37897 67.5443C2.99871 68.0284 2.59003 68.5125 2.10596 68.9966M153.728 104.74H120.89C115.367 104.74 110.89 100.263 110.89 94.7398V86.7668C110.89 81.244 115.367 76.7668 120.89 76.7668H153.728C159.25 76.7668 163.728 81.244 163.728 86.7668V94.7398C163.728 100.263 159.25 104.74 153.728 104.74ZM24.5384 104.74H57.3762C62.8991 104.74 67.3762 100.263 67.3762 94.7398V86.7668C67.3762 81.244 62.8991 76.7668 57.3762 76.7668H24.5384C19.0155 76.7668 14.5384 81.244 14.5384 86.7668V94.7398C14.5384 100.263 19.0155 104.74 24.5384 104.74Z" stroke="url(#paint0_angular_142_14267)" stroke-width="3.29"/>
<defs>
<radialGradient id="paint0_angular_142_14267" cx="0" cy="0" r="1" gradientUnits="userSpaceOnUse" gradientTransform="translate(90 50) rotate(90) scale(57.5 105)">
<stop offset="0.114353" stop-color="#8BAAE2"/>
<stop offset="0.5" stop-color="#FF096C"/>
<stop offset="0.890502" stop-color="#8BAAE2"/>
</radialGradient>
</defs>
</svg>