<svg width="90" height="72" viewBox="0 0 151 121" fill="none" xmlns="http://www.w3.org/2000/svg">
<path d="M99.3294 76.8977C87.5203 79.6035 69.8645 90.6606 49.0954 90.154C25.44 89.5771 9.28515 73.9992 5.82339 73.9992C2.36163 73.9992 1.78469 75.1531 1.78467 78.0379C23.2543 122.06 88.9056 131.118 119.484 103.424M99.3294 76.8977C100.97 76.5217 102.499 76.307 103.907 76.307C115.446 76.307 113.138 79.7687 118.331 80.9227C123.523 82.0766 129.293 72.2683 144.871 68.8066C148.067 70.2748 148.856 71.7617 148.332 75.73C130.447 78.6148 122.369 82.6535 121.792 89.577C121.215 96.5006 122.369 99.9622 119.484 103.424M99.3294 76.8977C99.3166 76.8931 99.3037 76.8885 99.2909 76.884M99.3294 76.8977C107.374 79.7834 109.095 84.3908 106.214 88.4231C113.138 87.8462 115.446 90.7309 113.715 99.9623C118.331 98.8083 119.484 99.9622 119.484 103.424M10.9532 83.4128C43.263 101.876 62.8796 101.876 96.9202 85.1437C70.957 107.645 35.1855 105.337 10.9532 83.4128ZM13.4425 63.1947C19.7458 67.7789 23.7571 70.0711 28.9144 71.2171C25.5007 63.4485 23.6757 56.0846 28.6989 49.6432C29.8725 66.66 41.5357 61.4756 47.2514 55.7452C47.4851 55.511 52.0891 51.8097 54.2241 44.9489C56.0974 53.565 57.9606 54.5287 55.8469 61.4756C60.2769 57.8294 61.8523 55.2176 66.5466 50.0149C63.6814 64.3407 69.5997 71.7902 78.1952 68.925C83.3525 67.2059 86.2177 65.4868 90.802 64.3407C72.4649 58.6104 70.7458 48.2958 78.7683 24.2284C70.7458 30.5318 65.0155 35.116 61.5773 47.1497C62.7233 35.116 59.8582 15.6329 44.3863 4.17224C51.2627 32.8239 50.6896 47.1497 38.6559 43.1385C29.2046 39.2468 26.9385 30.866 19.2055 22.2775C21.0707 31.1594 20.4839 42.6017 19.1728 47.1497C17.8617 51.6978 14.0155 55.7452 13.4425 63.1947Z" stroke="url(#paint0_angular_141_14265)" stroke-width="3.29"/>
<defs>
<radialGradient id="paint0_angular_141_14265" cx="-.2" cy=".1" r="1" gradientUnits="userSpaceOnUse" gradientTransform="translate(55 60) rotate(70) scale(57 57)">
<stop offset="0.1" stop-color="#8BAAE2"/>
<stop offset="0.5" stop-color="#FF096C"/>
<stop offset="1" stop-color="#8BAAE2"/>
</radialGradient>
</defs>
</svg>