<svg width="65" height="74" viewBox="0 0 65 74" fill="none" xmlns="http://www.w3.org/2000/svg">
<path d="M34.0404 15.8168C33.7773 16.3513 33.2283 16.7159 32.5882 16.7159C31.689 16.7159 30.9698 15.9966 30.9698 15.0975C30.9698 14.4574 31.3344 13.9084 31.8689 13.6453M34.0404 15.8168C34.1469 15.6005 34.2065 15.3565 34.2065 15.0975C34.2065 14.8385 34.1469 14.5945 34.0404 14.3782M34.0404 15.8168H36.1846C36.5442 15.4572 36.5442 14.7379 36.1846 14.3782H34.0404M31.8689 13.6453C32.0851 13.5388 32.3292 13.4791 32.5882 13.4791C32.8471 13.4791 33.0912 13.5388 33.3074 13.6453M31.8689 13.6453V8.26431C32.2285 7.90466 32.9478 7.90466 33.3074 8.26431V13.6453M33.3074 13.6453C33.6257 13.8019 33.8837 14.06 34.0404 14.3782M46.9739 53.2196C54.1666 56.816 57.763 69.4036 46.9739 73H18.2025C7.41331 69.4036 11.0096 56.816 18.2025 53.2196M46.9739 53.2196C45.3833 54.1853 43.8286 54.9985 42.2985 55.6591M46.9739 53.2196C53.3716 50.0208 56.6079 46.1897 58.1826 41.3514M18.2025 53.2196C19.7931 54.1853 21.3478 54.9985 22.8779 55.6591M18.2025 53.2196C11.8049 50.0208 8.56853 46.1897 6.99388 41.3514M22.8779 55.6591C29.5049 58.5203 35.6713 58.5203 42.2985 55.6591M22.8779 55.6591C22.8779 65.0878 42.2985 65.0878 42.2985 55.6591M6.99388 41.3514C5.91297 38.0302 5.61505 34.2345 5.61505 29.8429M6.99388 41.3514C1.01111 42.3044 -1.09022 33.9985 3.45709 30.8071M5.61505 29.8429C7.77279 30.5622 9.57101 30.5622 11.0096 29.8429C14.596 26.7688 18.6204 24.5705 22.8332 23.2482M5.61505 29.8429C4.77532 30.0528 4.05813 30.3853 3.45709 30.8071M58.1826 41.3514C59.2635 38.0302 59.5614 34.2345 59.5614 29.8429M58.1826 41.3514C64.9559 42.4304 66.7541 31.6411 59.5614 29.8429M59.5614 29.8429C57.4034 30.5622 55.6052 30.5622 54.1666 29.8429C50.5802 26.7688 46.5558 24.5706 42.3431 23.2482M59.5614 29.8429V15.4572C59.5614 13 55.2456 6.10645 50.5702 6.46609C46.9738 6.82574 45.1756 6.82574 41.9241 6.46609M22.8332 23.2482C21.0473 21.0851 20.0007 18.2657 20.0007 15.0975C20.0007 10.4004 22.3011 6.47017 25.9006 4.30824M22.8332 23.2482C25.1019 25.9961 28.5635 27.685 32.5882 27.685C36.6128 27.685 40.0744 25.9961 42.3431 23.2482M42.3431 23.2482C44.129 21.0851 45.1756 18.2657 45.1756 15.0975C45.1756 11.689 43.9642 8.6843 41.9241 6.46609M41.9241 6.46609C39.6591 4.00331 36.3725 2.51003 32.5882 2.51003C30.0924 2.51003 27.8131 3.15951 25.9006 4.30824M3.45709 30.8071C3.09744 27.685 3.81673 25.5271 4.89566 23.7289M6.33423 19.4132C6.69387 17.9746 7.05351 16.8957 8.13244 15.8168M11.7289 11.5011C16.4042 7.18538 20.0006 5.38717 25.9006 4.30824M20.0006 35.2375L23.5971 37.0357L20.0006 38.8339M45.1756 35.2375L41.5792 37.0357L45.1756 38.8339M32.5881 42.4303C28.9917 42.4303 27.1935 44.2285 27.1935 46.0267H37.9827C37.9827 44.2285 36.1845 42.4303 32.5881 42.4303ZM43.3774 4.66788C44.0967 3.22932 43.9696 1.99536 44.816 1.43111C45.8949 0.711819 47.6931 1.79073 46.6142 3.22932C46.0039 4.0431 44.816 3.9486 43.3774 4.66788ZM47.3335 3.94859C48.0528 2.51003 47.8622 1.52635 48.7721 1.07143C49.4913 0.711794 50.5703 1.79075 49.851 2.51001C49.1317 3.22929 48.7721 3.22931 47.3335 3.94859Z" stroke="url(#paint0_angular_205_18192)" stroke-width="1"/>
<defs>
<radialGradient id="paint0_angular_205_18192" cx="0" cy="0" r="1" gradientUnits="userSpaceOnUse" gradientTransform="translate(32.5881 37) rotate(90) scale(25 25)">
<stop offset="0.1" stop-color="#94DFB6"/>
<stop offset="0.75" stop-color="white"/>
<stop offset="1" stop-color="#94DFB6"/>
</radialGradient>
</defs>
</svg>