<svg xmlns="http://www.w3.org/2000/svg" width="69" height="75" fill="none" viewBox="0 0 69 75">
  <path stroke="url(#a)" d="M52.355 22.692c-4.352-1.45-12.186-3.139-12.186-6.185 0-2.901 1.45-5.803 1.45-8.704C41.62 4.9 37.268 2 31.466 2 12.605 3.45 1 22.31 1 35.366c0 13.056 5.803 25.822 29.708 25.822m18.829-34.526 6.262 4.352m.037-10.832-1.16-.774C41.417 38.25 33.529 47.692 27.783 71.633c-.558 2.322-.943 3.192.78 1.439C43.52 57.85 50.592 46.212 59.028 22.31l-.29-.194m-2.902-1.934 2.902 1.934m-2.902-1.934c.58-1.644.58-2.224.436-4.013-.145-1.693-.145-2.273.435-4.014 1.45-2.611 2.03-4.062 5.222-5.078C64.831 6.062 66.281 4.901 67.732 2c.58 6.383.87 9.284-1.45 13.056-1.451 2.031-1.741 2.612-3.772 3.53-2.322 1.113-3.192 1.983-3.772 3.53m-1.16 4.218c5.802 7.581-.871 24.7-15.59 31.083m-27.06-41.345c-2.612 0-4.352 1.74-4.352 4.352 0 2.611 1.74 4.352 4.352 4.352 2.611 0 4.352-1.74 4.352-4.352 0-2.611-1.741-4.352-4.352-4.352ZM9.704 29.999c-2.611 0-4.352 1.74-4.352 4.352 0 2.61 1.74 4.352 4.352 4.352 2.611 0 4.352-1.741 4.352-4.352 0-2.612-1.74-4.352-4.352-4.352Zm6.673 14.797c-2.61 0-4.352 1.74-4.352 4.352 0 2.611 1.741 4.352 4.352 4.352 2.612 0 4.353-1.741 4.353-4.352 0-2.612-1.741-4.352-4.353-4.352ZM37.703 22.31c-2.902 0-5.803 4.932-5.803 7.253 0 2.321 0 4.352 2.901 4.352 2.902 0 5.803-4.932 5.803-7.253 0-2.321 0-4.352-2.901-4.352Z"/>
  <defs>
    <radialGradient id="a" cx="-.2" cy="0" r="1" gradientTransform="matrix(0 36 -33.5705 0 34.57 38)" gradientUnits="userSpaceOnUse">
      <stop offset="0.1" stop-color="#000000"/>
        <stop offset="0.25" stop-color="#ffffff"/>
        <stop offset="0.9" stop-color="#000000"/>
    </radialGradient>
  </defs>
</svg>
