<svg width="77" height="74" viewBox="0 0 77 74" fill="none" xmlns="http://www.w3.org/2000/svg">
<path d="M26.0267 73H1V57.599C4.85026 46.0481 22.1764 46.0481 26.0267 57.599M26.0267 73V57.599M26.0267 73L51.0534 73M26.0267 57.599C29.8769 46.0481 47.2031 46.0481 51.0534 57.599M51.0534 73V57.599M51.0534 73H76.08V57.599C72.2298 46.0481 54.9036 46.0481 51.0534 57.599M11.5882 29.8363V28.9144C15.4385 17.3636 32.7646 17.3636 36.6149 28.9144V29.8363M11.5882 29.8363C12.2021 29.7361 12.8448 29.6845 13.5133 29.6845C19.2887 29.6845 23.139 33.5348 23.139 39.3102C23.139 45.0855 19.2887 48.9358 13.5133 48.9358C7.73795 48.9358 3.88769 45.0855 3.88769 39.3102C3.88769 34.2033 6.89821 30.6016 11.5882 29.8363ZM36.6149 29.8363C37.2288 29.7361 37.8715 29.6845 38.54 29.6845C44.3154 29.6845 48.1657 33.5348 48.1657 39.3102C48.1657 45.0855 44.3154 48.9358 38.54 48.9358C32.7646 48.9358 28.9144 45.0855 28.9144 39.3102C28.9144 34.2033 31.9249 30.6016 36.6149 29.8363ZM40.4651 29.8363V28.9144C44.3154 17.3636 61.6416 17.3636 65.4918 28.9144V29.8363M63.5667 29.6845C57.7913 29.6845 53.941 33.5348 53.941 39.3102C53.941 45.0855 57.7913 48.9358 63.5667 48.9358C69.3421 48.9358 73.1923 45.0855 73.1923 39.3102C73.1923 33.5348 69.3421 29.6845 63.5667 29.6845ZM24.1015 1C18.3262 1 14.4759 4.85026 14.4759 10.6256C14.4759 16.401 18.3262 20.2513 24.1015 20.2513C29.8769 20.2513 33.7272 16.401 33.7272 10.6256C33.7272 4.85026 29.8769 1 24.1015 1ZM52.9785 1C47.2031 1 43.3528 4.85026 43.3528 10.6256C43.3528 16.401 47.2031 20.2513 52.9785 20.2513C58.7539 20.2513 62.6041 16.401 62.6041 10.6256C62.6041 4.85026 58.7539 1 52.9785 1Z" stroke="url(#paint0_angular_205_18196)"/>
<defs>
<radialGradient id="paint0_angular_205_18196" cx="0" cy="0" r="1" gradientUnits="userSpaceOnUse" gradientTransform="translate(38.54 37) rotate(90) scale(25 25)">
<stop offset="0.1" stop-color="#94DFB6"/>
<stop offset="0.75" stop-color="white"/>
<stop offset="1" stop-color="#94DFB6"/>
</radialGradient>
</defs>
</svg>