<svg width="74.919" height="72" viewBox="0 0 77 74" fill="none" xmlns="http://www.w3.org/2000/svg">
<path d="M33.2999 26.0715H43.418M33.2999 26.0715C32.1324 25.2932 32.1325 23.7366 33.2999 22.9582H35.6349M33.2999 26.0715H28.63C27.4626 26.0715 25.9059 27.6281 25.9059 28.7956L25.9059 73M43.418 26.0715C44.5855 25.2932 44.5855 23.7366 43.418 22.9582H41.0831M43.418 26.0715H48.0879C49.2554 26.0715 50.812 27.6281 50.812 28.7956L50.8534 72.5759M35.6349 22.9582C36.024 22.9582 36.8023 22.5691 36.8023 21.7908V16.7317M35.6349 22.9582H41.0831M36.8023 16.7317H39.9156M36.8023 16.7317H35.2457C34.0782 16.7317 32.5216 15.1751 32.5216 13.2293M39.9156 16.7317V21.7908C39.9156 22.5691 40.6939 22.9582 41.0831 22.9582M39.9156 16.7317H41.4722C42.6397 16.7317 44.1963 15.1751 44.1963 13.2293M32.5216 13.2293H30.5758C28.63 13.2293 26.6842 11.2835 26.6842 9.33772V5.44614C26.6842 3.50035 28.63 1.55457 30.5758 1.55457H32.5216M32.5216 13.2293V11.2835M32.5216 1.55457H44.1963M32.5216 1.55457V3.50036M44.1963 1.55457V13.2293M44.1963 1.55457H46.1421C48.0879 1.55457 50.0337 3.50035 50.0337 5.44614V7.39193V9.33772C50.0337 11.2835 48.0879 13.2293 46.1421 13.2293H44.1963M44.1963 3.50036H46.1421C48.0879 3.50036 48.0879 5.44614 48.0879 7.39193C48.0879 9.33772 48.0879 11.2835 46.1421 11.2835H44.1963M32.5216 3.50036H30.5758C28.63 3.50036 28.63 5.44614 28.63 7.39193C28.63 9.33772 28.63 11.2835 30.5758 11.2835H32.5216M32.5216 3.50036V11.2835M25.9059 73L50.8534 72.5759M25.9059 73H1L1.00003 51.0126C1.00003 49.8451 2.55665 48.2885 3.72413 48.2885H8.39397H18.5121H23.182C24.3495 48.2885 25.9061 49.8451 25.9061 51.0126L25.9059 73ZM50.8534 72.5759L50.8534 44.3619C50.8534 43.1945 52.41 41.6378 53.5775 41.6378H58.2474H68.3655H73.0354C74.2029 41.6378 75.7595 43.1945 75.7595 44.3619V72.5759H50.8534ZM34.4675 46.3077C33.6892 47.086 33.6892 48.6427 34.4675 49.421H42.2507C43.029 48.6427 43.029 47.086 42.2507 46.3077H39.9157V35.4113C39.9157 34.633 38.9428 33.6601 38.1645 33.6601L33.6892 38.1354C33.6892 38.9137 34.8567 40.0812 35.635 40.0812L36.8025 38.9137V46.3077H34.4675ZM38.3591 5.8353L37.1916 7.78109L35.2458 8.17025L36.8025 9.72688L36.4133 12.0618L38.3591 10.8944L40.3049 12.0618L39.9157 9.72688L41.4724 8.17025L39.5266 7.78109L38.3591 5.8353ZM67.1567 64.9873C67.935 64.209 67.935 62.6523 67.1567 61.874H61.7084C61.5139 61.4849 61.5139 61.4849 61.7084 61.0957L67.0455 57.5933C67.5458 57.2041 67.935 56.4258 67.935 55.6475V52.9234C67.935 51.7559 66.3783 49.8101 65.2109 49.8101H61.3193C60.1518 49.8101 58.5951 51.7559 58.5951 52.9234L58.5952 54.8692C58.5952 55.2583 59.3735 55.6475 59.7627 55.6475H60.9301C61.3193 55.6475 61.7084 55.2583 61.7084 54.8692V53.3125C61.7084 52.9234 62.0976 52.5342 62.4868 52.5342H64.0434C64.4326 52.5342 64.8217 52.9234 64.8217 53.3125V56.0367L59.7627 59.2175C58.9843 59.7336 58.5952 60.7065 58.5952 61.4849V63.8198C58.5952 64.5981 58.9843 64.9873 59.7627 64.9873H67.1567ZM8.7831 64.5981C9.17226 63.8198 10.3397 63.4306 11.1181 63.8198C11.1179 64.9873 11.5071 66.5439 12.6747 66.5439H14.2313C14.6203 66.5439 15.0096 66.1548 15.0096 65.7656V64.5981C15.0095 63.8198 14.6206 63.4306 13.8422 63.4306C13.0637 63.4306 11.8962 63.0415 11.8964 62.6523V61.4849C11.8964 61.0957 13.0637 60.3174 13.8422 60.3174C14.6206 60.3174 15.0096 59.9282 15.0096 59.1499V57.9824C15.0095 57.5933 14.6203 57.2041 14.2313 57.2041H12.6747C12.2854 57.2041 11.8962 57.5933 11.8962 57.9824V59.1499C11.8962 59.9282 11.507 60.3174 10.7289 60.3174H9.56142C9.1721 60.3174 8.78294 59.5391 8.7831 59.1499V57.5933C8.7831 56.4258 11.1179 54.2854 12.2854 54.2854H14.6203C16.1768 54.2854 17.9282 56.0367 17.9282 57.5933V59.5391C17.9282 60.512 17.7336 61.0957 16.9554 61.874C17.7336 62.6523 17.9282 63.4306 17.9282 64.5981V66.5439C17.928 67.7114 16.177 69.268 15.0096 69.268H11.8962C10.3396 69.268 8.7831 67.7114 8.7831 66.1548V64.5981ZM57.4277 3.11122L58.9843 1.55457C60.1518 0.387113 62.0976 2.33289 60.9301 3.50036L59.3735 5.057C58.206 6.22449 56.2602 4.27869 57.4277 3.11122ZM17.3444 15.1751C18.5119 14.0076 20.4577 15.9534 19.2902 17.1209L17.7336 18.6775C16.5661 19.845 14.6203 17.8992 15.7878 16.7317L17.3444 15.1751ZM19.2902 2.91662C20.4577 4.08409 18.5119 6.02988 17.3444 4.86241L15.7878 3.30578C14.6203 2.1383 16.5661 0.192516 17.7336 1.35999L19.2902 2.91662ZM60.9301 16.5371C62.0976 17.7046 60.1518 19.6504 58.9843 18.4829L57.4277 16.9263C56.2602 15.7588 58.206 13.813 59.3735 14.9805L60.9301 16.5371ZM16.9553 11.2835H14.2312C13.0637 11.2835 13.0637 8.75399 14.2312 8.75399H16.9553C18.1228 8.75399 18.1228 11.2835 16.9553 11.2835ZM62.4867 11.2835H59.7626C58.5952 11.2835 58.5952 8.75399 59.7626 8.75399H62.4867C63.6542 8.75399 63.6542 11.2835 62.4867 11.2835Z" stroke="url(#paint0_angular_205_18202)"/>
<defs>
<radialGradient id="paint0_angular_205_18202" cx="0" cy="0" r="1" gradientUnits="userSpaceOnUse" gradientTransform="translate(38.3797 35) rotate(90) scale(25 25)">
<stop offset="0.1" stop-color="#94DFB6"/>
<stop offset="0.75" stop-color="white"/>
<stop offset="1" stop-color="#94DFB6"/>
</radialGradient>
</defs>
</svg>