<svg width="73" height="74" viewBox="0 0 73 74" fill="none" xmlns="http://www.w3.org/2000/svg">
<path d="M27.9159 50.4579C32.9626 46.0841 36.3271 43.2243 41.7103 43.2243H55.5047M15.7294 8.57254C14.1746 6.61676 8.73831 7.00847 8.73831 9.74766V12.1028H1.6729V10.0841C1.6729 5.03738 6.71962 1 10.4206 1H15.1308C16.9156 1 20.2535 2.33135 22.2512 5.04309M15.7294 8.57254C15.9888 8.89889 16.1402 9.29059 16.1402 9.74766V11.7664C13.785 15.1308 8.40187 17.8224 8.40187 19.8411V25.2243H15.4673V21.5234C15.4673 20.1776 20.8505 17.8224 23.2056 14.1215C23.8479 13.1121 23.8466 11.4329 23.8785 10.2523C23.9352 8.15524 23.2662 6.42097 22.2512 5.04309M15.7294 8.57254C6.68366 14.8304 1 25.3044 1 37.6729C1 57.8598 16.1402 73 36.3271 73C56.514 73 71.6542 57.8598 71.6542 37.6729C71.6542 17.486 56.514 2.34581 36.3271 2.34581C31.2647 2.34581 26.5196 3.29797 22.2512 5.04309M32.9626 25.8972C30.9439 25.8972 29.5981 27.243 29.5981 29.2617C29.5981 31.2804 30.9439 32.6262 32.9626 32.6262C34.9813 32.6262 36.3271 31.2804 36.3271 29.2617C36.3271 27.243 34.9813 25.8972 32.9626 25.8972ZM54.8318 25.729C52.8131 25.729 51.4673 27.0748 51.4673 29.0934C51.4673 31.1121 52.8131 32.4579 54.8318 32.4579C56.8504 32.4579 58.1962 31.1121 58.1962 29.0934C58.1962 27.0748 56.8504 25.729 54.8318 25.729ZM12.271 26.7383C9.74766 26.7383 8.06542 28.4205 8.06542 30.9439C8.06542 33.4673 9.74766 35.1495 12.271 35.1495C14.7944 35.1495 16.4766 33.4673 16.4766 30.9439C16.4766 28.4205 14.7944 26.7383 12.271 26.7383Z" stroke="#E4C4CF"/>
</svg>
