<svg width="78" height="73" viewBox="0 0 78 73" fill="none" xmlns="http://www.w3.org/2000/svg">
<path fill-rule="evenodd" clip-rule="evenodd" d="M16.68 1.35653C17.6494 0.387104 19.0968 0 20.9663 0H57.5713C59.4408 0 60.8882 0.387104 61.8577 1.35653C62.8271 2.32596 63.2142 3.77343 63.2142 5.64286V23.4916C63.2142 25.3838 62.7408 26.8948 61.7064 27.9292C60.672 28.9636 59.161 29.437 57.2688 29.437H33.9072L25.2691 39.8622L25.2526 39.8788C24.7305 40.4009 24.0805 40.7059 23.4999 40.7059C23.2056 40.7059 22.8955 40.6254 22.6525 40.4094C22.4006 40.1856 22.2814 39.8697 22.2814 39.5252V29.437H21.2688C19.3766 29.437 17.8656 28.9636 16.8312 27.9292C15.7968 26.8948 15.3234 25.3838 15.3234 23.4916V5.64302C15.3234 5.64291 15.3234 5.64286 15.8234 5.64286C16.3234 5.64286 16.3234 5.64291 16.3234 5.64302V23.4916C16.3234 25.2297 16.7576 26.4414 17.5383 27.2221C18.319 28.0028 19.5307 28.437 21.2688 28.437H23.2814V39.5252C23.2814 39.6314 23.3117 39.6576 23.3165 39.6617C23.3288 39.6726 23.3782 39.7059 23.4999 39.7059C23.7477 39.7059 24.1489 39.5611 24.5297 39.1873L33.4371 28.437H57.2688C59.0069 28.437 60.2186 28.0028 60.9993 27.2221C61.78 26.4414 62.2142 25.2297 62.2142 23.4916V5.64286C62.2142 3.88204 61.845 2.75808 61.1505 2.06364C60.4561 1.3692 59.3321 1 57.5713 1H20.9663C19.2055 1 18.0815 1.3692 17.3871 2.06364C16.6926 2.75808 16.3234 3.8822 16.3234 5.64302L15.8234 5.64286L15.3234 5.64302C15.3234 3.77359 15.7105 2.32596 16.68 1.35653ZM23.4915 7.56302H54.7436V12.3445H23.4915V7.56302ZM24.4915 8.56302V11.3445H53.7436V8.56302H24.4915ZM23.4915 16.6387H47.1806V21.4202H23.4915V16.6387ZM24.4915 17.6387V20.4202H46.1806V17.6387H24.4915ZM33.9879 44.53C32.7708 45.7472 32.0545 47.5044 32.0545 49.6597C32.0545 51.8149 32.7708 53.5722 33.9879 54.7893C35.205 56.0064 36.9623 56.7227 39.1175 56.7227C41.2728 56.7227 43.03 56.0064 44.2472 54.7893C45.4643 53.5722 46.1806 51.8149 46.1806 49.6597C46.1806 47.5044 45.4643 45.7472 44.2472 44.53C43.03 43.3129 41.2728 42.5966 39.1175 42.5966C36.9623 42.5966 35.205 43.3129 33.9879 44.53ZM33.2808 43.8229C34.7107 42.393 36.735 41.5966 39.1175 41.5966C41.5001 41.5966 43.5244 42.393 44.9543 43.8229C46.3842 45.2528 47.1806 47.2771 47.1806 49.6597C47.1806 52.0422 46.3842 54.0665 44.9543 55.4964C43.5244 56.9263 41.5001 57.7227 39.1175 57.7227C36.735 57.7227 34.7107 56.9263 33.2808 55.4964C31.8509 54.0665 31.0545 52.0422 31.0545 49.6597C31.0545 47.2771 31.8509 45.2528 33.2808 43.8229ZM11.1097 47.5174C10.0455 48.5817 9.36544 49.9735 9.36544 51.3235C9.36544 52.6735 10.0455 54.0654 11.1097 55.1296C12.174 56.1939 13.5659 56.874 14.9159 56.874C16.2658 56.874 17.6577 56.1939 18.722 55.1296C19.7863 54.0654 20.4663 52.6735 20.4663 51.3235C20.4663 49.9735 19.7863 48.5817 18.722 47.5174C17.6577 46.4531 16.2658 45.7731 14.9159 45.7731C13.5659 45.7731 12.174 46.4531 11.1097 47.5174ZM10.4026 46.8103C11.6073 45.6057 13.2406 44.7731 14.9159 44.7731C16.5911 44.7731 18.2244 45.6057 19.4291 46.8103C20.6337 48.0149 21.4663 49.6483 21.4663 51.3235C21.4663 52.9987 20.6337 54.6321 19.4291 55.8367C18.2244 57.0414 16.5911 57.874 14.9159 57.874C13.2406 57.874 11.6073 57.0414 10.4026 55.8367C9.19802 54.6321 8.36544 52.9987 8.36544 51.3235C8.36544 49.6483 9.19802 48.0149 10.4026 46.8103ZM59.5131 47.5174C58.4488 48.5817 57.7688 49.9735 57.7688 51.3235C57.7688 52.6735 58.4488 54.0654 59.5131 55.1296C60.5774 56.1939 61.9692 56.874 63.3192 56.874C64.6692 56.874 66.0611 56.1939 67.1253 55.1296C68.1896 54.0654 68.8696 52.6735 68.8696 51.3235C68.8696 49.9735 68.1896 48.5817 67.1253 47.5174C66.0611 46.4531 64.6692 45.7731 63.3192 45.7731C61.9692 45.7731 60.5774 46.4531 59.5131 47.5174ZM58.806 46.8103C60.0106 45.6057 61.644 44.7731 63.3192 44.7731C64.9944 44.7731 66.6278 45.6057 67.8324 46.8103C69.0371 48.0149 69.8696 49.6483 69.8696 51.3235C69.8696 52.9987 69.0371 54.6321 67.8324 55.8367C66.6278 57.0414 64.9944 57.874 63.3192 57.874C61.644 57.874 60.0106 57.0414 58.806 55.8367C57.6014 54.6321 56.7688 52.9987 56.7688 51.3235C56.7688 49.6483 57.6014 48.0149 58.806 46.8103ZM1.53293 68.0672H17.5472C18.0028 66.2532 18.6158 64.9194 19.5612 63.7849C20.3474 62.8415 21.3456 62.0582 22.6195 61.2508C15.728 59.994 10.5817 60.0812 7.10058 61.2875C5.26411 61.924 3.90757 62.8659 2.99093 64.072C2.16446 65.1594 1.67388 66.4902 1.53293 68.0672ZM6.77315 60.3427C10.7194 58.9752 16.4982 58.9956 24.0895 60.5139L25.3814 60.7722L24.2434 61.4361C22.4395 62.4884 21.2167 63.3603 20.3294 64.4251C19.4501 65.4803 18.871 66.761 18.4283 68.6796L18.3388 69.0672H0.479492L0.500292 68.5472C0.579292 66.5722 1.13474 64.8617 2.19477 63.4669C3.25397 62.0732 4.79029 61.0298 6.77315 60.3427ZM76.0403 63.4669C77.1003 64.8617 77.6558 66.5722 77.7348 68.5472L77.7556 69.0672H59.8651L59.7998 68.6432C59.5085 66.7495 58.9346 65.4816 58.0254 64.4325C57.1011 63.366 55.8042 62.4934 53.9917 61.4361L52.8537 60.7722L54.1455 60.5139C61.7369 58.9956 67.5157 58.9752 71.4619 60.3427C73.4448 61.0298 74.9811 62.0732 76.0403 63.4669ZM55.623 61.2494C62.5108 59.9941 67.6546 60.0817 71.1345 61.2876C72.971 61.924 74.3275 62.8659 75.2441 64.072C76.0706 65.1594 76.5612 66.4902 76.7022 68.0672H60.7168C60.3824 66.2476 59.7635 64.9111 58.7811 63.7776C57.965 62.8359 56.9136 62.0537 55.623 61.2494ZM39.1175 60.2016L39.1275 60.2018C46.7634 60.3545 52.1759 62.34 55.3122 64.849C56.8794 66.1028 57.8999 67.5059 58.3151 68.8969C58.7344 70.3013 58.5293 71.6814 57.6651 72.8049L57.515 73H20.7201L20.57 72.8049C19.7058 71.6814 19.5007 70.3013 19.9199 68.8969C20.3352 67.5059 21.3556 66.1028 22.9228 64.849C26.0592 62.34 31.4717 60.3545 39.1075 60.2018L39.1175 60.2016ZM21.2233 72C20.6908 71.1939 20.5667 70.2265 20.8782 69.1829C21.2193 68.0403 22.0895 66.7963 23.5475 65.6299C26.4603 63.2997 31.6327 61.3531 39.1175 61.2018C46.6024 61.3531 51.7748 63.2997 54.6875 65.6299C56.1456 66.7963 57.0158 68.0403 57.3569 69.1829C57.6684 70.2265 57.5442 71.1939 57.0118 72H21.2233Z" fill="black"/>
</svg>
