<svg width="75.432" height="72" viewBox="0 0 78 74" fill="none" xmlns="http://www.w3.org/2000/svg">
<path fill-rule="evenodd" clip-rule="evenodd" d="M16.68 1.85653C17.6494 0.887104 19.0968 0.5 20.9663 0.5H57.5713C59.4408 0.5 60.8882 0.887104 61.8577 1.85653C62.8271 2.82596 63.2142 4.27343 63.2142 6.14286V23.9916C63.2142 25.8838 62.7408 27.3948 61.7064 28.4292C60.672 29.4636 59.161 29.937 57.2688 29.937H33.9072L25.2691 40.3622L25.2526 40.3788C24.7305 40.9009 24.0805 41.2059 23.4999 41.2059C23.2056 41.2059 22.8955 41.1254 22.6525 40.9094C22.4006 40.6856 22.2814 40.3697 22.2814 40.0252V29.937H21.2688C19.3766 29.937 17.8656 29.4636 16.8312 28.4292C15.7968 27.3948 15.3234 25.8838 15.3234 23.9916V6.14302C15.3234 6.14291 15.3234 6.14286 15.8234 6.14286C16.3234 6.14286 16.3234 6.14291 16.3234 6.14302V23.9916C16.3234 25.7297 16.7576 26.9414 17.5383 27.7221C18.319 28.5028 19.5307 28.937 21.2688 28.937H23.2814V40.0252C23.2814 40.1314 23.3117 40.1576 23.3165 40.1617C23.3288 40.1726 23.3782 40.2059 23.4999 40.2059C23.7477 40.2059 24.1489 40.0611 24.5297 39.6873L33.4371 28.937H57.2688C59.0069 28.937 60.2186 28.5028 60.9993 27.7221C61.78 26.9414 62.2142 25.7297 62.2142 23.9916V6.14286C62.2142 4.38204 61.845 3.25808 61.1505 2.56364C60.4561 1.8692 59.3321 1.5 57.5713 1.5H20.9663C19.2055 1.5 18.0815 1.8692 17.3871 2.56364C16.6926 3.25808 16.3234 4.3822 16.3234 6.14302L15.8234 6.14286L15.3234 6.14302C15.3234 4.27359 15.7105 2.82596 16.68 1.85653ZM23.4915 8.06302H54.7436V12.8445H23.4915V8.06302ZM24.4915 9.06302V11.8445H53.7436V9.06302H24.4915ZM23.4915 17.1387H47.1806V21.9202H23.4915V17.1387ZM24.4915 18.1387V20.9202H46.1806V18.1387H24.4915ZM33.9879 45.03C32.7708 46.2472 32.0545 48.0044 32.0545 50.1597C32.0545 52.3149 32.7708 54.0722 33.9879 55.2893C35.205 56.5064 36.9623 57.2227 39.1175 57.2227C41.2728 57.2227 43.03 56.5064 44.2472 55.2893C45.4643 54.0722 46.1806 52.3149 46.1806 50.1597C46.1806 48.0044 45.4643 46.2472 44.2472 45.03C43.03 43.8129 41.2728 43.0966 39.1175 43.0966C36.9623 43.0966 35.205 43.8129 33.9879 45.03ZM33.2808 44.3229C34.7107 42.893 36.735 42.0966 39.1175 42.0966C41.5001 42.0966 43.5244 42.893 44.9543 44.3229C46.3842 45.7528 47.1806 47.7771 47.1806 50.1597C47.1806 52.5422 46.3842 54.5665 44.9543 55.9964C43.5244 57.4263 41.5001 58.2227 39.1175 58.2227C36.735 58.2227 34.7107 57.4263 33.2808 55.9964C31.8509 54.5665 31.0545 52.5422 31.0545 50.1597C31.0545 47.7771 31.8509 45.7528 33.2808 44.3229ZM11.1097 48.0174C10.0455 49.0817 9.36544 50.4735 9.36544 51.8235C9.36544 53.1735 10.0455 54.5654 11.1097 55.6296C12.174 56.6939 13.5659 57.374 14.9159 57.374C16.2658 57.374 17.6577 56.6939 18.722 55.6296C19.7863 54.5654 20.4663 53.1735 20.4663 51.8235C20.4663 50.4735 19.7863 49.0817 18.722 48.0174C17.6577 46.9531 16.2658 46.2731 14.9159 46.2731C13.5659 46.2731 12.174 46.9531 11.1097 48.0174ZM10.4026 47.3103C11.6073 46.1057 13.2406 45.2731 14.9159 45.2731C16.5911 45.2731 18.2244 46.1057 19.4291 47.3103C20.6337 48.5149 21.4663 50.1483 21.4663 51.8235C21.4663 53.4987 20.6337 55.1321 19.4291 56.3367C18.2244 57.5414 16.5911 58.374 14.9159 58.374C13.2406 58.374 11.6073 57.5414 10.4026 56.3367C9.19802 55.1321 8.36544 53.4987 8.36544 51.8235C8.36544 50.1483 9.19802 48.5149 10.4026 47.3103ZM59.5131 48.0174C58.4488 49.0817 57.7688 50.4735 57.7688 51.8235C57.7688 53.1735 58.4488 54.5654 59.5131 55.6296C60.5774 56.6939 61.9692 57.374 63.3192 57.374C64.6692 57.374 66.0611 56.6939 67.1253 55.6296C68.1896 54.5654 68.8696 53.1735 68.8696 51.8235C68.8696 50.4735 68.1896 49.0817 67.1253 48.0174C66.0611 46.9531 64.6692 46.2731 63.3192 46.2731C61.9692 46.2731 60.5774 46.9531 59.5131 48.0174ZM58.806 47.3103C60.0106 46.1057 61.644 45.2731 63.3192 45.2731C64.9944 45.2731 66.6278 46.1057 67.8324 47.3103C69.0371 48.5149 69.8696 50.1483 69.8696 51.8235C69.8696 53.4987 69.0371 55.1321 67.8324 56.3367C66.6278 57.5414 64.9944 58.374 63.3192 58.374C61.644 58.374 60.0106 57.5414 58.806 56.3367C57.6014 55.1321 56.7688 53.4987 56.7688 51.8235C56.7688 50.1483 57.6014 48.5149 58.806 47.3103ZM1.53293 68.5672H17.5472C18.0028 66.7532 18.6158 65.4194 19.5612 64.2849C20.3474 63.3415 21.3456 62.5582 22.6195 61.7508C15.728 60.494 10.5817 60.5812 7.10058 61.7875C5.26411 62.424 3.90757 63.3659 2.99093 64.572C2.16446 65.6594 1.67388 66.9902 1.53293 68.5672ZM6.77315 60.8427C10.7194 59.4752 16.4982 59.4956 24.0895 61.0139L25.3814 61.2722L24.2434 61.9361C22.4395 62.9884 21.2167 63.8603 20.3294 64.9251C19.4501 65.9803 18.871 67.261 18.4283 69.1796L18.3388 69.5672H0.479492L0.500292 69.0472C0.579292 67.0722 1.13474 65.3617 2.19477 63.9669C3.25397 62.5732 4.79029 61.5298 6.77315 60.8427ZM76.0403 63.9669C77.1003 65.3617 77.6558 67.0722 77.7348 69.0472L77.7556 69.5672H59.8651L59.7998 69.1432C59.5085 67.2495 58.9346 65.9816 58.0254 64.9325C57.1011 63.866 55.8042 62.9934 53.9917 61.9361L52.8537 61.2722L54.1455 61.0139C61.7369 59.4956 67.5157 59.4752 71.4619 60.8427C73.4448 61.5298 74.9811 62.5732 76.0403 63.9669ZM55.623 61.7494C62.5108 60.4941 67.6546 60.5817 71.1345 61.7876C72.971 62.424 74.3275 63.3659 75.2441 64.572C76.0706 65.6594 76.5612 66.9902 76.7022 68.5672H60.7168C60.3824 66.7476 59.7635 65.4111 58.7811 64.2776C57.965 63.3359 56.9136 62.5537 55.623 61.7494ZM39.1175 60.7016L39.1275 60.7018C46.7634 60.8545 52.1759 62.84 55.3122 65.349C56.8794 66.6028 57.8999 68.0059 58.3151 69.3969C58.7344 70.8013 58.5293 72.1814 57.6651 73.3049L57.515 73.5H20.7201L20.57 73.3049C19.7058 72.1814 19.5007 70.8013 19.9199 69.3969C20.3352 68.0059 21.3556 66.6028 22.9228 65.349C26.0592 62.84 31.4717 60.8545 39.1075 60.7018L39.1175 60.7016ZM21.2233 72.5C20.6908 71.6939 20.5667 70.7265 20.8782 69.6829C21.2193 68.5403 22.0895 67.2963 23.5475 66.1299C26.4603 63.7997 31.6327 61.8531 39.1175 61.7018C46.6024 61.8531 51.7748 63.7997 54.6875 66.1299C56.1456 67.2963 57.0158 68.5403 57.3569 69.6829C57.6684 70.7265 57.5442 71.6939 57.0118 72.5H21.2233Z" fill="url(#paint0_angular_193_15376)"/>
<defs>
<radialGradient id="paint0_angular_193_15376" cx="0" cy="0" r="1" gradientUnits="userSpaceOnUse" gradientTransform="translate(39.1175 30) rotate(90) scale(36.5 38.6381)">
<stop offset="0.1" stop-color="#000000"/>
<stop offset="0.25" stop-color="#ffffff"/>
<stop offset="0.890502" stop-color="#000000"/>
</radialGradient>
</defs>
</svg>