<svg xmlns="http://www.w3.org/2000/svg" width="72.973" height="72" fill="none" viewBox="0 0 75 74">
  <path stroke="url(#a)" d="M48.592 52.495a12.15 12.15 0 0 1 4.806 0c1.601.32 3.203.32 4.805 0a12.15 12.15 0 0 1 4.806 0c1.602.32 3.204.32 4.806 0M45.389 36.476l8.01-32.038c.32-1.282-.243-1.656-.802-2.23M45.39 36.476l-6.408-1.602m6.408 1.602-6.41 24.029c-1.282 4.806-7.69 3.204-6.408-1.602l6.408-24.029m0 0 8.01-32.038c.64-2.563 4.153-2.121 5.606-.628m0 0c2.403-.654 4.966.628 4.325 2.87l-6.728 24.99M55 23.662h19.223V73H10.146C4.139 73 .948 68.495 1 63.709m0 0c.06-5.426 4.288-11.214 13.31-11.214V3.156C5.34 3.156 1 6.04 1 14.604v49.105ZM38.98 23.66H16.873m31.719 24.03a12.15 12.15 0 0 1 4.806 0c1.601.32 3.203.32 4.805 0a12.15 12.15 0 0 1 4.806 0c1.602.32 3.204.32 4.806 0m-19.223-4.774a12.15 12.15 0 0 1 4.806 0c1.601.32 3.203.32 4.805 0a12.15 12.15 0 0 1 4.806 0c1.602.32 3.204.32 4.806 0M39.3 36.476l1.282.32-5.126 19.864c-.16.641-1.442.32-1.282-.32L39.3 36.476Zm.961-2.883 1.282.32 7.529-29.155c.16-.64-1.121-.961-1.282-.32l-7.529 29.155ZM33.053 65.63c.32-.64 1.442-.16 1.282.32l-.801 2.724c-.32.64-1.442.16-1.282-.32l.801-2.724Z"/>
  <defs>
    <radialGradient id="a" cx="0" cy="0" r="1" gradientTransform="matrix(0 36 -36.6113 0 37.611 37)" gradientUnits="userSpaceOnUse">
      <stop offset=".497" stop-color="#fff"/>
      <stop offset="1" stop-color="#E4C4CF"/>
    </radialGradient>
  </defs>
</svg>