<svg width="130" height="72" viewBox="0 0 215 119" fill="none" xmlns="http://www.w3.org/2000/svg">
<path d="M35.8431 21.7648V7.17224C35.8431 4.41082 38.0817 2.17224 40.8431 2.17224H61.5098C64.2712 2.17224 66.5098 4.41082 66.5098 7.17224V31.9871M35.8431 21.7648H23.8061C21.0447 21.7648 18.8061 24.0034 18.8061 26.7648V45.6167M35.8431 21.7648V96.7278M35.8431 96.7278V112.172C35.8431 114.934 38.0817 117.172 40.8431 117.172H61.5098C64.2712 117.172 66.5098 114.934 66.5098 112.172V86.5056M35.8431 96.7278H23.8061C21.0447 96.7278 18.8061 94.4893 18.8061 91.7278V72.876M18.8061 45.6167H6.76904C4.00762 45.6167 1.76904 47.8553 1.76904 50.6167V67.876C1.76904 70.6374 4.00762 72.876 6.76904 72.876H18.8061M18.8061 45.6167V72.876M178.954 21.7648V6.4315C178.954 4.07918 177.047 2.17224 174.695 2.17224H152.547C150.195 2.17224 148.288 4.07917 148.288 6.4315V31.9871M178.954 21.7648H190.991C193.753 21.7648 195.991 24.0034 195.991 26.7648V45.6167M178.954 21.7648V96.7278M178.954 96.7278V112.913C178.954 115.265 177.047 117.172 174.695 117.172H152.547C150.195 117.172 148.288 115.265 148.288 112.913V86.5056M178.954 96.7278H190.991C193.753 96.7278 195.991 94.4893 195.991 91.7278V72.876M195.991 45.6167H208.028C210.79 45.6167 213.028 47.8553 213.028 50.6167V67.876C213.028 70.6374 210.79 72.876 208.028 72.876H195.991M195.991 45.6167V72.876M66.5098 45.6167H83.5469M66.5098 45.6167V31.9871M66.5098 45.6167H52.8802M66.5098 45.6167V59.2463M148.288 45.6167H131.251M148.288 45.6167V31.9871M148.288 45.6167H161.917M148.288 45.6167V59.2463M66.5098 72.876H83.5469M66.5098 72.876V59.2463M66.5098 72.876H52.8802M66.5098 72.876V86.5056M148.288 72.876H131.251M148.288 72.876V59.2463M148.288 72.876H161.917M148.288 72.876V86.5056M83.5469 72.876V45.6167M83.5469 72.876H131.251M83.5469 45.6167H131.251M131.251 45.6167V72.876M66.5098 31.9871H56.2876M66.5098 59.2463H46.0654M66.5098 86.5056H56.2876M148.288 31.9871H158.51M148.288 59.2463H168.732M148.288 86.5056H158.51" stroke="url(#paint0_angular_141_14266)" stroke-width="3.29"/>
<defs>
<radialGradient id="paint0_angular_141_14266" cx="0" cy="0" r="1" gradientUnits="userSpaceOnUse" gradientTransform="translate(107.399 59.6722) rotate(90) scale(57.5 105.63)">
<stop offset="0.114353" stop-color="#8BAAE2"/>
<stop offset="0.5" stop-color="#FF096C"/>
<stop offset="0.890502" stop-color="#8BAAE2"/>
</radialGradient>
</defs>
</svg>
