<svg width="118.7" height="72" viewBox="0 0 122 74" fill="none" xmlns="http://www.w3.org/2000/svg">
<path d="M64.8166 51.7259C65.8082 50.8138 66.3788 49.4667 66.3788 47.8344C66.3788 47.3786 66.3343 46.9451 66.2486 46.5372M64.8166 51.7259C63.917 52.5535 62.6709 53.0231 61.19 53.0231C59.7091 53.0231 58.463 52.5535 57.5634 51.7259M64.8166 51.7259L79.3508 73H43.0292L57.5634 51.7259M57.5634 51.7259C56.8486 51.0684 56.3526 50.185 56.1314 49.1315M56.1314 49.1315C56.0457 48.7236 56.0012 48.2901 56.0012 47.8344C56.0012 44.7211 58.0767 42.6456 61.19 42.6456C63.8476 42.6456 65.7489 44.1579 66.2486 46.5372M56.1314 49.1315L20.1985 58.4714V54.1906M66.2486 46.5372L102.181 37.1973V34.3435M20.1985 54.1906C10.5993 54.1906 1 49.391 1 39.7917H39.3971C39.3971 49.391 29.7978 54.1906 20.1985 54.1906ZM102.181 34.3435C92.5822 34.3435 82.9829 29.5439 82.9829 19.9446H121.38C121.38 29.5439 111.781 34.3435 102.181 34.3435ZM10.0924 36.1596C8.51017 34.7141 7.48599 32.6561 7.48599 30.4519C7.48599 26.3009 11.3776 22.6687 15.5286 22.6687C19.6797 22.6687 23.0524 26.3009 23.0524 30.4519C23.0524 32.6506 22.0334 34.7037 20.458 36.1486M10.0924 36.1596C11.4897 37.4362 13.3224 38.2351 15.2692 38.2351C17.2215 38.2351 19.0591 37.4316 20.458 36.1486M10.0924 36.1596L8.01685 38.2351M20.458 36.1486L22.5445 38.2351M6.96711 25.782C8.26431 23.447 8.78319 22.9281 11.1181 21.6309M19.9391 21.6309C22.2741 22.9281 22.7929 23.447 24.0901 25.782M15.2692 25.2631V30.4519H17.8636M94.3982 7.10233C96.4738 8.14009 97.5115 8.14009 99.587 7.10233M94.3982 7.10233C86.6151 10.7345 86.615 18.5177 94.3982 18.5177H99.587C107.37 18.5177 107.37 10.7345 99.587 7.10233M94.3982 7.10233C94.3982 5.55978 94.1116 4.87706 93.3254 3.98911M99.587 7.10233C99.587 5.56154 99.8664 4.87212 100.654 3.98911M99.587 7.10233C100.625 5.54575 101.663 5.02687 103.738 5.54575M99.587 7.10233C101.144 6.06463 102.181 6.58351 103.219 7.62127M93.3254 3.98911C93.1813 3.82642 93.0205 3.65684 92.8416 3.47382C92.3227 2.9513 92.3227 2.9513 92.8416 2.93919C94.3633 2.86405 95.3103 2.42972 96.4738 1.37249C96.9926 0.875833 96.9927 0.875839 97.5115 1.37249C98.675 2.42972 99.622 2.86405 101.144 2.93919C101.663 2.9513 101.663 2.9513 101.144 3.47382C100.962 3.65656 100.8 3.82613 100.654 3.98911M93.3254 3.98911C94.2745 4.67764 95.1961 4.55404 96.4738 3.4387C96.9926 2.95135 96.9926 2.95135 97.5115 3.4387C98.7891 4.55404 99.7101 4.67764 100.654 3.98911M95.436 14.3667C95.436 15.4045 95.9549 15.9233 96.9926 15.9233M96.9926 15.9233C98.0304 15.9233 98.5493 15.4045 98.5493 14.3667C98.5493 13.3289 98.0304 12.8101 96.9926 12.8101C95.9549 12.8101 95.436 12.2912 95.436 11.2534C95.436 10.2157 95.9549 9.69678 96.9926 9.69678M96.9926 15.9233V16.7017M96.9926 9.69678C98.0304 9.69678 98.5493 10.2157 98.5493 11.2534M96.9926 9.69678V8.91846M28.2412 25.2631H30.8356V30.4519H33.43L29.5384 34.3435L25.6468 30.4519H28.2412V25.2631ZM109.965 15.9233H112.559V10.7345H115.153L111.262 6.84295L107.37 10.7345H109.965V15.9233Z" stroke="url(#paint0_angular_186_15377)"/>
<defs>
<radialGradient id="paint0_angular_186_15377" cx="0" cy="0" r="1" gradientUnits="userSpaceOnUse" gradientTransform="translate(61.19 37) rotate(90) scale(50 50)">
<stop offset="0.114353" stop-color="#000000"/>
<stop offset="0.5" stop-color="#ffffff"/>
<stop offset="0.890502" stop-color="#000000"/>
</radialGradient>
</defs>
</svg>
