<svg width="122" height="73" viewBox="0 0 122 73" fill="none" xmlns="http://www.w3.org/2000/svg">
<path d="M64.8166 51.2259C65.8082 50.3138 66.3788 48.9667 66.3788 47.3344C66.3788 46.8786 66.3343 46.4451 66.2486 46.0372M64.8166 51.2259C63.917 52.0535 62.6709 52.5231 61.19 52.5231C59.7091 52.5231 58.463 52.0535 57.5634 51.2259M64.8166 51.2259L79.3508 72.5H43.0292L57.5634 51.2259M57.5634 51.2259C56.8486 50.5684 56.3526 49.685 56.1314 48.6315M56.1314 48.6315C56.0457 48.2236 56.0012 47.7901 56.0012 47.3344C56.0012 44.2211 58.0767 42.1456 61.19 42.1456C63.8476 42.1456 65.7489 43.6579 66.2486 46.0372M56.1314 48.6315L20.1985 57.9714V53.6906M66.2486 46.0372L102.181 36.6973V33.8435M20.1985 53.6906C10.5993 53.6906 1 48.891 1 39.2917H39.3971C39.3971 48.891 29.7978 53.6906 20.1985 53.6906ZM102.181 33.8435C92.5822 33.8435 82.9829 29.0439 82.9829 19.4446H121.38C121.38 29.0439 111.781 33.8435 102.181 33.8435ZM10.0924 35.6596C8.51017 34.2141 7.48599 32.1561 7.48599 29.9519C7.48599 25.8009 11.3776 22.1687 15.5286 22.1687C19.6797 22.1687 23.0524 25.8009 23.0524 29.9519C23.0524 32.1506 22.0334 34.2037 20.458 35.6486M10.0924 35.6596C11.4897 36.9362 13.3224 37.7351 15.2692 37.7351C17.2215 37.7351 19.0591 36.9316 20.458 35.6486M10.0924 35.6596L8.01685 37.7351M20.458 35.6486L22.5445 37.7351M6.96711 25.282C8.26431 22.947 8.78319 22.4281 11.1181 21.1309M19.9391 21.1309C22.2741 22.4281 22.7929 22.947 24.0901 25.282M15.2692 24.7631V29.9519H17.8636M94.3982 6.60233C96.4738 7.64009 97.5115 7.64009 99.587 6.60233M94.3982 6.60233C86.6151 10.2345 86.615 18.0177 94.3982 18.0177H99.587C107.37 18.0177 107.37 10.2345 99.587 6.60233M94.3982 6.60233C94.3982 5.05978 94.1116 4.37706 93.3254 3.48911M99.587 6.60233C99.587 5.06154 99.8664 4.37212 100.654 3.48911M99.587 6.60233C100.625 5.04575 101.663 4.52687 103.738 5.04575M99.587 6.60233C101.144 5.56463 102.181 6.08351 103.219 7.12127M93.3254 3.48911C93.1813 3.32642 93.0205 3.15684 92.8416 2.97382C92.3227 2.4513 92.3227 2.4513 92.8416 2.43919C94.3633 2.36405 95.3103 1.92972 96.4738 0.872491C96.9926 0.375833 96.9927 0.375839 97.5115 0.872491C98.675 1.92972 99.622 2.36405 101.144 2.43919C101.663 2.4513 101.663 2.4513 101.144 2.97382C100.962 3.15656 100.8 3.32613 100.654 3.48911M93.3254 3.48911C94.2745 4.17764 95.1961 4.05404 96.4738 2.9387C96.9926 2.45135 96.9926 2.45135 97.5115 2.9387C98.7891 4.05404 99.7101 4.17764 100.654 3.48911M95.436 13.8667C95.436 14.9045 95.9549 15.4233 96.9926 15.4233M96.9926 15.4233C98.0304 15.4233 98.5493 14.9045 98.5493 13.8667C98.5493 12.8289 98.0304 12.3101 96.9926 12.3101C95.9549 12.3101 95.436 11.7912 95.436 10.7534C95.436 9.71566 95.9549 9.19678 96.9926 9.19678M96.9926 15.4233V16.2017M96.9926 9.19678C98.0304 9.19678 98.5493 9.71566 98.5493 10.7534M96.9926 9.19678V8.41846M28.2412 24.7631H30.8356V29.9519H33.43L29.5384 33.8435L25.6468 29.9519H28.2412V24.7631ZM109.965 15.4233H112.559V10.2345H115.153L111.262 6.34295L107.37 10.2345H109.965V15.4233Z" stroke="black"/>
</svg>
