<svg xmlns="http://www.w3.org/2000/svg" width="611" height="3518" fill="none" viewBox="0 0 611 3518">
  <circle cx="306" cy="105" r="104" fill="#fff" stroke="#000" stroke-linecap="round" stroke-miterlimit="0"/>
  <path fill="#000" d="M283.587 98.954c-.145-1.223-.732-2.173-1.762-2.849-1.031-.676-2.295-1.014-3.792-1.014-1.094 0-2.052.177-2.873.531-.813.354-1.449.841-1.908 1.461a3.5 3.5 0 0 0-.676 2.113c0 .66.157 1.228.471 1.702.322.467.732.858 1.231 1.172a8.877 8.877 0 0 0 1.57.76c.547.193 1.05.35 1.509.471l2.512.676c.644.169 1.36.403 2.149.701a9.904 9.904 0 0 1 2.282 1.219 6.214 6.214 0 0 1 1.811 1.956c.475.797.712 1.775.712 2.934 0 1.336-.35 2.543-1.05 3.622-.693 1.079-1.707 1.936-3.043 2.572-1.328.636-2.942.954-4.842.954-1.77 0-3.304-.286-4.6-.858-1.288-.571-2.302-1.368-3.042-2.39-.733-1.022-1.147-2.21-1.244-3.562h3.091c.08.934.394 1.706.942 2.318.555.604 1.255 1.055 2.101 1.352.853.29 1.77.435 2.752.435 1.143 0 2.17-.185 3.079-.555.91-.379 1.63-.902 2.162-1.57.531-.676.796-1.465.796-2.366 0-.821-.229-1.489-.688-2.005-.459-.515-1.062-.933-1.811-1.255a18.888 18.888 0 0 0-2.427-.845l-3.042-.87c-1.932-.555-3.462-1.348-4.588-2.378-1.127-1.031-1.691-2.379-1.691-4.045 0-1.385.375-2.592 1.123-3.622.757-1.039 1.771-1.843 3.043-2.415 1.28-.58 2.708-.87 4.286-.87 1.594 0 3.01.286 4.25.858 1.24.563 2.222 1.336 2.946 2.318a5.776 5.776 0 0 1 1.159 3.344h-2.898Zm15.464 0v2.415h-9.611v-2.415h9.611Zm-6.809-4.443h2.849v17.677c0 .804.117 1.408.35 1.811.242.394.547.66.918.796.378.129.776.194 1.195.194.314 0 .572-.016.773-.049l.483-.096.579 2.559a5.783 5.783 0 0 1-.809.218c-.346.08-.784.12-1.316.12a5.736 5.736 0 0 1-2.366-.519 4.699 4.699 0 0 1-1.908-1.581c-.499-.709-.748-1.602-.748-2.681V94.511Zm16.179 23.424c-1.175 0-2.242-.222-3.2-.664a5.497 5.497 0 0 1-2.282-1.944c-.563-.854-.845-1.884-.845-3.091 0-1.063.209-1.924.628-2.584a4.443 4.443 0 0 1 1.678-1.57c.7-.378 1.473-.66 2.318-.845a28.461 28.461 0 0 1 2.572-.459c1.127-.144 2.041-.253 2.741-.326.708-.08 1.223-.213 1.545-.398.33-.185.495-.507.495-.966v-.097c0-1.191-.326-2.116-.978-2.777-.644-.66-1.622-.99-2.934-.99-1.36 0-2.426.298-3.199.894-.773.596-1.316 1.231-1.63 1.908l-2.705-.966c.483-1.127 1.127-2.005 1.932-2.632a7.242 7.242 0 0 1 2.656-1.329 11.035 11.035 0 0 1 2.85-.386c.595 0 1.28.073 2.052.217a6.565 6.565 0 0 1 2.258.858c.733.434 1.34 1.09 1.823 1.968.483.877.725 2.052.725 3.525V117.5h-2.85v-2.511h-.145c-.193.402-.515.833-.965 1.292-.451.458-1.051.849-1.799 1.171-.749.322-1.663.483-2.741.483Zm.434-2.56c1.127 0 2.077-.221 2.85-.664.781-.443 1.368-1.014 1.763-1.715a4.37 4.37 0 0 0 .603-2.209v-2.608c-.12.145-.386.278-.796.398-.403.113-.87.214-1.401.302-.523.081-1.034.153-1.533.218-.491.056-.89.104-1.196.144-.74.097-1.433.254-2.076.471-.636.21-1.152.528-1.546.954-.386.419-.579.99-.579 1.715 0 .99.366 1.738 1.098 2.245.741.499 1.679.749 2.813.749Zm12.893 2.125V98.954h2.752v2.802h.194c.338-.918.949-1.662 1.835-2.234.885-.572 1.883-.857 2.994-.857.209 0 .471.004.785.012.314.008.551.02.712.036v2.898a8.28 8.28 0 0 0-.664-.109 6.57 6.57 0 0 0-1.074-.084c-.902 0-1.707.189-2.415.567-.7.37-1.256.886-1.666 1.546-.403.652-.604 1.396-.604 2.233V117.5h-2.849Zm21.503-18.546v2.415h-9.61v-2.415h9.61Zm-6.809-4.443h2.849v17.677c0 .804.117 1.408.35 1.811.242.394.548.66.918.796.378.129.777.194 1.195.194.314 0 .572-.016.773-.049l.483-.096.58 2.559a5.822 5.822 0 0 1-.809.218c-.347.08-.785.12-1.316.12a5.74 5.74 0 0 1-2.367-.519 4.699 4.699 0 0 1-1.908-1.581c-.499-.709-.748-1.602-.748-2.681V94.511Z"/>
  <path fill="#fff" stroke="#000" stroke-linecap="round" stroke-miterlimit="0" d="M127.969 569.818a25.003 25.003 0 0 1 23.062 0l113.5 47c17.959 9.336 17.959 35.028 0 44.364l-113.5 47a25.003 25.003 0 0 1-23.062 0l-113.5-47c-17.959-9.336-17.959-35.028 0-44.364l113.5-47Z"/>
  <path fill="#000" d="M118.099 651.5v-24.727h8.355c1.94 0 3.525.35 4.757 1.05 1.24.692 2.157 1.63 2.753 2.813.595 1.184.893 2.504.893 3.961 0 1.457-.298 2.781-.893 3.972-.588 1.191-1.497 2.141-2.729 2.849-1.231.701-2.809 1.051-4.733 1.051h-5.988v-2.657h5.892c1.328 0 2.394-.229 3.199-.688.805-.459 1.389-1.078 1.751-1.859.37-.789.555-1.678.555-2.668 0-.99-.185-1.876-.555-2.657-.362-.78-.95-1.392-1.763-1.835-.813-.451-1.891-.676-3.236-.676h-5.264V651.5h-2.994Zm20.821 0v-18.545h2.85V651.5h-2.85Zm1.449-21.636c-.555 0-1.034-.19-1.436-.568a1.82 1.82 0 0 1-.592-1.364c0-.531.197-.986.592-1.365a2.025 2.025 0 0 1 1.436-.567c.556 0 1.031.189 1.425.567.402.379.604.834.604 1.365s-.202.986-.604 1.364a1.985 1.985 0 0 1-1.425.568Zm9.095 10.48V651.5h-2.849v-18.545h2.753v2.897h.241a5.308 5.308 0 0 1 1.98-2.27c.886-.579 2.029-.869 3.429-.869 1.256 0 2.355.258 3.296.773.942.507 1.675 1.28 2.198 2.318.523 1.03.785 2.334.785 3.912V651.5h-2.85v-11.591c0-1.457-.378-2.592-1.135-3.405-.756-.821-1.795-1.231-3.115-1.231-.909 0-1.722.197-2.439.591-.708.395-1.267.97-1.678 1.727-.41.757-.616 1.674-.616 2.753Z"/>
  <rect width="208" height="208" x="202" y="761" fill="#fff" stroke="#000" stroke-linecap="round" stroke-miterlimit="0" rx="25"/>
  <path fill="#000" d="M233.032 863v-24.727h8.645c1.722 0 3.143.298 4.262.893 1.119.588 1.952 1.381 2.499 2.379.547.99.821 2.089.821 3.296 0 1.062-.189 1.94-.567 2.632a4.425 4.425 0 0 1-1.473 1.642 6.72 6.72 0 0 1-1.968.894v.241c.756.048 1.517.314 2.282.797.764.483 1.404 1.175 1.919 2.077.515.901.773 2.004.773 3.308 0 1.239-.282 2.354-.845 3.344-.564.99-1.453 1.775-2.669 2.355-1.215.579-2.797.869-4.745.869h-8.934Zm2.994-2.656h5.94c1.956 0 3.345-.379 4.166-1.135.829-.765 1.244-1.691 1.244-2.777 0-.837-.214-1.61-.64-2.318-.427-.717-1.035-1.288-1.824-1.715-.788-.435-1.722-.652-2.801-.652h-6.085v8.597Zm0-11.205h5.554c.902 0 1.715-.177 2.439-.531a4.262 4.262 0 0 0 1.739-1.497c.434-.644.652-1.401.652-2.27 0-1.087-.379-2.008-1.135-2.765-.757-.765-1.956-1.147-3.598-1.147h-5.651v8.21Zm21.208-10.866V863h-2.849v-24.727h2.849Zm16.533 17.145v-10.963h2.849V863h-2.849v-3.139h-.194c-.434.942-1.11 1.742-2.028 2.402-.918.652-2.077.978-3.477.978-1.159 0-2.19-.253-3.091-.76-.902-.515-1.61-1.288-2.125-2.318-.515-1.039-.773-2.347-.773-3.924v-11.784h2.85v11.59c0 1.353.378 2.431 1.134 3.236.765.805 1.739 1.208 2.922 1.208.709 0 1.429-.181 2.162-.544.74-.362 1.36-.917 1.859-1.666.507-.748.761-1.702.761-2.861Zm15.47 7.968c-1.787 0-3.329-.394-4.625-1.183-1.288-.797-2.282-1.908-2.982-3.332-.692-1.433-1.038-3.099-1.038-4.999 0-1.899.346-3.574 1.038-5.023.7-1.456 1.674-2.591 2.922-3.404 1.256-.821 2.72-1.232 4.395-1.232.966 0 1.919.161 2.861.483a7.085 7.085 0 0 1 2.572 1.57c.773.716 1.388 1.666 1.847 2.849.459 1.183.688 2.64.688 4.371v1.207H282.62v-2.463h11.398c0-1.046-.21-1.98-.628-2.801a4.734 4.734 0 0 0-1.763-1.944c-.756-.475-1.65-.712-2.68-.712-1.135 0-2.117.281-2.946.845a5.563 5.563 0 0 0-1.896 2.173 6.385 6.385 0 0 0-.664 2.874v1.642c0 1.4.242 2.588.724 3.562.491.966 1.172 1.702 2.041 2.209.869.499 1.879.749 3.031.749.748 0 1.424-.105 2.028-.314a4.361 4.361 0 0 0 1.582-.966 4.406 4.406 0 0 0 1.026-1.618l2.753.773a6.117 6.117 0 0 1-1.461 2.463c-.684.7-1.53 1.247-2.536 1.642-1.006.386-2.137.579-3.392.579Zm19.704-18.931v2.414h-9.61v-2.414h9.61Zm-6.809-4.444h2.849v17.677c0 .804.117 1.408.35 1.811.242.394.548.66.918.796.378.129.777.194 1.195.194.314 0 .572-.016.773-.049l.483-.096.579 2.559a5.744 5.744 0 0 1-.809.218c-.346.08-.784.12-1.316.12a5.736 5.736 0 0 1-2.366-.519 4.699 4.699 0 0 1-1.908-1.581c-.499-.709-.748-1.602-.748-2.681v-18.449Zm18.056 23.375c-1.674 0-3.143-.398-4.407-1.195-1.255-.797-2.237-1.912-2.946-3.344-.7-1.433-1.05-3.107-1.05-5.023 0-1.932.35-3.618 1.05-5.059.709-1.441 1.691-2.56 2.946-3.357 1.264-.796 2.733-1.195 4.407-1.195 1.675 0 3.14.399 4.395 1.195 1.264.797 2.246 1.916 2.946 3.357.709 1.441 1.063 3.127 1.063 5.059 0 1.916-.354 3.59-1.063 5.023-.7 1.432-1.682 2.547-2.946 3.344-1.255.797-2.72 1.195-4.395 1.195Zm0-2.559c1.272 0 2.319-.326 3.14-.978.821-.652 1.428-1.51 1.823-2.572.394-1.063.591-2.214.591-3.453 0-1.24-.197-2.395-.591-3.465-.395-1.071-1.002-1.936-1.823-2.596-.821-.66-1.868-.99-3.14-.99-1.271 0-2.318.33-3.139.99-.821.66-1.429 1.525-1.823 2.596-.394 1.07-.592 2.225-.592 3.465 0 1.239.198 2.39.592 3.453.394 1.062 1.002 1.92 1.823 2.572.821.652 1.868.978 3.139.978Zm19.914 2.559c-1.675 0-3.144-.398-4.407-1.195-1.256-.797-2.238-1.912-2.946-3.344-.701-1.433-1.051-3.107-1.051-5.023 0-1.932.35-3.618 1.051-5.059.708-1.441 1.69-2.56 2.946-3.357 1.263-.796 2.732-1.195 4.407-1.195 1.674 0 3.139.399 4.394 1.195 1.264.797 2.246 1.916 2.946 3.357.709 1.441 1.063 3.127 1.063 5.059 0 1.916-.354 3.59-1.063 5.023-.7 1.432-1.682 2.547-2.946 3.344-1.255.797-2.72 1.195-4.394 1.195Zm0-2.559c1.271 0 2.318-.326 3.139-.978.821-.652 1.428-1.51 1.823-2.572.394-1.063.592-2.214.592-3.453 0-1.24-.198-2.395-.592-3.465-.395-1.071-1.002-1.936-1.823-2.596-.821-.66-1.868-.99-3.139-.99-1.272 0-2.319.33-3.14.99-.821.66-1.428 1.525-1.823 2.596-.394 1.07-.591 2.225-.591 3.465 0 1.239.197 2.39.591 3.453.395 1.062 1.002 1.92 1.823 2.572.821.652 1.868.978 3.14.978Zm20.444-16.372v2.414h-9.611v-2.414h9.611Zm-6.81-4.444h2.85v17.677c0 .804.116 1.408.35 1.811.241.394.547.66.917.796.379.129.777.194 1.196.194.314 0 .571-.016.772-.049l.483-.096.58 2.559a5.783 5.783 0 0 1-.809.218c-.346.08-.785.12-1.316.12a5.732 5.732 0 0 1-2.366-.519 4.699 4.699 0 0 1-1.908-1.581c-.499-.709-.749-1.602-.749-2.681v-18.449Zm13.97 11.833V863h-2.849v-24.727h2.849v9.079h.241a5.249 5.249 0 0 1 1.956-2.282c.878-.571 2.045-.857 3.502-.857 1.264 0 2.37.254 3.32.761.95.499 1.686 1.267 2.21 2.306.531 1.03.797 2.342.797 3.936V863h-2.85v-11.591c0-1.473-.382-2.612-1.147-3.417-.757-.813-1.807-1.219-3.151-1.219-.934 0-1.771.197-2.512.591a4.323 4.323 0 0 0-1.738 1.727c-.419.757-.628 1.674-.628 2.753ZM255.049 892v-24.727h8.355c1.94 0 3.526.35 4.757 1.05 1.24.692 2.157 1.63 2.753 2.813.596 1.184.893 2.504.893 3.961 0 1.457-.297 2.781-.893 3.972-.588 1.191-1.497 2.141-2.729 2.849-1.231.701-2.809 1.051-4.733 1.051h-5.988v-2.657h5.892c1.328 0 2.394-.229 3.199-.688.805-.459 1.389-1.078 1.751-1.859.37-.789.555-1.678.555-2.668 0-.99-.185-1.876-.555-2.657-.362-.78-.95-1.392-1.763-1.835-.813-.451-1.891-.676-3.236-.676h-5.264V892h-2.994Zm26.279.435c-1.175 0-2.242-.222-3.2-.664a5.503 5.503 0 0 1-2.282-1.944c-.563-.854-.845-1.884-.845-3.091 0-1.063.21-1.924.628-2.584a4.443 4.443 0 0 1 1.678-1.57 8.83 8.83 0 0 1 2.319-.845c.853-.193 1.71-.346 2.571-.459 1.127-.144 2.041-.253 2.741-.326.708-.08 1.224-.213 1.546-.398.33-.185.495-.507.495-.966v-.097c0-1.191-.326-2.116-.978-2.777-.644-.66-1.622-.99-2.934-.99-1.361 0-2.427.298-3.2.894-.773.596-1.316 1.231-1.63 1.908l-2.704-.966c.482-1.127 1.126-2.005 1.931-2.632a7.25 7.25 0 0 1 2.657-1.329 11.048 11.048 0 0 1 2.849-.386c.596 0 1.28.073 2.053.217.78.137 1.533.423 2.257.858.733.434 1.341 1.09 1.824 1.968.483.877.724 2.052.724 3.525V892h-2.849v-2.511h-.145c-.194.402-.515.833-.966 1.292-.451.458-1.051.849-1.799 1.171-.749.322-1.662.483-2.741.483Zm.435-2.56c1.127 0 2.076-.221 2.849-.664.781-.443 1.368-1.014 1.763-1.715a4.37 4.37 0 0 0 .604-2.209v-2.608c-.121.145-.387.278-.797.398-.403.113-.87.214-1.401.302-.523.081-1.034.153-1.533.218-.491.056-.89.104-1.196.144-.74.097-1.432.254-2.076.471-.636.21-1.151.528-1.546.954-.386.419-.579.99-.579 1.715 0 .99.366 1.738 1.098 2.245.741.499 1.679.749 2.814.749ZM294.655 892v-18.545h2.849V892h-2.849Zm1.449-21.636c-.556 0-1.035-.19-1.437-.568a1.82 1.82 0 0 1-.592-1.364c0-.531.197-.986.592-1.365a2.026 2.026 0 0 1 1.437-.567c.555 0 1.03.189 1.424.567.403.379.604.834.604 1.365s-.201.986-.604 1.364a1.984 1.984 0 0 1-1.424.568ZM302.349 892v-18.545h2.753v2.801h.193c.338-.918.95-1.662 1.835-2.234.886-.571 1.884-.857 2.995-.857.209 0 .471.004.785.012.313.008.551.02.712.036v2.898a8.366 8.366 0 0 0-.664-.109 6.573 6.573 0 0 0-1.075-.084c-.901 0-1.706.189-2.415.567-.7.37-1.255.886-1.666 1.546-.402.652-.603 1.396-.603 2.233V892h-2.85Zm12.277 0v-18.545h2.849V892h-2.849Zm1.448-21.636c-.555 0-1.034-.19-1.436-.568a1.82 1.82 0 0 1-.592-1.364c0-.531.197-.986.592-1.365a2.025 2.025 0 0 1 1.436-.567c.556 0 1.031.189 1.425.567.403.379.604.834.604 1.365s-.201.986-.604 1.364a1.985 1.985 0 0 1-1.425.568Zm9.095 10.48V892h-2.849v-18.545h2.753v2.897h.241a5.308 5.308 0 0 1 1.98-2.27c.886-.579 2.029-.869 3.429-.869 1.256 0 2.355.258 3.296.773.942.507 1.675 1.28 2.198 2.318.523 1.03.785 2.334.785 3.912V892h-2.85v-11.591c0-1.457-.378-2.592-1.135-3.405-.756-.821-1.795-1.231-3.115-1.231-.909 0-1.722.197-2.439.591-.708.395-1.267.97-1.678 1.727-.41.757-.616 1.674-.616 2.753Zm24.151 18.497c-1.376 0-2.559-.177-3.549-.531-.99-.346-1.815-.805-2.475-1.377-.652-.563-1.172-1.167-1.558-1.811l2.27-1.594c.257.338.583.725.978 1.16.394.442.934.825 1.618 1.147.692.33 1.598.495 2.716.495 1.498 0 2.733-.363 3.707-1.087.974-.725 1.461-1.859 1.461-3.405v-3.767h-.241c-.21.338-.508.757-.894 1.256-.378.491-.926.929-1.642 1.316-.708.378-1.666.567-2.874.567-1.497 0-2.841-.354-4.032-1.062-1.183-.709-2.121-1.739-2.813-3.091-.685-1.352-1.027-2.995-1.027-4.926 0-1.9.334-3.554 1.002-4.963.668-1.416 1.598-2.511 2.789-3.284 1.192-.781 2.568-1.171 4.13-1.171 1.207 0 2.165.201 2.873.604.717.394 1.264.845 1.642 1.352.387.499.685.91.894 1.232h.29v-2.946h2.752v19.076c0 1.594-.362 2.89-1.086 3.888-.717 1.006-1.683 1.743-2.898 2.21-1.207.474-2.552.712-4.033.712Zm-.096-10.19c1.143 0 2.109-.262 2.898-.785.788-.523 1.388-1.276 1.799-2.258.41-.982.615-2.157.615-3.526 0-1.336-.201-2.515-.603-3.537-.403-1.023-.999-1.823-1.787-2.403-.789-.58-1.763-.869-2.922-.869-1.208 0-2.214.306-3.019.917-.797.612-1.396 1.433-1.799 2.463-.394 1.031-.591 2.174-.591 3.429 0 1.288.201 2.427.603 3.417.411.982 1.015 1.755 1.811 2.318.805.556 1.804.834 2.995.834Z"/>
  <rect width="228" height="208" x="382" y="987" fill="#fff" stroke="#000" stroke-linecap="round" stroke-miterlimit="0" rx="25"/>
  <path fill="#000" d="M407.174 1103.5h-3.139l9.08-24.73h3.091l9.079 24.73h-3.139l-7.389-20.82h-.193l-7.39 20.82Zm1.16-9.66h12.653v2.66h-12.653v-2.66Zm22.892-1.5v11.16h-2.85v-18.55h2.753v2.9h.242a5.29 5.29 0 0 1 1.98-2.27c.885-.58 2.028-.87 3.429-.87 1.256 0 2.354.26 3.296.78.942.5 1.674 1.28 2.197 2.31.524 1.03.785 2.34.785 3.92v11.78h-2.849v-11.59c0-1.46-.378-2.59-1.135-3.41-.757-.82-1.795-1.23-3.115-1.23-.91 0-1.723.2-2.439.59-.708.4-1.268.97-1.678 1.73-.411.76-.616 1.68-.616 2.75Zm24.199 11.55c-1.674 0-3.143-.4-4.407-1.2-1.255-.8-2.237-1.91-2.946-3.34-.7-1.44-1.05-3.11-1.05-5.03 0-1.93.35-3.61 1.05-5.06.709-1.44 1.691-2.55 2.946-3.35 1.264-.8 2.733-1.2 4.407-1.2s3.139.4 4.395 1.2c1.264.8 2.246 1.91 2.946 3.35.708 1.45 1.063 3.13 1.063 5.06 0 1.92-.355 3.59-1.063 5.03-.7 1.43-1.682 2.54-2.946 3.34-1.256.8-2.721 1.2-4.395 1.2Zm0-2.56c1.272 0 2.318-.33 3.139-.98.821-.65 1.429-1.51 1.824-2.57.394-1.07.591-2.22.591-3.46 0-1.24-.197-2.39-.591-3.46-.395-1.07-1.003-1.94-1.824-2.6-.821-.66-1.867-.99-3.139-.99-1.272 0-2.318.33-3.139.99-.821.66-1.429 1.53-1.823 2.6-.395 1.07-.592 2.22-.592 3.46 0 1.24.197 2.39.592 3.46.394 1.06 1.002 1.92 1.823 2.57.821.65 1.867.98 3.139.98Zm15.229-8.99v11.16h-2.85v-18.55h2.753v2.9h.242a5.29 5.29 0 0 1 1.98-2.27c.885-.58 2.028-.87 3.429-.87 1.255 0 2.354.26 3.296.78.942.5 1.674 1.28 2.197 2.31.523 1.03.785 2.34.785 3.92v11.78h-2.849v-11.59c0-1.46-.379-2.59-1.135-3.41-.757-.82-1.795-1.23-3.115-1.23-.91 0-1.723.2-2.439.59-.709.4-1.268.97-1.679 1.73-.41.76-.615 1.68-.615 2.75Zm17.836 18.11c-.483 0-.914-.04-1.292-.12-.378-.07-.64-.14-.785-.21l.725-2.51c.692.17 1.304.24 1.835.19.531-.05 1.002-.29 1.413-.71.418-.42.801-1.1 1.147-2.04l.531-1.45-6.858-18.65h3.091l5.119 14.78h.193l5.12-14.78h3.091l-7.873 21.25c-.354.96-.792 1.76-1.316 2.38a4.953 4.953 0 0 1-1.823 1.42c-.684.3-1.457.45-2.318.45Zm16.717-6.95v-18.55h2.752v2.9h.242c.386-.99 1.01-1.76 1.871-2.3.862-.56 1.896-.84 3.103-.84 1.224 0 2.242.28 3.055.84.821.54 1.461 1.31 1.92 2.3h.193a5.365 5.365 0 0 1 2.137-2.28c.95-.57 2.089-.86 3.417-.86 1.658 0 3.014.52 4.069 1.56 1.054 1.03 1.582 2.64 1.582 4.82v12.41h-2.85v-12.41c0-1.37-.374-2.35-1.123-2.94-.748-.58-1.63-.88-2.644-.88-1.304 0-2.314.4-3.03 1.19-.717.78-1.075 1.77-1.075 2.97v12.07h-2.898v-12.7c0-1.06-.342-1.91-1.026-2.55-.684-.65-1.566-.98-2.644-.98-.741 0-1.433.2-2.077.59-.636.4-1.151.95-1.545 1.65-.387.69-.58 1.49-.58 2.4v11.59h-2.849Zm36.71.39c-1.674 0-3.143-.4-4.406-1.2-1.256-.8-2.238-1.91-2.947-3.34-.7-1.44-1.05-3.11-1.05-5.03 0-1.93.35-3.61 1.05-5.06.709-1.44 1.691-2.55 2.947-3.35 1.263-.8 2.732-1.2 4.406-1.2 1.675 0 3.14.4 4.395 1.2 1.264.8 2.246 1.91 2.946 3.35.709 1.45 1.063 3.13 1.063 5.06 0 1.92-.354 3.59-1.063 5.03-.7 1.43-1.682 2.54-2.946 3.34-1.255.8-2.72 1.2-4.395 1.2Zm0-2.56c1.272 0 2.319-.33 3.14-.98.821-.65 1.428-1.51 1.823-2.57.394-1.07.591-2.22.591-3.46 0-1.24-.197-2.39-.591-3.46-.395-1.07-1.002-1.94-1.823-2.6-.821-.66-1.868-.99-3.14-.99-1.271 0-2.318.33-3.139.99-.821.66-1.428 1.53-1.823 2.6-.394 1.07-.591 2.22-.591 3.46 0 1.24.197 2.39.591 3.46.395 1.06 1.002 1.92 1.823 2.57.821.65 1.868.98 3.139.98Zm24.067-5.41v-10.97h2.849v18.55h-2.849v-3.14h-.193c-.435.94-1.111 1.74-2.029 2.4-.917.66-2.076.98-3.477.98-1.159 0-2.189-.25-3.091-.76-.901-.51-1.61-1.29-2.125-2.32-.515-1.04-.772-2.34-.772-3.92v-11.79h2.849v11.6c0 1.35.378 2.43 1.135 3.23.765.81 1.739 1.21 2.922 1.21.708 0 1.428-.18 2.161-.54.741-.37 1.36-.92 1.859-1.67.507-.75.761-1.7.761-2.86Zm20.831-6.81-2.56.72a4.8 4.8 0 0 0-.712-1.24c-.306-.41-.725-.75-1.256-1.02-.531-.26-1.211-.39-2.04-.39-1.135 0-2.081.26-2.838.78-.748.52-1.123 1.17-1.123 1.97 0 .71.258 1.27.773 1.68.515.41 1.32.75 2.415 1.02l2.753.68c1.658.4 2.893 1.02 3.706 1.85.813.82 1.22 1.88 1.22 3.17a4.72 4.72 0 0 1-.918 2.85c-.604.84-1.449 1.5-2.535 1.98-1.087.48-2.351.73-3.792.73-1.891 0-3.457-.41-4.696-1.24-1.24-.82-2.025-2.02-2.355-3.59l2.705-.68c.257 1 .744 1.75 1.461 2.25.724.5 1.67.75 2.837.75 1.328 0 2.383-.29 3.164-.85.788-.57 1.183-1.26 1.183-2.05 0-.65-.226-1.19-.676-1.62-.451-.44-1.143-.77-2.077-.99l-3.091-.73c-1.698-.4-2.946-1.02-3.743-1.87-.789-.85-1.183-1.92-1.183-3.2 0-1.04.294-1.97.881-2.77.596-.81 1.405-1.44 2.427-1.9 1.03-.46 2.198-.69 3.502-.69 1.835 0 3.276.41 4.322 1.21 1.054.81 1.803 1.87 2.246 3.19Z"/>
  <rect width="208" height="208" x="202" y="259" fill="#fff" stroke="#000" stroke-linecap="round" stroke-miterlimit="0" rx="25"/>
  <path fill="#000" d="M228.948 375.5v-24.727h8.645c1.722 0 3.143.298 4.262.893 1.119.588 1.952 1.381 2.499 2.379.547.99.821 2.089.821 3.296 0 1.062-.189 1.94-.567 2.632a4.425 4.425 0 0 1-1.473 1.642 6.72 6.72 0 0 1-1.968.894v.241c.756.048 1.517.314 2.282.797.764.483 1.404 1.175 1.919 2.077.515.901.773 2.004.773 3.308 0 1.239-.282 2.354-.845 3.344-.564.99-1.453 1.775-2.668 2.355-1.216.579-2.798.869-4.746.869h-8.934Zm2.994-2.656h5.94c1.956 0 3.345-.379 4.166-1.135.829-.765 1.244-1.691 1.244-2.777 0-.837-.214-1.61-.64-2.318-.427-.717-1.035-1.288-1.823-1.715-.789-.435-1.723-.652-2.802-.652h-6.085v8.597Zm0-11.205h5.554c.902 0 1.715-.177 2.439-.531a4.262 4.262 0 0 0 1.739-1.497c.434-.644.652-1.401.652-2.27 0-1.087-.379-2.008-1.135-2.765-.757-.765-1.956-1.147-3.598-1.147h-5.651v8.21Zm19.759 13.861h-3.139l9.08-24.727h3.091l9.079 24.727h-3.139l-7.389-20.815h-.193l-7.39 20.815Zm1.159-9.659h12.654v2.656H252.86v-2.656Zm43.141-8.886c-.145-1.224-.733-2.174-1.763-2.85-1.03-.676-2.294-1.014-3.791-1.014-1.095 0-2.053.177-2.874.531-.813.354-1.449.841-1.907 1.461a3.5 3.5 0 0 0-.676 2.113c0 .66.156 1.228.47 1.702.322.467.733.858 1.232 1.172a8.844 8.844 0 0 0 1.57.76c.547.193 1.05.35 1.509.471l2.511.676c.644.169 1.36.403 2.149.701a9.884 9.884 0 0 1 2.282 1.219 6.203 6.203 0 0 1 1.811 1.956c.475.797.713 1.775.713 2.934 0 1.336-.35 2.543-1.051 3.622-.692 1.079-1.706 1.936-3.042 2.572-1.328.636-2.942.954-4.842.954-1.771 0-3.304-.286-4.6-.858-1.288-.571-2.302-1.368-3.043-2.39-.732-1.022-1.147-2.21-1.243-3.562h3.091c.08.934.394 1.706.941 2.318.556.604 1.256 1.055 2.101 1.352a8.5 8.5 0 0 0 2.753.435c1.143 0 2.169-.185 3.079-.555.909-.379 1.63-.902 2.161-1.57.531-.676.797-1.465.797-2.366 0-.821-.229-1.489-.688-2.005-.459-.515-1.063-.933-1.811-1.255a18.995 18.995 0 0 0-2.427-.845l-3.043-.87c-1.932-.555-3.461-1.348-4.588-2.378-1.127-1.031-1.69-2.379-1.69-4.045 0-1.385.374-2.592 1.123-3.622.756-1.039 1.771-1.844 3.042-2.415 1.28-.58 2.709-.869 4.287-.869 1.593 0 3.01.285 4.25.857 1.239.563 2.221 1.336 2.946 2.318a5.784 5.784 0 0 1 1.159 3.345h-2.898Zm7.398 18.545v-18.545h2.85V375.5h-2.85Zm1.449-21.636c-.555 0-1.034-.19-1.436-.568a1.82 1.82 0 0 1-.592-1.364c0-.531.197-.986.592-1.365a2.025 2.025 0 0 1 1.436-.567c.556 0 1.031.189 1.425.567.402.379.604.834.604 1.365s-.202.986-.604 1.364a1.985 1.985 0 0 1-1.425.568Zm13.732 28.977c-1.377 0-2.56-.177-3.55-.531-.99-.346-1.815-.805-2.475-1.377-.652-.563-1.171-1.167-1.558-1.811l2.27-1.594c.258.338.584.725.978 1.16.394.442.934.825 1.618 1.147.692.33 1.598.495 2.717.495 1.497 0 2.732-.363 3.706-1.087.974-.725 1.461-1.859 1.461-3.405v-3.767h-.241c-.21.338-.507.757-.894 1.256-.378.491-.925.929-1.642 1.316-.708.378-1.666.567-2.873.567-1.498 0-2.842-.354-4.033-1.062-1.183-.709-2.121-1.739-2.813-3.091-.684-1.352-1.027-2.995-1.027-4.926 0-1.9.335-3.554 1.003-4.963.668-1.416 1.597-2.511 2.789-3.284 1.191-.781 2.567-1.171 4.129-1.171 1.207 0 2.165.201 2.874.604.716.394 1.263.845 1.642 1.352.386.499.684.91.893 1.232h.29v-2.946h2.753v19.076c0 1.594-.363 2.89-1.087 3.888-.716 1.006-1.682 1.743-2.898 2.21-1.207.474-2.551.712-4.032.712Zm-.097-10.19c1.143 0 2.109-.262 2.898-.785.789-.523 1.388-1.276 1.799-2.258.41-.982.616-2.157.616-3.526 0-1.336-.202-2.515-.604-3.537-.403-1.023-.998-1.823-1.787-2.403-.789-.58-1.763-.869-2.922-.869-1.207 0-2.214.306-3.018.917-.797.612-1.397 1.433-1.799 2.463-.395 1.031-.592 2.174-.592 3.429 0 1.288.201 2.427.604 3.417.41.982 1.014 1.755 1.811 2.318.805.556 1.803.834 2.994.834Zm15.805-8.307V375.5h-2.849v-18.545h2.752v2.897h.242a5.308 5.308 0 0 1 1.98-2.27c.885-.579 2.028-.869 3.429-.869 1.256 0 2.354.258 3.296.773.942.507 1.674 1.28 2.198 2.318.523 1.03.784 2.334.784 3.912V375.5h-2.849v-11.591c0-1.457-.378-2.592-1.135-3.405-.757-.821-1.795-1.231-3.115-1.231-.91 0-1.723.197-2.439.591-.708.395-1.268.97-1.678 1.727-.411.757-.616 1.674-.616 2.753Zm29.234-13.571V375.5h-2.994v-24.727h2.994Zm8.093 13.571V375.5h-2.849v-18.545h2.753v2.897h.241a5.308 5.308 0 0 1 1.98-2.27c.886-.579 2.029-.869 3.429-.869 1.256 0 2.355.258 3.296.773.942.507 1.675 1.28 2.198 2.318.523 1.03.785 2.334.785 3.912V375.5h-2.85v-11.591c0-1.457-.378-2.592-1.135-3.405-.756-.821-1.795-1.231-3.115-1.231-.909 0-1.722.197-2.439.591-.708.395-1.268.97-1.678 1.727-.411.757-.616 1.674-.616 2.753Z"/>
  <path fill="#fff" stroke="#000" stroke-linecap="round" stroke-miterlimit="0" d="M459.969 569.818a25.003 25.003 0 0 1 23.062 0l113.5 47c17.959 9.336 17.959 35.028 0 44.364l-113.5 47a25.003 25.003 0 0 1-23.062 0l-113.5-47c-17.959-9.336-17.959-35.028 0-44.364l113.5-47Z"/>
  <path fill="#000" d="M460.028 629.273h3.284l2.753 3.622.724.966 4.106 5.457h-3.285l-2.704-3.622-.676-.918-4.202-5.505Zm11.881-4.637c0 2.608-.471 4.862-1.413 6.762-.942 1.899-2.234 3.364-3.876 4.395-1.642 1.03-3.517 1.545-5.626 1.545-2.109 0-3.984-.515-5.626-1.545-1.643-1.031-2.934-2.496-3.876-4.395-.942-1.9-1.413-4.154-1.413-6.762 0-2.608.471-4.861 1.413-6.761.942-1.9 2.233-3.365 3.876-4.395 1.642-1.03 3.517-1.545 5.626-1.545 2.109 0 3.984.515 5.626 1.545 1.642 1.03 2.934 2.495 3.876 4.395.942 1.9 1.413 4.153 1.413 6.761Zm-2.898 0c0-2.141-.358-3.948-1.075-5.421-.708-1.473-1.67-2.588-2.885-3.344-1.208-.757-2.56-1.135-4.057-1.135-1.497 0-2.854.378-4.069 1.135-1.207.756-2.169 1.871-2.886 3.344-.708 1.473-1.062 3.28-1.062 5.421 0 2.141.354 3.949 1.062 5.422.717 1.473 1.679 2.587 2.886 3.344 1.215.757 2.572 1.135 4.069 1.135 1.497 0 2.849-.378 4.057-1.135 1.215-.757 2.177-1.871 2.885-3.344.717-1.473 1.075-3.281 1.075-5.422ZM476.57 637v-24.727h8.355c1.931 0 3.517.33 4.757.99 1.239.652 2.157 1.549 2.753 2.692.595 1.143.893 2.443.893 3.9 0 1.457-.298 2.749-.893 3.876-.596 1.127-1.51 2.012-2.741 2.656-1.232.636-2.805.954-4.721.954h-6.761v-2.705h6.664c1.32 0 2.383-.193 3.188-.579.813-.387 1.4-.934 1.763-1.642.37-.717.555-1.57.555-2.56s-.185-1.855-.555-2.596c-.371-.74-.962-1.312-1.775-1.714-.813-.411-1.888-.616-3.224-.616h-5.264V637h-2.994Zm11.639-11.108L494.294 637h-3.477l-5.989-11.108h3.381ZM451.988 649h-2.994c-.177-.861-.487-1.618-.93-2.27a6.183 6.183 0 0 0-1.594-1.642 6.745 6.745 0 0 0-2.064-1.014 8.23 8.23 0 0 0-2.367-.338c-1.497 0-2.853.378-4.069 1.135-1.207.756-2.169 1.871-2.885 3.344-.709 1.473-1.063 3.28-1.063 5.421 0 2.141.354 3.949 1.063 5.422.716 1.473 1.678 2.587 2.885 3.344 1.216.757 2.572 1.135 4.069 1.135.821 0 1.61-.113 2.367-.338a6.951 6.951 0 0 0 2.064-1.002 6.353 6.353 0 0 0 1.594-1.654c.443-.66.753-1.417.93-2.27h2.994c-.225 1.263-.636 2.394-1.231 3.392a9.272 9.272 0 0 1-2.222 2.548 9.721 9.721 0 0 1-2.982 1.582 11.125 11.125 0 0 1-3.514.543c-2.109 0-3.984-.515-5.626-1.545-1.642-1.031-2.934-2.496-3.876-4.395-.942-1.9-1.412-4.154-1.412-6.762 0-2.608.47-4.861 1.412-6.761.942-1.9 2.234-3.365 3.876-4.395 1.642-1.03 3.517-1.545 5.626-1.545 1.248 0 2.419.181 3.514.543a9.561 9.561 0 0 1 2.982 1.594 9.117 9.117 0 0 1 2.222 2.535c.595.99 1.006 2.121 1.231 3.393Zm11.613 17.386c-1.675 0-3.144-.398-4.407-1.195-1.256-.797-2.238-1.912-2.946-3.344-.701-1.433-1.051-3.107-1.051-5.023 0-1.932.35-3.618 1.051-5.059.708-1.441 1.69-2.56 2.946-3.357 1.263-.796 2.732-1.195 4.407-1.195 1.674 0 3.139.399 4.394 1.195 1.264.797 2.246 1.916 2.946 3.357.709 1.441 1.063 3.127 1.063 5.059 0 1.916-.354 3.59-1.063 5.023-.7 1.432-1.682 2.547-2.946 3.344-1.255.797-2.72 1.195-4.394 1.195Zm0-2.559c1.271 0 2.318-.326 3.139-.978.821-.652 1.428-1.51 1.823-2.572.394-1.063.592-2.214.592-3.453 0-1.24-.198-2.395-.592-3.465-.395-1.071-1.002-1.936-1.823-2.596-.821-.66-1.868-.99-3.139-.99-1.272 0-2.319.33-3.14.99-.821.66-1.428 1.525-1.823 2.596-.394 1.07-.591 2.225-.591 3.465 0 1.239.197 2.39.591 3.453.395 1.062 1.002 1.92 1.823 2.572.821.652 1.868.978 3.14.978Zm19.381 2.559c-1.545 0-2.909-.39-4.093-1.171-1.183-.789-2.109-1.899-2.777-3.332-.668-1.441-1.002-3.143-1.002-5.107 0-1.948.334-3.639 1.002-5.071.668-1.433 1.598-2.54 2.789-3.321 1.192-.781 2.568-1.171 4.13-1.171 1.207 0 2.161.201 2.861.604.709.394 1.248.845 1.618 1.352.378.499.672.91.881 1.232h.242v-9.128h2.849V666h-2.752v-2.849h-.339c-.209.338-.507.764-.893 1.279-.386.507-.938.962-1.654 1.365-.716.394-1.67.591-2.862.591Zm.387-2.559c1.143 0 2.109-.298 2.897-.894.789-.603 1.389-1.437 1.799-2.499.411-1.071.616-2.306.616-3.707 0-1.384-.201-2.596-.603-3.634-.403-1.046-.999-1.859-1.787-2.439-.789-.587-1.763-.881-2.922-.881-1.208 0-2.214.31-3.019.929-.797.612-1.396 1.445-1.799 2.5-.394 1.046-.591 2.221-.591 3.525 0 1.32.201 2.52.603 3.598.411 1.071 1.015 1.924 1.811 2.56.805.628 1.803.942 2.995.942Zm21.129 2.559c-1.787 0-3.328-.394-4.624-1.183-1.288-.797-2.282-1.908-2.982-3.332-.692-1.433-1.039-3.099-1.039-4.999 0-1.899.347-3.574 1.039-5.023.7-1.456 1.674-2.591 2.922-3.404 1.255-.821 2.72-1.232 4.395-1.232.965 0 1.919.161 2.861.483a7.085 7.085 0 0 1 2.572 1.57c.772.716 1.388 1.666 1.847 2.849.459 1.183.688 2.64.688 4.371v1.207h-14.295v-2.463h11.398c0-1.046-.21-1.98-.628-2.801a4.734 4.734 0 0 0-1.763-1.944c-.757-.475-1.65-.712-2.68-.712-1.135 0-2.117.281-2.946.845a5.555 5.555 0 0 0-1.896 2.173 6.385 6.385 0 0 0-.664 2.874v1.642c0 1.4.241 2.588.724 3.562.491.966 1.171 1.702 2.041 2.209.869.499 1.879.749 3.03.749.749 0 1.425-.105 2.029-.314a4.357 4.357 0 0 0 1.581-.966 4.396 4.396 0 0 0 1.027-1.618l2.753.773a6.117 6.117 0 0 1-1.461 2.463c-.685.7-1.53 1.247-2.536 1.642-1.006.386-2.137.579-3.393.579ZM306.5 213a.5.5 0 0 0-1 0h1Zm-.854 42.354a.502.502 0 0 0 .708 0l3.182-3.182a.502.502 0 0 0-.708-.708L306 254.293l-2.828-2.829a.502.502 0 0 0-.708.708l3.182 3.182ZM305.5 213v42h1v-42h-1ZM282 638.5a.5.5 0 0 0 0 1v-1Zm7.5 1a.5.5 0 0 0 0-1v1Zm32-1a.5.5 0 0 0 0 1v-1Zm7.854.854a.502.502 0 0 0 0-.708l-3.182-3.182a.502.502 0 0 0-.708.708l2.829 2.828-2.829 2.828a.502.502 0 0 0 .708.708l3.182-3.182ZM282 639.5h7.5v-1H282v1Zm39.5 0h7.5v-1h-7.5v1Zm-10.531-7.091V645.5h-2.39l-5.696-8.239h-.096v8.239h-2.767v-13.091h2.429l5.65 8.233h.115v-8.233h2.755ZM140 715a.5.5 0 0 0-1 0h1Zm66.75 21.5a.5.5 0 0 0 0-1v1Zm32-1a.5.5 0 0 0 0 1v-1Zm66.896 21.854a.502.502 0 0 0 .708 0l3.182-3.182a.502.502 0 0 0-.708-.708L306 756.293l-2.828-2.829a.502.502 0 0 0-.708.708l3.182 3.182ZM306 757h.5-.5Zm-166.5-42h.5-.5Zm21 21.5h46.25v-1H160.5v1Zm78.25 0H285v-1h-46.25v1Zm46.25 0c11.322 0 20.5 9.178 20.5 20.5h1c0-11.874-9.626-21.5-21.5-21.5v1ZM139 715c0 11.874 9.626 21.5 21.5 21.5v-1c-11.322 0-20.5-9.178-20.5-20.5h-1Zm77.599 14.409h3.1l2.985 5.638h.128l2.985-5.638h3.101l-4.775 8.463v4.628h-2.749v-4.628l-4.775-8.463Z"/>
  <path fill="#000" d="M472 715a.5.5 0 0 0-1 0h1Zm-67.25 20.5a.5.5 0 0 0 0 1v-1Zm-32 1a.5.5 0 0 0 0-1v1Zm-67.104 20.854a.502.502 0 0 0 .708 0l3.182-3.182a.502.502 0 0 0-.708-.708L306 756.293l-2.828-2.829a.502.502 0 0 0-.708.708l3.182 3.182ZM306 757h.5-.5Zm165.5-42h.5-.5Zm-21 20.5h-45.75v1h45.75v-1Zm-77.75 0H327v1h45.75v-1Zm-45.75 0c-11.874 0-21.5 9.626-21.5 21.5h1c0-11.322 9.178-20.5 20.5-20.5v-1ZM471 715c0 11.322-9.178 20.5-20.5 20.5v1c11.874 0 21.5-9.626 21.5-21.5h-1Zm-88.401 14.409h3.1l2.985 5.638h.128l2.985-5.638h3.101l-4.775 8.463v4.628h-2.749v-4.628l-4.775-8.463ZM471 563a.5.5 0 0 0 1 0h-1Zm-149.5-28.5a.5.5 0 0 0 0 1v-1Zm-32 1a.5.5 0 0 0 0-1v1Zm-150.354 27.854a.502.502 0 0 0 .708 0l3.182-3.182a.502.502 0 0 0-.708-.708l-2.828 2.829-2.828-2.829a.502.502 0 0 0-.708.708l3.182 3.182ZM472 563v-3h-1v3h1Zm-25.5-28.5h-125v1h125v-1Zm-157 0h-125v1h125v-1ZM139 560v3h1v-3h-1Zm25.5-25.5c-14.083 0-25.5 11.417-25.5 25.5h1c0-13.531 10.969-24.5 24.5-24.5v-1ZM472 560c0-14.083-11.417-25.5-25.5-25.5v1c13.531 0 24.5 10.969 24.5 24.5h1Zm-161.031-31.591V541.5h-2.39l-5.696-8.239h-.096v8.239h-2.767v-13.091h2.429l5.65 8.233h.115v-8.233h2.755Z"/>
  <path fill="#000" d="M306.5 471a.5.5 0 0 0-1 0h1Zm-167.354 92.354a.502.502 0 0 0 .708 0l3.182-3.182a.502.502 0 0 0-.708-.708l-2.828 2.829-2.828-2.829a.502.502 0 0 0-.708.708l3.182 3.182ZM305.5 471v21h1v-21h-1ZM281 516.5H164.5v1H281v-1ZM139 542v21h1v-21h-1Zm25.5-25.5c-14.083 0-25.5 11.417-25.5 25.5h1c0-13.531 10.969-24.5 24.5-24.5v-1Zm141-24.5c0 13.531-10.969 24.5-24.5 24.5v1c14.083 0 25.5-11.417 25.5-25.5h-1Z"/>
  <path fill="#fff" stroke="#000" stroke-linecap="round" stroke-miterlimit="0" d="M127.969 1021.82a24.985 24.985 0 0 1 23.062 0l113.5 47c17.959 9.33 17.959 35.03 0 44.36l-113.5 47a24.985 24.985 0 0 1-23.062 0l-113.5-47c-17.959-9.33-17.959-35.03 0-44.36l113.5-47Z"/>
  <path fill="#000" d="M109.659 1072h-2.995c-.177-.86-.487-1.62-.929-2.27a6.176 6.176 0 0 0-1.594-1.64 6.903 6.903 0 0 0-2.065-1.02 8.427 8.427 0 0 0-2.366-.33c-1.497 0-2.854.37-4.07 1.13-1.207.76-2.168 1.87-2.885 3.35-.708 1.47-1.062 3.28-1.062 5.42s.354 3.94 1.062 5.42c.717 1.47 1.678 2.59 2.886 3.34 1.215.76 2.572 1.14 4.069 1.14.821 0 1.61-.12 2.366-.34a7.101 7.101 0 0 0 2.065-1 6.409 6.409 0 0 0 1.594-1.66c.442-.66.752-1.41.929-2.27h2.995c-.226 1.27-.636 2.4-1.232 3.4a9.354 9.354 0 0 1-2.222 2.54 9.507 9.507 0 0 1-2.982 1.58c-1.094.37-2.266.55-3.513.55-2.11 0-3.985-.52-5.627-1.55s-2.934-2.49-3.875-4.39c-.942-1.9-1.413-4.16-1.413-6.76 0-2.61.47-4.87 1.413-6.76.941-1.9 2.233-3.37 3.875-4.4 1.642-1.03 3.518-1.55 5.627-1.55 1.247 0 2.419.19 3.513.55a9.53 9.53 0 0 1 2.982 1.59 9.066 9.066 0 0 1 2.222 2.54c.596.99 1.006 2.12 1.232 3.39Zm4.078 17v-18.55h2.753v2.81h.193c.338-.92.95-1.67 1.835-2.24.885-.57 1.884-.86 2.994-.86.21 0 .471.01.785.02.314 0 .552.02.713.03v2.9c-.097-.02-.318-.06-.665-.11a7.323 7.323 0 0 0-1.074-.08c-.902 0-1.707.19-2.415.57-.7.37-1.256.88-1.666 1.54-.403.65-.604 1.4-.604 2.23V1089h-2.849Zm19.487.39c-1.787 0-3.328-.4-4.624-1.19-1.288-.79-2.282-1.9-2.982-3.33-.692-1.43-1.039-3.1-1.039-5s.347-3.57 1.039-5.02c.7-1.46 1.674-2.59 2.922-3.41 1.255-.82 2.72-1.23 4.395-1.23.965 0 1.919.16 2.861.49a6.99 6.99 0 0 1 2.572 1.57c.773.71 1.388 1.66 1.847 2.85.459 1.18.688 2.64.688 4.37v1.2h-14.295v-2.46h11.398c0-1.05-.21-1.98-.628-2.8a4.698 4.698 0 0 0-1.763-1.94c-.757-.48-1.65-.72-2.68-.72-1.135 0-2.117.28-2.946.85a5.54 5.54 0 0 0-1.896 2.17 6.362 6.362 0 0 0-.664 2.87v1.65c0 1.4.241 2.58.724 3.56.491.96 1.171 1.7 2.041 2.21.869.5 1.879.75 3.03.75.749 0 1.425-.11 2.029-.32a4.317 4.317 0 0 0 1.581-.96 4.48 4.48 0 0 0 1.027-1.62l2.753.77c-.29.94-.777 1.76-1.461 2.46-.685.71-1.53 1.25-2.536 1.65-1.006.38-2.137.58-3.393.58Zm17.097.04c-1.175 0-2.242-.22-3.199-.66a5.51 5.51 0 0 1-2.282-1.94c-.564-.86-.846-1.89-.846-3.09 0-1.07.21-1.93.628-2.59a4.43 4.43 0 0 1 1.679-1.57c.7-.38 1.473-.66 2.318-.84.853-.2 1.71-.35 2.572-.46 1.126-.15 2.04-.26 2.74-.33.709-.08 1.224-.21 1.546-.4.33-.18.495-.5.495-.96v-.1c0-1.19-.326-2.12-.978-2.78-.644-.66-1.622-.99-2.934-.99-1.36 0-2.427.3-3.2.9-.772.59-1.316 1.23-1.63 1.91l-2.704-.97c.483-1.13 1.127-2 1.932-2.63a7.187 7.187 0 0 1 2.656-1.33c.966-.26 1.916-.39 2.849-.39.596 0 1.28.08 2.053.22.781.14 1.533.42 2.258.86.732.43 1.34 1.09 1.823 1.97.483.87.724 2.05.724 3.52V1089h-2.849v-2.51h-.145c-.193.4-.515.83-.966 1.29-.451.46-1.05.85-1.799 1.17-.749.32-1.662.48-2.741.48Zm.435-2.55c1.127 0 2.077-.23 2.849-.67.781-.44 1.369-1.01 1.763-1.71.403-.7.604-1.44.604-2.21v-2.61c-.121.14-.387.28-.797.4-.403.11-.869.21-1.401.3-.523.08-1.034.15-1.533.22-.491.05-.889.1-1.195.14-.741.1-1.433.26-2.077.47-.636.21-1.151.53-1.546.96-.386.41-.579.99-.579 1.71 0 .99.366 1.74 1.099 2.25.74.5 1.678.75 2.813.75Zm20.957-16.43v2.42h-9.61v-2.42h9.61Zm-6.809-4.44h2.849v17.68c0 .8.117 1.41.35 1.81.242.39.548.66.918.8.378.12.777.19 1.195.19.314 0 .572-.02.773-.05.201-.04.362-.07.483-.1l.579 2.56a4.61 4.61 0 0 1-.809.22c-.346.08-.784.12-1.316.12-.804 0-1.593-.17-2.366-.52a4.634 4.634 0 0 1-1.908-1.58c-.499-.71-.748-1.6-.748-2.68v-18.45Zm18.298 23.38c-1.787 0-3.328-.4-4.624-1.19-1.288-.79-2.282-1.9-2.983-3.33-.692-1.43-1.038-3.1-1.038-5s.346-3.57 1.038-5.02c.701-1.46 1.675-2.59 2.922-3.41 1.256-.82 2.721-1.23 4.395-1.23.966 0 1.92.16 2.862.49.941.32 1.799.84 2.571 1.57.773.71 1.389 1.66 1.848 2.85.459 1.18.688 2.64.688 4.37v1.2h-14.296v-2.46h11.398c0-1.05-.209-1.98-.628-2.8a4.696 4.696 0 0 0-1.762-1.94c-.757-.48-1.651-.72-2.681-.72-1.135 0-2.117.28-2.946.85a5.53 5.53 0 0 0-1.895 2.17 6.363 6.363 0 0 0-.665 2.87v1.65c0 1.4.242 2.58.725 3.56.491.96 1.171 1.7 2.04 2.21.87.5 1.88.75 3.031.75.749 0 1.425-.11 2.028-.32a4.321 4.321 0 0 0 1.582-.96c.443-.44.785-.98 1.026-1.62l2.753.77c-.29.94-.777 1.76-1.461 2.46-.684.71-1.529 1.25-2.535 1.65-1.006.38-2.137.58-3.393.58ZM84.121 1118v-24.73h8.355c1.94 0 3.525.35 4.757 1.05 1.24.7 2.157 1.63 2.753 2.82.595 1.18.893 2.5.893 3.96 0 1.45-.298 2.78-.893 3.97-.588 1.19-1.497 2.14-2.729 2.85-1.232.7-2.81 1.05-4.733 1.05h-5.989v-2.66h5.892c1.329 0 2.395-.23 3.2-.69.805-.45 1.389-1.07 1.75-1.86.371-.78.556-1.67.556-2.66 0-.99-.185-1.88-.555-2.66-.362-.78-.95-1.39-1.763-1.83-.813-.46-1.892-.68-3.236-.68h-5.264V1118h-2.994Zm20.821 0v-18.55h2.753v2.81h.193c.338-.92.95-1.67 1.836-2.24.885-.57 1.883-.86 2.994-.86.209 0 .471.01.785.02.314 0 .551.02.712.03v2.9c-.096-.02-.318-.06-.664-.11a7.327 7.327 0 0 0-1.075-.08c-.901 0-1.706.19-2.414.57-.701.37-1.256.88-1.667 1.54-.402.65-.603 1.4-.603 2.23V1118h-2.85Zm19.246.39c-1.674 0-3.143-.4-4.407-1.2-1.255-.8-2.237-1.91-2.946-3.34-.7-1.44-1.05-3.11-1.05-5.03 0-1.93.35-3.61 1.05-5.06.709-1.44 1.691-2.55 2.946-3.35 1.264-.8 2.733-1.2 4.407-1.2 1.675 0 3.14.4 4.395 1.2 1.264.8 2.246 1.91 2.946 3.35.709 1.45 1.063 3.13 1.063 5.06 0 1.92-.354 3.59-1.063 5.03-.7 1.43-1.682 2.54-2.946 3.34-1.255.8-2.72 1.2-4.395 1.2Zm0-2.56c1.272 0 2.319-.33 3.14-.98.821-.65 1.428-1.51 1.823-2.57.394-1.07.591-2.22.591-3.46 0-1.24-.197-2.39-.591-3.46-.395-1.07-1.002-1.94-1.823-2.6-.821-.66-1.868-.99-3.14-.99-1.271 0-2.318.33-3.139.99-.821.66-1.429 1.53-1.823 2.6-.394 1.07-.592 2.22-.592 3.46 0 1.24.198 2.39.592 3.46.394 1.06 1.002 1.92 1.823 2.57.821.65 1.868.98 3.139.98Zm20.638-16.38v2.42h-9.997v-2.42h9.997Zm-7.003 18.55v-21.11c0-1.06.25-1.94.749-2.65a4.684 4.684 0 0 1 1.944-1.6 6.208 6.208 0 0 1 2.523-.53c.7 0 1.272.06 1.714.17.443.12.773.22.991.32l-.821 2.46c-.145-.05-.347-.11-.604-.18-.25-.07-.58-.11-.99-.11-.942 0-1.622.24-2.041.71-.41.48-.615 1.17-.615 2.09V1118h-2.85Zm10.622 0v-18.55h2.85V1118h-2.85Zm1.449-21.64c-.555 0-1.034-.19-1.437-.56a1.84 1.84 0 0 1-.591-1.37c0-.53.197-.98.591-1.36.403-.38.882-.57 1.437-.57.556 0 1.031.19 1.425.57.402.38.604.83.604 1.36 0 .53-.202.99-.604 1.37-.394.37-.869.56-1.425.56Zm9.095-3.09V1118h-2.849v-24.73h2.849Zm12.621 25.12c-1.787 0-3.329-.4-4.625-1.19-1.288-.79-2.282-1.9-2.982-3.33-.692-1.43-1.038-3.1-1.038-5s.346-3.57 1.038-5.02c.7-1.46 1.674-2.59 2.922-3.41 1.256-.82 2.721-1.23 4.395-1.23.966 0 1.92.16 2.861.49a6.99 6.99 0 0 1 2.572 1.57c.773.71 1.389 1.66 1.847 2.85.459 1.18.689 2.64.689 4.37v1.2h-14.296v-2.46h11.398c0-1.05-.209-1.98-.628-2.8a4.692 4.692 0 0 0-1.763-1.94c-.756-.48-1.65-.72-2.68-.72-1.135 0-2.117.28-2.946.85a5.54 5.54 0 0 0-1.896 2.17 6.375 6.375 0 0 0-.664 2.87v1.65c0 1.4.242 2.58.725 3.56.491.96 1.171 1.7 2.04 2.21.869.5 1.88.75 3.031.75.748 0 1.424-.11 2.028-.32a4.321 4.321 0 0 0 1.582-.96c.442-.44.785-.98 1.026-1.62l2.753.77c-.29.94-.777 1.76-1.461 2.46-.684.71-1.529 1.25-2.536 1.65-1.006.38-2.137.58-3.392.58Zm15.358-7.34v-.15c.016-1.54.177-2.76.483-3.67.306-.91.74-1.65 1.304-2.21.563-.56 1.239-1.08 2.028-1.56.475-.29.902-.63 1.28-1.02.378-.41.676-.87.894-1.39.225-.52.338-1.1.338-1.74 0-.79-.186-1.47-.556-2.05a3.694 3.694 0 0 0-1.485-1.34c-.62-.32-1.308-.47-2.065-.47-.66 0-1.295.13-1.907.41-.612.27-1.123.7-1.534 1.29-.41.59-.648 1.35-.712 2.3h-3.043c.065-1.36.419-2.53 1.063-3.51a6.378 6.378 0 0 1 2.572-2.23c1.07-.52 2.258-.78 3.561-.78 1.417 0 2.649.29 3.695.85 1.055.56 1.868 1.34 2.439 2.32.58.98.869 2.1.869 3.35 0 .89-.137 1.69-.41 2.41a6.068 6.068 0 0 1-1.159 1.92 7.9 7.9 0 0 1-1.811 1.49c-.709.45-1.276.91-1.703 1.4a4.478 4.478 0 0 0-.929 1.73c-.194.67-.298 1.5-.314 2.5v.15h-2.898Zm1.545 7.14a2.08 2.08 0 0 1-1.533-.64c-.427-.42-.64-.93-.64-1.53s.213-1.11.64-1.53a2.08 2.08 0 0 1 1.533-.64c.596 0 1.107.21 1.534.64.426.42.64.93.64 1.53 0 .39-.101.76-.302 1.09-.193.33-.455.59-.785.79-.322.2-.684.29-1.087.29ZM306.5 973a.5.5 0 0 0-1 0h1Zm-167.354 42.35c.196.2.512.2.708 0l3.182-3.18a.504.504 0 0 0 0-.71.511.511 0 0 0-.708 0l-2.828 2.83-2.828-2.83a.511.511 0 0 0-.708 0 .504.504 0 0 0 0 .71l3.182 3.18Zm.354-.35h.5-.5ZM306 973h.5-.5Zm-21 20.5H160.5v1H285v-1Zm-124.5 0c-11.874 0-21.5 9.63-21.5 21.5h1c0-11.32 9.178-20.5 20.5-20.5v-1Zm145-20.5c0 11.322-9.178 20.5-20.5 20.5v1c11.874 0 21.5-9.626 21.5-21.5h-1ZM282 1090.5c-.276 0-.5.22-.5.5s.224.5.5.5v-1Zm32 1c.276 0 .5-.22.5-.5s-.224-.5-.5-.5v1Zm32-1c-.276 0-.5.22-.5.5s.224.5.5.5v-1Zm32.354.85a.492.492 0 0 0 0-.7l-3.182-3.19a.511.511 0 0 0-.708 0 .504.504 0 0 0 0 .71l2.829 2.83-2.829 2.83a.504.504 0 0 0 0 .71c.196.19.512.19.708 0l3.182-3.19Zm-96.354.15h32v-1h-32v1Zm64 0h32v-1h-32v1Zm-10.531-7.09v13.09h-2.39l-5.696-8.24h-.096v8.24h-2.767v-13.09h2.429l5.65 8.23h.115v-8.23h2.755Z"/>
  <rect width="208" height="208" x="202" y="1245" fill="#fff" stroke="#000" stroke-linecap="round" stroke-miterlimit="0" rx="25"/>
  <path fill="#000" d="M259.237 1347v-24.73h8.355c1.94 0 3.526.35 4.757 1.05 1.24.7 2.157 1.63 2.753 2.82.596 1.18.893 2.5.893 3.96 0 1.45-.297 2.78-.893 3.97-.588 1.19-1.497 2.14-2.729 2.85-1.231.7-2.809 1.05-4.733 1.05h-5.988v-2.66h5.892c1.328 0 2.394-.23 3.199-.69.805-.45 1.389-1.07 1.751-1.86.37-.78.555-1.67.555-2.66 0-.99-.185-1.88-.555-2.66-.362-.78-.95-1.39-1.763-1.83-.813-.46-1.891-.68-3.236-.68h-5.264V1347h-2.994Zm20.822 0v-18.55h2.752v2.81h.194c.338-.92.949-1.67 1.835-2.24.885-.57 1.883-.86 2.994-.86.209 0 .471.01.785.02.314 0 .551.02.712.03v2.9c-.096-.02-.318-.06-.664-.11a7.323 7.323 0 0 0-1.074-.08c-.902 0-1.707.19-2.415.57-.7.37-1.256.88-1.666 1.54-.403.65-.604 1.4-.604 2.23V1347h-2.849Zm19.246.39c-1.675 0-3.144-.4-4.407-1.2-1.256-.8-2.238-1.91-2.946-3.34-.701-1.44-1.051-3.11-1.051-5.03 0-1.93.35-3.61 1.051-5.06.708-1.44 1.69-2.55 2.946-3.35 1.263-.8 2.732-1.2 4.407-1.2 1.674 0 3.139.4 4.394 1.2 1.264.8 2.246 1.91 2.947 3.35.708 1.45 1.062 3.13 1.062 5.06 0 1.92-.354 3.59-1.062 5.03-.701 1.43-1.683 2.54-2.947 3.34-1.255.8-2.72 1.2-4.394 1.2Zm0-2.56c1.271 0 2.318-.33 3.139-.98.821-.65 1.429-1.51 1.823-2.57.394-1.07.592-2.22.592-3.46 0-1.24-.198-2.39-.592-3.46-.394-1.07-1.002-1.94-1.823-2.6-.821-.66-1.868-.99-3.139-.99-1.272 0-2.319.33-3.14.99-.821.66-1.428 1.53-1.823 2.6-.394 1.07-.591 2.22-.591 3.46 0 1.24.197 2.39.591 3.46.395 1.06 1.002 1.92 1.823 2.57.821.65 1.868.98 3.14.98Zm20.637-16.38v2.42h-9.997v-2.42h9.997Zm-7.003 18.55v-21.11c0-1.06.25-1.94.749-2.65a4.684 4.684 0 0 1 1.944-1.6 6.211 6.211 0 0 1 2.523-.53c.7 0 1.272.06 1.715.17.442.12.772.22.99.32l-.821 2.46a9.92 9.92 0 0 0-.604-.18c-.249-.07-.58-.11-.99-.11-.942 0-1.622.24-2.04.71-.411.48-.616 1.17-.616 2.09V1347h-2.85Zm10.623 0v-18.55h2.849V1347h-2.849Zm1.448-21.64c-.555 0-1.034-.19-1.436-.56a1.838 1.838 0 0 1-.592-1.37c0-.53.197-.98.592-1.36a2.02 2.02 0 0 1 1.436-.57c.556 0 1.031.19 1.425.57.403.38.604.83.604 1.36 0 .53-.201.99-.604 1.37-.394.37-.869.56-1.425.56Zm9.095-3.09V1347h-2.849v-24.73h2.849Zm12.621 25.12c-1.787 0-3.328-.4-4.624-1.19-1.288-.79-2.282-1.9-2.983-3.33-.692-1.43-1.038-3.1-1.038-5s.346-3.57 1.038-5.02c.701-1.46 1.675-2.59 2.922-3.41 1.256-.82 2.721-1.23 4.395-1.23.966 0 1.92.16 2.862.49.941.32 1.799.84 2.571 1.57.773.71 1.389 1.66 1.848 2.85.458 1.18.688 2.64.688 4.37v1.2h-14.296v-2.46h11.398c0-1.05-.209-1.98-.628-2.8a4.692 4.692 0 0 0-1.763-1.94c-.756-.48-1.65-.72-2.68-.72-1.135 0-2.117.28-2.946.85a5.54 5.54 0 0 0-1.896 2.17 6.375 6.375 0 0 0-.664 2.87v1.65c0 1.4.242 2.58.725 3.56.491.96 1.171 1.7 2.04 2.21.87.5 1.88.75 3.031.75.748 0 1.425-.11 2.028-.32a4.321 4.321 0 0 0 1.582-.96c.443-.44.785-.98 1.026-1.62l2.753.77c-.29.94-.777 1.76-1.461 2.46-.684.71-1.529 1.25-2.535 1.65-1.007.38-2.137.58-3.393.58ZM269.014 1376v-24.73h14.827v2.66h-11.832v8.35h10.721v2.66h-10.721V1376h-2.995Zm25.368.39c-1.674 0-3.143-.4-4.407-1.2-1.256-.8-2.238-1.91-2.946-3.34-.7-1.44-1.051-3.11-1.051-5.03 0-1.93.351-3.61 1.051-5.06.708-1.44 1.69-2.55 2.946-3.35 1.264-.8 2.733-1.2 4.407-1.2s3.139.4 4.395 1.2c1.263.8 2.245 1.91 2.946 3.35.708 1.45 1.062 3.13 1.062 5.06 0 1.92-.354 3.59-1.062 5.03-.701 1.43-1.683 2.54-2.946 3.34-1.256.8-2.721 1.2-4.395 1.2Zm0-2.56c1.272 0 2.318-.33 3.139-.98.821-.65 1.429-1.51 1.823-2.57.395-1.07.592-2.22.592-3.46 0-1.24-.197-2.39-.592-3.46-.394-1.07-1.002-1.94-1.823-2.6-.821-.66-1.867-.99-3.139-.99-1.272 0-2.318.33-3.139.99-.821.66-1.429 1.53-1.824 2.6-.394 1.07-.591 2.22-.591 3.46 0 1.24.197 2.39.591 3.46.395 1.06 1.003 1.92 1.824 2.57.821.65 1.867.98 3.139.98Zm12.379 2.17v-18.55h2.753v2.81h.193c.338-.92.95-1.67 1.835-2.24.885-.57 1.884-.86 2.994-.86.21 0 .471.01.785.02.314 0 .552.02.713.03v2.9c-.097-.02-.318-.06-.665-.11a7.323 7.323 0 0 0-1.074-.08c-.902 0-1.707.19-2.415.57-.7.37-1.256.88-1.666 1.54-.403.65-.604 1.4-.604 2.23V1376h-2.849Zm12.276 0v-18.55h2.753v2.9h.242c.386-.99 1.01-1.76 1.871-2.3.861-.56 1.896-.84 3.103-.84 1.223 0 2.242.28 3.055.84.821.54 1.461 1.31 1.919 2.3h.194a5.36 5.36 0 0 1 2.137-2.28c.949-.57 2.088-.86 3.417-.86 1.658 0 3.014.52 4.068 1.56 1.055 1.03 1.582 2.64 1.582 4.82V1376h-2.849v-12.41c0-1.37-.375-2.35-1.123-2.94-.749-.58-1.63-.88-2.644-.88-1.304 0-2.315.4-3.031 1.19-.716.78-1.074 1.77-1.074 2.97V1376h-2.898v-12.7c0-1.06-.342-1.91-1.027-2.55-.684-.65-1.565-.98-2.644-.98-.74 0-1.432.2-2.076.59-.636.4-1.151.95-1.546 1.65-.386.69-.579 1.49-.579 2.4V1376h-2.85ZM140 1167c0-.28-.224-.5-.5-.5s-.5.22-.5.5h1Zm66.75 37.5c.276 0 .5-.22.5-.5s-.224-.5-.5-.5v1Zm32-1c-.276 0-.5.22-.5.5s.224.5.5.5v-1Zm66.896 37.85c.196.2.512.2.708 0l3.182-3.18a.504.504 0 0 0 0-.71.511.511 0 0 0-.708 0l-2.828 2.83-2.828-2.83a.511.511 0 0 0-.708 0 .504.504 0 0 0 0 .71l3.182 3.18ZM139 1167v12h1v-12h-1Zm25.5 37.5h42.25v-1H164.5v1Zm74.25 0H281v-1h-42.25v1Zm66.75 24.5v12h1v-12h-1Zm-24.5-24.5c13.531 0 24.5 10.97 24.5 24.5h1c0-14.08-11.417-25.5-25.5-25.5v1ZM139 1179c0 14.08 11.417 25.5 25.5 25.5v-1c-13.531 0-24.5-10.97-24.5-24.5h-1Zm77.599 18.41h3.1l2.985 5.64h.128l2.985-5.64h3.101l-4.775 8.46v4.63h-2.749v-4.63l-4.775-8.46Z"/>
  <rect width="208" height="208" x="202" y="1503" fill="#fff" stroke="#000" stroke-linecap="round" stroke-miterlimit="0" rx="25"/>
  <path fill="#000" d="M263.416 1605v-24.73h14.827v2.66H266.41v8.35h10.722v2.66H266.41V1605h-2.994Zm24.652.43c-1.175 0-2.241-.22-3.199-.66a5.51 5.51 0 0 1-2.282-1.94c-.564-.86-.845-1.89-.845-3.09 0-1.07.209-1.93.627-2.59a4.43 4.43 0 0 1 1.679-1.57c.7-.38 1.473-.66 2.318-.84.853-.2 1.71-.35 2.572-.46 1.126-.15 2.04-.26 2.74-.33.709-.08 1.224-.21 1.546-.4.33-.18.495-.5.495-.96v-.1c0-1.19-.326-2.12-.978-2.78-.644-.66-1.622-.99-2.934-.99-1.36 0-2.427.3-3.2.9-.772.59-1.316 1.23-1.63 1.91l-2.704-.97c.483-1.13 1.127-2 1.932-2.63a7.187 7.187 0 0 1 2.656-1.33c.966-.26 1.916-.39 2.849-.39.596 0 1.28.08 2.053.22.781.14 1.533.42 2.258.86.732.43 1.34 1.09 1.823 1.97.483.87.724 2.05.724 3.52V1605h-2.849v-2.51h-.145c-.193.4-.515.83-.966 1.29-.451.46-1.05.85-1.799 1.17-.749.32-1.662.48-2.741.48Zm.435-2.55c1.127 0 2.077-.23 2.849-.67.781-.44 1.369-1.01 1.763-1.71.403-.7.604-1.44.604-2.21v-2.61c-.121.14-.387.28-.797.4-.403.11-.869.21-1.401.3-.523.08-1.034.15-1.533.22-.491.05-.889.1-1.195.14-.741.1-1.433.26-2.077.47-.636.21-1.151.53-1.546.96-.386.41-.579.99-.579 1.71 0 .99.366 1.74 1.099 2.25.74.5 1.678.75 2.813.75Zm20.426 2.51c-1.739 0-3.236-.41-4.491-1.24-1.256-.82-2.222-1.95-2.898-3.39-.676-1.44-1.014-3.08-1.014-4.94 0-1.88.346-3.54 1.038-4.98.7-1.45 1.674-2.58 2.922-3.4 1.256-.82 2.721-1.23 4.395-1.23 1.304 0 2.479.24 3.525.73a6.716 6.716 0 0 1 2.572 2.03c.668.87 1.083 1.88 1.244 3.04h-2.85c-.217-.85-.7-1.6-1.449-2.25-.74-.66-1.738-.99-2.994-.99-1.111 0-2.085.29-2.922.87-.829.57-1.477 1.38-1.944 2.43-.458 1.04-.688 2.26-.688 3.66 0 1.43.226 2.68.676 3.74.459 1.06 1.103 1.89 1.932 2.48.837.58 1.819.88 2.946.88.741 0 1.413-.13 2.016-.39a4.222 4.222 0 0 0 1.534-1.11c.418-.48.716-1.06.893-1.74h2.85a6.596 6.596 0 0 1-1.196 2.96c-.627.87-1.461 1.56-2.499 2.08-1.03.5-2.229.76-3.598.76Zm11.084-.39v-18.55h2.85V1605h-2.85Zm1.449-21.64c-.555 0-1.034-.19-1.437-.56a1.84 1.84 0 0 1-.591-1.37c0-.53.197-.98.591-1.36.403-.38.882-.57 1.437-.57s1.03.19 1.425.57c.402.38.604.83.604 1.36 0 .53-.202.99-.604 1.37-.395.37-.87.56-1.425.56Zm11.703 22.07c-1.175 0-2.242-.22-3.2-.66a5.523 5.523 0 0 1-2.282-1.94c-.563-.86-.845-1.89-.845-3.09 0-1.07.21-1.93.628-2.59.419-.67.978-1.19 1.678-1.57a8.582 8.582 0 0 1 2.319-.84c.853-.2 1.71-.35 2.571-.46 1.127-.15 2.041-.26 2.741-.33.708-.08 1.224-.21 1.546-.4.33-.18.495-.5.495-.96v-.1c0-1.19-.326-2.12-.978-2.78-.644-.66-1.622-.99-2.934-.99-1.361 0-2.427.3-3.2.9-.773.59-1.316 1.23-1.63 1.91l-2.704-.97c.482-1.13 1.126-2 1.931-2.63a7.191 7.191 0 0 1 2.657-1.33c.965-.26 1.915-.39 2.849-.39.596 0 1.28.08 2.053.22.78.14 1.533.42 2.257.86.733.43 1.341 1.09 1.824 1.97.482.87.724 2.05.724 3.52V1605h-2.849v-2.51h-.145c-.194.4-.515.83-.966 1.29-.451.46-1.051.85-1.799 1.17-.749.32-1.662.48-2.741.48Zm.435-2.55c1.127 0 2.076-.23 2.849-.67.781-.44 1.368-1.01 1.763-1.71.402-.7.604-1.44.604-2.21v-2.61c-.121.14-.387.28-.797.4-.403.11-.87.21-1.401.3-.523.08-1.034.15-1.533.22-.491.05-.89.1-1.196.14-.74.1-1.432.26-2.076.47-.636.21-1.151.53-1.546.96-.386.41-.579.99-.579 1.71 0 .99.366 1.74 1.098 2.25.741.5 1.679.75 2.814.75Zm15.741-22.61V1605h-2.849v-24.73h2.849Zm-66.123 35.18c-.145-1.22-.733-2.17-1.763-2.84-1.03-.68-2.294-1.02-3.791-1.02-1.095 0-2.053.18-2.874.53-.813.36-1.449.84-1.908 1.46-.45.62-.676 1.33-.676 2.12 0 .66.157 1.22.471 1.7.322.47.733.86 1.232 1.17a8.47 8.47 0 0 0 1.569.76c.548.19 1.051.35 1.51.47l2.511.68c.644.17 1.36.4 2.149.7.797.3 1.558.7 2.282 1.22.733.5 1.336 1.16 1.811 1.95.475.8.712 1.78.712 2.94 0 1.33-.35 2.54-1.05 3.62-.692 1.08-1.706 1.93-3.043 2.57-1.328.64-2.942.95-4.841.95-1.771 0-3.304-.28-4.6-.85-1.288-.57-2.302-1.37-3.043-2.39-.732-1.03-1.147-2.21-1.244-3.57h3.091c.081.94.395 1.71.942 2.32.556.61 1.256 1.06 2.101 1.36.853.29 1.771.43 2.753.43 1.143 0 2.169-.19 3.079-.56.909-.37 1.63-.9 2.161-1.56.531-.68.797-1.47.797-2.37 0-.82-.23-1.49-.688-2.01-.459-.51-1.063-.93-1.812-1.25-.748-.32-1.557-.61-2.426-.85l-3.043-.87c-1.932-.55-3.461-1.34-4.588-2.37-1.127-1.03-1.69-2.38-1.69-4.05 0-1.38.374-2.59 1.122-3.62.757-1.04 1.771-1.84 3.043-2.42 1.28-.58 2.709-.87 4.286-.87 1.594 0 3.011.29 4.25.86 1.24.57 2.222 1.34 2.946 2.32a5.77 5.77 0 0 1 1.159 3.34h-2.897Zm14.932 18.94c-1.738 0-3.235-.41-4.491-1.24-1.256-.82-2.222-1.95-2.898-3.39-.676-1.44-1.014-3.08-1.014-4.94 0-1.88.346-3.54 1.038-4.98.701-1.45 1.675-2.58 2.922-3.4 1.256-.82 2.721-1.23 4.395-1.23 1.304 0 2.479.24 3.526.73a6.72 6.72 0 0 1 2.571 2.03c.668.87 1.083 1.88 1.244 3.04h-2.849c-.218-.85-.701-1.6-1.449-2.25-.741-.66-1.739-.99-2.995-.99-1.11 0-2.084.29-2.922.87-.829.57-1.477 1.38-1.943 2.43-.459 1.04-.689 2.26-.689 3.66 0 1.43.226 2.68.676 3.74.459 1.06 1.103 1.89 1.932 2.48.837.58 1.819.88 2.946.88.741 0 1.413-.13 2.017-.39a4.227 4.227 0 0 0 1.533-1.11c.419-.48.716-1.06.894-1.74h2.849a6.594 6.594 0 0 1-1.195 2.96c-.628.87-1.461 1.56-2.5 2.08-1.03.5-2.229.76-3.598.76Zm16.542.04c-1.175 0-2.242-.22-3.2-.66a5.517 5.517 0 0 1-2.282-1.94c-.563-.86-.845-1.89-.845-3.09 0-1.07.209-1.93.628-2.59.419-.67.978-1.19 1.678-1.57a8.587 8.587 0 0 1 2.318-.84c.854-.2 1.711-.35 2.572-.46 1.127-.15 2.041-.26 2.741-.33.708-.08 1.223-.21 1.545-.4.33-.18.495-.5.495-.96v-.1c0-1.19-.326-2.12-.978-2.78-.644-.66-1.622-.99-2.934-.99-1.36 0-2.426.3-3.199.9-.773.59-1.316 1.23-1.63 1.91l-2.705-.97c.483-1.13 1.127-2 1.932-2.63a7.194 7.194 0 0 1 2.656-1.33c.966-.26 1.916-.39 2.85-.39.596 0 1.28.08 2.052.22.781.14 1.534.42 2.258.86.733.43 1.34 1.09 1.823 1.97.483.87.725 2.05.725 3.52V1634h-2.85v-2.51h-.144c-.194.4-.516.83-.966 1.29-.451.46-1.051.85-1.799 1.17-.749.32-1.663.48-2.741.48Zm.434-2.55c1.127 0 2.077-.23 2.85-.67.781-.44 1.368-1.01 1.763-1.71.402-.7.603-1.44.603-2.21v-2.61c-.12.14-.386.28-.796.4-.403.11-.87.21-1.401.3-.523.08-1.034.15-1.533.22-.491.05-.89.1-1.196.14-.74.1-1.433.26-2.076.47-.636.21-1.151.53-1.546.96-.386.41-.579.99-.579 1.71 0 .99.366 1.74 1.098 2.25.741.5 1.679.75 2.813.75Zm15.742-9.04V1634h-2.849v-18.55h2.752v2.9h.242a5.303 5.303 0 0 1 1.98-2.27c.885-.58 2.028-.87 3.429-.87 1.256 0 2.354.26 3.296.78.942.5 1.674 1.28 2.198 2.31.523 1.03.784 2.34.784 3.92V1634h-2.849v-11.59c0-1.46-.378-2.59-1.135-3.41-.757-.82-1.795-1.23-3.115-1.23-.91 0-1.723.2-2.439.59-.708.4-1.268.97-1.678 1.73-.411.76-.616 1.68-.616 2.75ZM306.5 1457c0-.28-.224-.5-.5-.5s-.5.22-.5.5h1Zm-.854 42.35c.196.2.512.2.708 0l3.182-3.18a.504.504 0 0 0 0-.71.511.511 0 0 0-.708 0l-2.828 2.83-2.828-2.83a.511.511 0 0 0-.708 0 .504.504 0 0 0 0 .71l3.182 3.18ZM305.5 1457v42h1v-42h-1Zm191-258c0-.28-.224-.5-.5-.5s-.5.22-.5.5h1Zm-82.854 407.65a.492.492 0 0 0 0 .7l3.182 3.19c.196.19.512.19.708 0a.504.504 0 0 0 0-.71l-2.829-2.83 2.829-2.83a.504.504 0 0 0 0-.71.511.511 0 0 0-.708 0l-3.182 3.19ZM495.5 1199v383h1v-383h-1ZM471 1606.5h-57v1h57v-1Zm24.5-24.5c0 13.53-10.969 24.5-24.5 24.5v1c14.083 0 25.5-11.42 25.5-25.5h-1Z"/>
  <path fill="#fff" stroke="#000" stroke-linecap="round" stroke-miterlimit="0" d="M127.969 1795.82a24.985 24.985 0 0 1 23.062 0l113.5 47c17.959 9.33 17.959 35.03 0 44.36l-113.5 47a24.985 24.985 0 0 1-23.062 0l-113.5-47c-17.959-9.33-17.959-35.03 0-44.36l113.5-47Z"/>
  <path fill="#000" d="m105.612 1838.27 7.341 20.82h.29l7.341-20.82h3.139l-9.079 24.73h-3.091l-9.08-24.73h3.139Zm24.933 25.16c-1.175 0-2.241-.22-3.199-.66a5.51 5.51 0 0 1-2.282-1.94c-.564-.86-.845-1.89-.845-3.09 0-1.07.209-1.93.627-2.59a4.43 4.43 0 0 1 1.679-1.57c.7-.38 1.473-.66 2.318-.84.853-.2 1.71-.35 2.572-.46 1.126-.15 2.04-.26 2.74-.33.709-.08 1.224-.21 1.546-.4.33-.18.495-.5.495-.96v-.1c0-1.19-.326-2.12-.978-2.78-.644-.66-1.622-.99-2.934-.99-1.36 0-2.427.3-3.2.9-.772.59-1.316 1.23-1.63 1.91l-2.704-.97c.483-1.13 1.127-2 1.932-2.63a7.187 7.187 0 0 1 2.656-1.33c.966-.26 1.916-.39 2.849-.39.596 0 1.28.08 2.053.22.781.14 1.533.42 2.258.86.732.43 1.34 1.09 1.823 1.97.483.87.724 2.05.724 3.52V1863h-2.849v-2.51h-.145c-.193.4-.515.83-.966 1.29-.451.46-1.05.85-1.799 1.17-.749.32-1.662.48-2.741.48Zm.435-2.55c1.127 0 2.077-.23 2.849-.67.781-.44 1.369-1.01 1.763-1.71.403-.7.604-1.44.604-2.21v-2.61c-.121.14-.387.28-.797.4-.402.11-.869.21-1.401.3-.523.08-1.034.15-1.533.22-.491.05-.889.1-1.195.14-.741.1-1.433.26-2.077.47-.636.21-1.151.53-1.545.96-.387.41-.58.99-.58 1.71 0 .99.366 1.74 1.099 2.25.74.5 1.678.75 2.813.75Zm15.742-22.61V1863h-2.85v-24.73h2.85Zm4.844 24.73v-18.55h2.85V1863h-2.85Zm1.449-21.64c-.555 0-1.034-.19-1.436-.56a1.838 1.838 0 0 1-.592-1.37c0-.53.197-.98.592-1.36a2.02 2.02 0 0 1 1.436-.57c.556 0 1.031.19 1.425.57.403.38.604.83.604 1.36 0 .53-.201.99-.604 1.37-.394.37-.869.56-1.425.56Zm13.249 22.03c-1.546 0-2.91-.39-4.093-1.17-1.184-.79-2.109-1.9-2.777-3.34-.668-1.44-1.002-3.14-1.002-5.1 0-1.95.334-3.64 1.002-5.08.668-1.43 1.597-2.53 2.789-3.32 1.191-.78 2.567-1.17 4.129-1.17 1.207 0 2.161.2 2.861.61.709.39 1.248.84 1.618 1.35.379.5.672.91.882 1.23h.241v-9.13h2.85V1863h-2.753v-2.85h-.338c-.21.34-.507.77-.894 1.28-.386.51-.937.96-1.654 1.36-.716.4-1.67.6-2.861.6Zm.386-2.56c1.143 0 2.109-.3 2.898-.9.789-.6 1.388-1.43 1.799-2.5.41-1.07.616-2.3.616-3.7 0-1.39-.202-2.6-.604-3.64-.403-1.04-.998-1.86-1.787-2.44-.789-.58-1.763-.88-2.922-.88-1.207 0-2.214.31-3.018.93-.797.61-1.397 1.45-1.799 2.5-.395 1.05-.592 2.22-.592 3.53 0 1.32.201 2.52.604 3.6.41 1.07 1.014 1.92 1.811 2.55.805.63 1.803.95 2.994.95Zm-58.362 12.62c-.144-1.22-.732-2.17-1.762-2.84-1.031-.68-2.294-1.02-3.791-1.02-1.095 0-2.053.18-2.874.53-.813.36-1.449.84-1.908 1.46a3.52 3.52 0 0 0-.676 2.12c0 .66.157 1.22.471 1.7.322.47.733.86 1.231 1.17.5.31 1.023.56 1.57.76.547.19 1.051.35 1.509.47l2.512.68c.644.17 1.36.4 2.149.7.797.3 1.557.7 2.282 1.22.732.5 1.336 1.16 1.811 1.95.475.8.712 1.78.712 2.94 0 1.33-.35 2.54-1.05 3.62-.692 1.08-1.707 1.93-3.043 2.57-1.328.64-2.942.95-4.841.95-1.771 0-3.305-.28-4.6-.85-1.288-.57-2.303-1.37-3.043-2.39-.733-1.03-1.147-2.21-1.244-3.57h3.091c.08.94.395 1.71.942 2.32.555.61 1.256 1.06 2.1 1.36.854.29 1.772.43 2.754.43 1.143 0 2.169-.19 3.078-.56.91-.37 1.63-.9 2.162-1.56.531-.68.797-1.47.797-2.37 0-.82-.23-1.49-.689-2.01-.458-.51-1.062-.93-1.811-1.25a19.04 19.04 0 0 0-2.427-.85l-3.042-.87c-1.932-.55-3.461-1.34-4.588-2.37-1.127-1.03-1.69-2.38-1.69-4.05 0-1.38.374-2.59 1.122-3.62.757-1.04 1.771-1.84 3.043-2.42 1.28-.58 2.708-.87 4.286-.87 1.594 0 3.011.29 4.25.86 1.24.57 2.222 1.34 2.946 2.32a5.77 5.77 0 0 1 1.159 3.34h-2.898Zm14.933 18.94c-1.739 0-3.236-.41-4.491-1.24-1.256-.82-2.222-1.95-2.898-3.39-.676-1.44-1.014-3.08-1.014-4.94 0-1.88.346-3.54 1.038-4.98.7-1.45 1.674-2.58 2.922-3.4 1.256-.82 2.721-1.23 4.395-1.23 1.304 0 2.479.24 3.525.73a6.716 6.716 0 0 1 2.572 2.03c.668.87 1.083 1.88 1.244 3.04h-2.85c-.217-.85-.7-1.6-1.449-2.25-.74-.66-1.738-.99-2.994-.99-1.111 0-2.085.29-2.922.87-.829.57-1.477 1.38-1.944 2.43-.458 1.04-.688 2.26-.688 3.66 0 1.43.226 2.68.676 3.74.459 1.06 1.103 1.89 1.932 2.48.837.58 1.819.88 2.946.88.741 0 1.413-.13 2.016-.39a4.222 4.222 0 0 0 1.534-1.11c.418-.48.716-1.06.893-1.74h2.85a6.596 6.596 0 0 1-1.196 2.96c-.627.87-1.461 1.56-2.499 2.08-1.03.5-2.23.76-3.598.76Zm16.542.04c-1.176 0-2.242-.22-3.2-.66a5.517 5.517 0 0 1-2.282-1.94c-.563-.86-.845-1.89-.845-3.09 0-1.07.209-1.93.628-2.59.418-.67.978-1.19 1.678-1.57.7-.38 1.473-.66 2.318-.84a25.3 25.3 0 0 1 2.572-.46c1.127-.15 2.04-.26 2.741-.33.708-.08 1.223-.21 1.545-.4.33-.18.495-.5.495-.96v-.1c0-1.19-.326-2.12-.978-2.78-.644-.66-1.622-.99-2.934-.99-1.36 0-2.427.3-3.199.9-.773.59-1.316 1.23-1.63 1.91l-2.705-.97c.483-1.13 1.127-2 1.932-2.63a7.187 7.187 0 0 1 2.656-1.33c.966-.26 1.916-.39 2.85-.39.595 0 1.279.08 2.052.22.781.14 1.534.42 2.258.86.733.43 1.34 1.09 1.823 1.97.483.87.725 2.05.725 3.52V1892h-2.85v-2.51h-.145c-.193.4-.515.83-.966 1.29-.45.46-1.05.85-1.799 1.17-.748.32-1.662.48-2.74.48Zm.434-2.55c1.127 0 2.077-.23 2.85-.67.78-.44 1.368-1.01 1.762-1.71.403-.7.604-1.44.604-2.21v-2.61c-.121.14-.386.28-.797.4-.402.11-.869.21-1.4.3-.523.08-1.035.15-1.534.22-.491.05-.889.1-1.195.14-.74.1-1.433.26-2.077.47-.636.21-1.151.53-1.545.96-.386.41-.58.99-.58 1.71 0 .99.367 1.74 1.099 2.25.741.5 1.678.75 2.813.75Zm15.742-9.04V1892h-2.85v-18.55h2.753v2.9h.242a5.29 5.29 0 0 1 1.98-2.27c.885-.58 2.028-.87 3.429-.87 1.256 0 2.354.26 3.296.78.942.5 1.674 1.28 2.197 2.31.524 1.03.785 2.34.785 3.92V1892h-2.849v-11.59c0-1.46-.379-2.59-1.135-3.41-.757-.82-1.795-1.23-3.115-1.23-.91 0-1.723.2-2.439.59-.708.4-1.268.97-1.678 1.73-.411.76-.616 1.68-.616 2.75Zm20.384 4.21v-.15c.016-1.54.177-2.76.483-3.67.306-.91.74-1.65 1.304-2.21.563-.56 1.239-1.08 2.028-1.56.475-.29.902-.63 1.28-1.02.378-.41.676-.87.893-1.39.226-.52.339-1.1.339-1.74 0-.79-.186-1.47-.556-2.05a3.694 3.694 0 0 0-1.485-1.34c-.62-.32-1.308-.47-2.065-.47-.66 0-1.295.13-1.907.41-.612.27-1.123.7-1.534 1.29-.41.59-.648 1.35-.712 2.3h-3.043c.065-1.36.419-2.53 1.063-3.51a6.378 6.378 0 0 1 2.572-2.23c1.07-.52 2.257-.78 3.561-.78 1.417 0 2.649.29 3.695.85a6.052 6.052 0 0 1 2.439 2.32c.58.98.869 2.1.869 3.35 0 .89-.137 1.69-.41 2.41a6.068 6.068 0 0 1-1.159 1.92 7.9 7.9 0 0 1-1.811 1.49c-.709.45-1.276.91-1.703 1.4a4.494 4.494 0 0 0-.93 1.73c-.193.67-.297 1.5-.313 2.5v.15h-2.898Zm1.545 7.14a2.08 2.08 0 0 1-1.533-.64c-.427-.42-.64-.93-.64-1.53s.213-1.11.64-1.53a2.08 2.08 0 0 1 1.533-.64c.596 0 1.107.21 1.534.64.426.42.64.93.64 1.53 0 .39-.101.76-.302 1.09-.193.33-.455.59-.785.79-.322.2-.684.29-1.087.29ZM306.5 1715c0-.28-.224-.5-.5-.5s-.5.22-.5.5h1Zm-167.354 74.35c.196.2.512.2.708 0l3.182-3.18a.504.504 0 0 0 0-.71.511.511 0 0 0-.708 0l-2.828 2.83-2.828-2.83a.511.511 0 0 0-.708 0 .504.504 0 0 0 0 .71l3.182 3.18ZM305.5 1715v12h1v-12h-1Zm-24.5 36.5H164.5v1H281v-1ZM139 1777v12h1v-12h-1Zm25.5-25.5c-14.083 0-25.5 11.42-25.5 25.5h1c0-13.53 10.969-24.5 24.5-24.5v-1Zm141-24.5c0 13.53-10.969 24.5-24.5 24.5v1c14.083 0 25.5-11.42 25.5-25.5h-1Z"/>
  <rect width="208" height="208" x="402" y="1761" fill="#fff" stroke="#000" stroke-linecap="round" stroke-miterlimit="0" rx="25"/>
  <path fill="#000" d="M451.359 1877.5v-24.73h8.355c1.932 0 3.518.33 4.757.99 1.24.65 2.157 1.55 2.753 2.7.596 1.14.894 2.44.894 3.9 0 1.45-.298 2.74-.894 3.87-.596 1.13-1.509 2.01-2.741 2.66-1.231.63-2.805.95-4.721.95h-6.761v-2.7h6.665c1.32 0 2.382-.2 3.187-.58.813-.39 1.401-.94 1.763-1.65.37-.71.556-1.56.556-2.55 0-.99-.186-1.86-.556-2.6-.37-.74-.962-1.31-1.775-1.72-.813-.41-1.887-.61-3.223-.61h-5.265v22.07h-2.994Zm11.639-11.11 6.085 11.11h-3.477l-5.988-11.11h3.38Zm16.925 11.5c-1.787 0-3.328-.4-4.624-1.19-1.288-.79-2.282-1.9-2.982-3.33-.693-1.43-1.039-3.1-1.039-5s.346-3.57 1.039-5.02c.7-1.46 1.674-2.59 2.921-3.41 1.256-.82 2.721-1.23 4.395-1.23.966 0 1.92.16 2.862.49a6.99 6.99 0 0 1 2.572 1.57c.772.71 1.388 1.66 1.847 2.85.459 1.18.688 2.64.688 4.37v1.2h-14.295v-2.46h11.397c0-1.05-.209-1.98-.628-2.8a4.696 4.696 0 0 0-1.762-1.94c-.757-.48-1.65-.72-2.681-.72-1.135 0-2.117.28-2.946.85a5.53 5.53 0 0 0-1.895 2.17 6.362 6.362 0 0 0-.664 2.87v1.65c0 1.4.241 2.58.724 3.56.491.96 1.171 1.7 2.04 2.21.87.5 1.88.75 3.031.75.749 0 1.425-.11 2.028-.32a4.321 4.321 0 0 0 1.582-.96c.443-.44.785-.98 1.026-1.62l2.753.77c-.29.94-.777 1.76-1.461 2.46-.684.71-1.529 1.25-2.535 1.65-1.006.38-2.137.58-3.393.58Zm24.776-14.78-2.56.72a4.8 4.8 0 0 0-.712-1.24c-.306-.41-.725-.75-1.256-1.02-.531-.26-1.211-.39-2.04-.39-1.135 0-2.081.26-2.838.78-.748.52-1.123 1.17-1.123 1.97 0 .71.258 1.27.773 1.68.515.41 1.32.75 2.415 1.02l2.753.68c1.658.4 2.894 1.02 3.707 1.85.812.82 1.219 1.88 1.219 3.17a4.72 4.72 0 0 1-.918 2.85c-.603.84-1.449 1.5-2.535 1.98-1.087.48-2.351.73-3.791.73-1.892 0-3.458-.41-4.697-1.24-1.24-.82-2.024-2.02-2.354-3.59l2.704-.68c.258 1 .745 1.75 1.461 2.25.724.5 1.67.75 2.837.75 1.328 0 2.383-.29 3.164-.85.789-.57 1.183-1.26 1.183-2.05 0-.65-.225-1.19-.676-1.62-.451-.44-1.143-.77-2.077-.99l-3.091-.73c-1.698-.4-2.946-1.02-3.743-1.87-.789-.85-1.183-1.92-1.183-3.2 0-1.04.294-1.97.881-2.77.596-.81 1.405-1.44 2.427-1.9 1.031-.46 2.198-.69 3.502-.69 1.835 0 3.276.41 4.322 1.21 1.055.81 1.803 1.87 2.246 3.19Zm11.787 14.78c-1.738 0-3.235-.41-4.491-1.24-1.256-.82-2.222-1.95-2.898-3.39-.676-1.44-1.014-3.08-1.014-4.94 0-1.88.346-3.54 1.038-4.98.701-1.45 1.674-2.58 2.922-3.4 1.256-.82 2.721-1.23 4.395-1.23 1.304 0 2.479.24 3.526.73a6.72 6.72 0 0 1 2.571 2.03c.668.87 1.083 1.88 1.244 3.04h-2.85c-.217-.85-.7-1.6-1.448-2.25-.741-.66-1.739-.99-2.995-.99-1.11 0-2.084.29-2.922.87-.829.57-1.477 1.38-1.943 2.43-.459 1.04-.689 2.26-.689 3.66 0 1.43.226 2.68.676 3.74.459 1.06 1.103 1.89 1.932 2.48.837.58 1.819.88 2.946.88.741 0 1.413-.13 2.017-.39a4.227 4.227 0 0 0 1.533-1.11c.419-.48.716-1.06.893-1.74h2.85a6.606 6.606 0 0 1-1.195 2.96c-.628.87-1.461 1.56-2.5 2.08-1.03.5-2.229.76-3.598.76Zm16.542.04c-1.175 0-2.242-.22-3.2-.66a5.517 5.517 0 0 1-2.282-1.94c-.563-.86-.845-1.89-.845-3.09 0-1.07.209-1.93.628-2.59.418-.67.978-1.19 1.678-1.57.7-.38 1.473-.66 2.318-.84.854-.2 1.711-.35 2.572-.46 1.127-.15 2.041-.26 2.741-.33.708-.08 1.223-.21 1.545-.4.33-.18.495-.5.495-.96v-.1c0-1.19-.326-2.12-.978-2.78-.644-.66-1.622-.99-2.934-.99-1.36 0-2.426.3-3.199.9-.773.59-1.316 1.23-1.63 1.91l-2.705-.97c.483-1.13 1.127-2 1.932-2.63a7.194 7.194 0 0 1 2.656-1.33c.966-.26 1.916-.39 2.85-.39.595 0 1.28.08 2.052.22.781.14 1.534.42 2.258.86.733.43 1.34 1.09 1.823 1.97.483.87.725 2.05.725 3.52v12.22h-2.85v-2.51h-.145c-.193.4-.515.83-.965 1.29-.451.46-1.051.85-1.799 1.17-.749.32-1.663.48-2.741.48Zm.434-2.55c1.127 0 2.077-.23 2.85-.67.781-.44 1.368-1.01 1.763-1.71.402-.7.603-1.44.603-2.21v-2.61c-.12.14-.386.28-.797.4-.402.11-.869.21-1.4.3-.523.08-1.034.15-1.533.22-.491.05-.89.1-1.196.14-.74.1-1.433.26-2.076.47-.636.21-1.152.53-1.546.96-.386.41-.579.99-.579 1.71 0 .99.366 1.74 1.098 2.25.741.5 1.678.75 2.813.75Zm15.742-9.04v11.16h-2.849v-18.55h2.752v2.9h.242a5.303 5.303 0 0 1 1.98-2.27c.885-.58 2.028-.87 3.429-.87 1.256 0 2.354.26 3.296.78.942.5 1.674 1.28 2.198 2.31.523 1.03.784 2.34.784 3.92v11.78h-2.849v-11.59c0-1.46-.378-2.59-1.135-3.41-.757-.82-1.795-1.23-3.115-1.23-.91 0-1.723.2-2.439.59-.708.4-1.268.97-1.678 1.73-.411.76-.616 1.68-.616 2.75ZM282 1864.5c-.276 0-.5.22-.5.5s.224.5.5.5v-1Zm42 1c.276 0 .5-.22.5-.5s-.224-.5-.5-.5v1Zm32-1c-.276 0-.5.22-.5.5s.224.5.5.5v-1Zm42.354.85a.492.492 0 0 0 0-.7l-3.182-3.19a.511.511 0 0 0-.708 0 .504.504 0 0 0 0 .71l2.829 2.83-2.829 2.83a.504.504 0 0 0 0 .71c.196.19.512.19.708 0l3.182-3.19ZM282 1865.5h42v-1h-42v1Zm74 0h42v-1h-42v1Zm-10.531-7.09v13.09h-2.39l-5.696-8.24h-.096v8.24h-2.767v-13.09h2.429l5.65 8.23h.115v-8.23h2.755ZM505.5 1757c0 .28.224.5.5.5s.5-.22.5-.5h-1Zm-91.854-150.35a.492.492 0 0 0 0 .7l3.182 3.19c.196.19.512.19.708 0a.504.504 0 0 0 0-.71l-2.829-2.83 2.829-2.83a.504.504 0 0 0 0-.71.511.511 0 0 0-.708 0l-3.182 3.19ZM506.5 1757v-125h-1v125h1ZM481 1606.5h-67v1h67v-1Zm25.5 25.5c0-14.08-11.417-25.5-25.5-25.5v1c13.531 0 24.5 10.97 24.5 24.5h1Z"/>
  <rect width="208" height="208" x="202" y="2019" fill="#fff" stroke="#000" stroke-linecap="round" stroke-miterlimit="0" rx="25"/>
  <path fill="#000" d="M238.171 2116.95c-.145-1.22-.733-2.17-1.763-2.84-1.03-.68-2.294-1.02-3.791-1.02-1.095 0-2.053.18-2.874.53-.813.36-1.449.84-1.907 1.46a3.52 3.52 0 0 0-.677 2.12c0 .66.157 1.22.471 1.7.322.47.733.86 1.232 1.17a8.47 8.47 0 0 0 1.569.76c.548.19 1.051.35 1.51.47l2.511.68c.644.17 1.36.4 2.149.7.797.3 1.558.7 2.282 1.22.733.5 1.336 1.16 1.811 1.95.475.8.713 1.78.713 2.94 0 1.33-.351 2.54-1.051 3.62-.692 1.08-1.706 1.93-3.042 2.57-1.329.64-2.942.95-4.842.95-1.771 0-3.304-.28-4.6-.85-1.288-.57-2.302-1.37-3.043-2.39-.732-1.03-1.147-2.21-1.243-3.57h3.09c.081.94.395 1.71.942 2.32.556.61 1.256 1.06 2.101 1.36.853.29 1.771.43 2.753.43 1.143 0 2.169-.19 3.079-.56.909-.37 1.63-.9 2.161-1.56.531-.68.797-1.47.797-2.37 0-.82-.23-1.49-.688-2.01-.459-.51-1.063-.93-1.811-1.25-.749-.32-1.558-.61-2.427-.85l-3.043-.87c-1.932-.55-3.461-1.34-4.588-2.37-1.127-1.03-1.69-2.38-1.69-4.05 0-1.38.374-2.59 1.123-3.62.756-1.04 1.77-1.84 3.042-2.42 1.28-.58 2.709-.87 4.286-.87 1.594 0 3.011.29 4.25.86 1.24.57 2.222 1.34 2.946 2.32a5.77 5.77 0 0 1 1.159 3.34h-2.897Zm10.248 7.39v11.16h-2.85v-24.73h2.85v9.08h.241a5.21 5.21 0 0 1 1.956-2.28c.878-.57 2.045-.86 3.502-.86 1.263 0 2.37.26 3.32.76.95.5 1.686 1.27 2.209 2.31.532 1.03.797 2.34.797 3.94v11.78h-2.849v-11.59c0-1.47-.382-2.61-1.147-3.42-.757-.81-1.807-1.22-3.151-1.22-.934 0-1.771.2-2.512.59-.732.4-1.312.97-1.738 1.73-.419.76-.628 1.68-.628 2.75Zm22.322 11.59c-1.176 0-2.242-.22-3.2-.66a5.51 5.51 0 0 1-2.282-1.94c-.563-.86-.845-1.89-.845-3.09 0-1.07.209-1.93.628-2.59.418-.67.978-1.19 1.678-1.57.7-.38 1.473-.66 2.318-.84a25.3 25.3 0 0 1 2.572-.46c1.127-.15 2.04-.26 2.741-.33.708-.08 1.223-.21 1.545-.4.33-.18.495-.5.495-.96v-.1c0-1.19-.326-2.12-.978-2.78-.644-.66-1.622-.99-2.934-.99-1.36 0-2.427.3-3.199.9-.773.59-1.316 1.23-1.63 1.91l-2.705-.97c.483-1.13 1.127-2 1.932-2.63a7.187 7.187 0 0 1 2.656-1.33c.966-.26 1.916-.39 2.85-.39.595 0 1.279.08 2.052.22.781.14 1.534.42 2.258.86.732.43 1.34 1.09 1.823 1.97.483.87.725 2.05.725 3.52v12.22h-2.85v-2.51h-.145c-.193.4-.515.83-.966 1.29-.45.46-1.05.85-1.799 1.17-.748.32-1.662.48-2.74.48Zm.434-2.55c1.127 0 2.077-.23 2.85-.67.78-.44 1.368-1.01 1.762-1.71.403-.7.604-1.44.604-2.21v-2.61c-.121.14-.386.28-.797.4-.402.11-.869.21-1.4.3-.524.08-1.035.15-1.534.22-.491.05-.889.1-1.195.14-.741.1-1.433.26-2.077.47-.636.21-1.151.53-1.545.96-.387.41-.58.99-.58 1.71 0 .99.367 1.74 1.099 2.25.741.5 1.678.75 2.813.75Zm19.895 2.51c-1.545 0-2.91-.39-4.093-1.17-1.183-.79-2.109-1.9-2.777-3.34-.668-1.44-1.002-3.14-1.002-5.1 0-1.95.334-3.64 1.002-5.08.668-1.43 1.598-2.53 2.789-3.32 1.192-.78 2.568-1.17 4.13-1.17 1.207 0 2.161.2 2.861.61.708.39 1.248.84 1.618 1.35.378.5.672.91.881 1.23h.242v-9.13h2.849v24.73h-2.753v-2.85h-.338c-.209.34-.507.77-.893 1.28-.387.51-.938.96-1.654 1.36-.717.4-1.67.6-2.862.6Zm.387-2.56c1.143 0 2.108-.3 2.897-.9.789-.6 1.389-1.43 1.799-2.5.411-1.07.616-2.3.616-3.7 0-1.39-.201-2.6-.604-3.64-.402-1.04-.998-1.86-1.787-2.44-.788-.58-1.762-.88-2.921-.88-1.208 0-2.214.31-3.019.93-.797.61-1.396 1.45-1.799 2.5-.394 1.05-.591 2.22-.591 3.53 0 1.32.201 2.52.603 3.6.411 1.07 1.014 1.92 1.811 2.55.805.63 1.803.95 2.995.95Zm21.129 2.56c-1.787 0-3.328-.4-4.624-1.19-1.288-.79-2.282-1.9-2.982-3.33-.693-1.43-1.039-3.1-1.039-5s.346-3.57 1.039-5.02c.7-1.46 1.674-2.59 2.921-3.41 1.256-.82 2.721-1.23 4.395-1.23.966 0 1.92.16 2.862.49a6.99 6.99 0 0 1 2.572 1.57c.772.71 1.388 1.66 1.847 2.85.459 1.18.688 2.64.688 4.37v1.2H305.97v-2.46h11.397c0-1.05-.209-1.98-.627-2.8a4.705 4.705 0 0 0-1.763-1.94c-.757-.48-1.65-.72-2.681-.72-1.135 0-2.117.28-2.946.85a5.53 5.53 0 0 0-1.895 2.17 6.362 6.362 0 0 0-.664 2.87v1.65c0 1.4.241 2.58.724 3.56.491.96 1.171 1.7 2.041 2.21.869.5 1.879.75 3.03.75.749 0 1.425-.11 2.029-.32a4.317 4.317 0 0 0 1.581-.96 4.48 4.48 0 0 0 1.027-1.62l2.752.77a5.98 5.98 0 0 1-1.461 2.46c-.684.71-1.529 1.25-2.535 1.65-1.006.38-2.137.58-3.393.58Zm24.209-25.12v24.73h-2.994v-24.73h2.994Zm8.093 13.57v11.16h-2.85v-18.55h2.753v2.9h.242a5.29 5.29 0 0 1 1.98-2.27c.885-.58 2.028-.87 3.429-.87 1.255 0 2.354.26 3.296.78.942.5 1.674 1.28 2.197 2.31.523 1.03.785 2.34.785 3.92v11.78h-2.849v-11.59c0-1.46-.379-2.59-1.135-3.41-.757-.82-1.795-1.23-3.115-1.23-.91 0-1.723.2-2.439.59-.709.4-1.268.97-1.679 1.73-.41.76-.615 1.68-.615 2.75Zm24.923-7.39v2.42h-9.997v-2.42h9.997Zm-7.002 18.55v-21.11c0-1.06.249-1.94.748-2.65a4.684 4.684 0 0 1 1.944-1.6 6.211 6.211 0 0 1 2.523-.53c.701 0 1.272.06 1.715.17.443.12.773.22.99.32l-.821 2.46a9.92 9.92 0 0 0-.604-.18c-.249-.07-.579-.11-.99-.11-.942 0-1.622.24-2.04.71-.411.48-.616 1.17-.616 2.09v20.43h-2.849Zm17.392.39c-1.674 0-3.143-.4-4.407-1.2-1.255-.8-2.237-1.91-2.946-3.34-.7-1.44-1.05-3.11-1.05-5.03 0-1.93.35-3.61 1.05-5.06.709-1.44 1.691-2.55 2.946-3.35 1.264-.8 2.733-1.2 4.407-1.2s3.139.4 4.395 1.2c1.264.8 2.246 1.91 2.946 3.35.708 1.45 1.063 3.13 1.063 5.06 0 1.92-.355 3.59-1.063 5.03-.7 1.43-1.682 2.54-2.946 3.34-1.256.8-2.721 1.2-4.395 1.2Zm0-2.56c1.272 0 2.318-.33 3.139-.98.821-.65 1.429-1.51 1.824-2.57.394-1.07.591-2.22.591-3.46 0-1.24-.197-2.39-.591-3.46-.395-1.07-1.003-1.94-1.824-2.6-.821-.66-1.867-.99-3.139-.99-1.272 0-2.318.33-3.139.99-.821.66-1.429 1.53-1.823 2.6-.395 1.07-.592 2.22-.592 3.46 0 1.24.197 2.39.592 3.46.394 1.06 1.002 1.92 1.823 2.57.821.65 1.867.98 3.139.98ZM140 1941c0-.28-.224-.5-.5-.5s-.5.22-.5.5h1Zm66.75 37.5c.276 0 .5-.22.5-.5s-.224-.5-.5-.5v1Zm32-1c-.276 0-.5.22-.5.5s.224.5.5.5v-1Zm66.896 37.85c.196.2.512.2.708 0l3.182-3.18a.504.504 0 0 0 0-.71.511.511 0 0 0-.708 0l-2.828 2.83-2.828-2.83a.511.511 0 0 0-.708 0 .504.504 0 0 0 0 .71l3.182 3.18ZM139 1941v12h1v-12h-1Zm25.5 37.5h42.25v-1H164.5v1Zm74.25 0H281v-1h-42.25v1Zm66.75 24.5v12h1v-12h-1Zm-24.5-24.5c13.531 0 24.5 10.97 24.5 24.5h1c0-14.08-11.417-25.5-25.5-25.5v1ZM139 1953c0 14.08 11.417 25.5 25.5 25.5v-1c-13.531 0-24.5-10.97-24.5-24.5h-1Zm77.599 18.41h3.1l2.985 5.64h.128l2.985-5.64h3.101l-4.775 8.46v4.63h-2.749v-4.63l-4.775-8.46Z"/>
  <rect width="240" height="208" x="186" y="2277" fill="#fff" stroke="#000" stroke-linecap="round" stroke-miterlimit="0" rx="25"/>
  <path fill="#000" d="M214.343 2393.5v-24.73h8.355c1.94 0 3.526.35 4.757 1.05 1.24.7 2.157 1.63 2.753 2.82.596 1.18.893 2.5.893 3.96 0 1.45-.297 2.78-.893 3.97-.588 1.19-1.497 2.14-2.729 2.85-1.231.7-2.809 1.05-4.733 1.05h-5.988v-2.66h5.892c1.328 0 2.394-.23 3.199-.69.805-.45 1.389-1.07 1.751-1.86.37-.78.555-1.67.555-2.66 0-.99-.185-1.88-.555-2.66-.362-.78-.95-1.39-1.763-1.83-.813-.46-1.891-.68-3.236-.68h-5.264v22.07h-2.994Zm20.822 0v-18.55h2.752v2.81h.194c.338-.92.949-1.67 1.835-2.24.885-.57 1.883-.86 2.994-.86.209 0 .471.01.785.02.314 0 .551.02.712.03v2.9c-.096-.02-.318-.06-.664-.11a7.323 7.323 0 0 0-1.074-.08c-.902 0-1.707.19-2.415.57-.7.37-1.256.88-1.666 1.54-.403.65-.604 1.4-.604 2.23v11.74h-2.849Zm19.487.39c-1.787 0-3.328-.4-4.624-1.19-1.288-.79-2.282-1.9-2.983-3.33-.692-1.43-1.038-3.1-1.038-5s.346-3.57 1.038-5.02c.701-1.46 1.675-2.59 2.922-3.41 1.256-.82 2.721-1.23 4.395-1.23.966 0 1.92.16 2.862.49.942.32 1.799.84 2.571 1.57.773.71 1.389 1.66 1.848 2.85.459 1.18.688 2.64.688 4.37v1.2h-14.295v-2.46h11.397c0-1.05-.209-1.98-.628-2.8a4.696 4.696 0 0 0-1.762-1.94c-.757-.48-1.65-.72-2.681-.72-1.135 0-2.117.28-2.946.85a5.53 5.53 0 0 0-1.895 2.17 6.362 6.362 0 0 0-.664 2.87v1.65c0 1.4.241 2.58.724 3.56.491.96 1.171 1.7 2.04 2.21.87.5 1.88.75 3.031.75.749 0 1.425-.11 2.028-.32a4.321 4.321 0 0 0 1.582-.96c.443-.44.785-.98 1.026-1.62l2.753.77c-.29.94-.777 1.76-1.461 2.46-.684.71-1.529 1.25-2.535 1.65-1.006.38-2.137.58-3.393.58Zm19.898-18.94v2.42h-9.997v-2.42h9.997Zm-7.003 18.55v-21.11c0-1.06.25-1.94.749-2.65a4.684 4.684 0 0 1 1.944-1.6 6.211 6.211 0 0 1 2.523-.53c.7 0 1.272.06 1.715.17.442.12.772.22.99.32l-.821 2.46c-.145-.05-.347-.11-.604-.18-.25-.07-.58-.11-.99-.11-.942 0-1.622.24-2.041.71-.41.48-.615 1.17-.615 2.09v20.43h-2.85Zm17.634.39c-1.787 0-3.328-.4-4.624-1.19-1.288-.79-2.282-1.9-2.982-3.33-.692-1.43-1.039-3.1-1.039-5s.347-3.57 1.039-5.02c.7-1.46 1.674-2.59 2.922-3.41 1.255-.82 2.72-1.23 4.395-1.23.965 0 1.919.16 2.861.49a6.99 6.99 0 0 1 2.572 1.57c.773.71 1.388 1.66 1.847 2.85.459 1.18.688 2.64.688 4.37v1.2h-14.295v-2.46h11.398c0-1.05-.21-1.98-.628-2.8a4.698 4.698 0 0 0-1.763-1.94c-.757-.48-1.65-.72-2.68-.72-1.135 0-2.117.28-2.946.85a5.54 5.54 0 0 0-1.896 2.17 6.362 6.362 0 0 0-.664 2.87v1.65c0 1.4.241 2.58.724 3.56.491.96 1.172 1.7 2.041 2.21.869.5 1.879.75 3.03.75.749 0 1.425-.11 2.029-.32a4.309 4.309 0 0 0 1.581-.96 4.48 4.48 0 0 0 1.027-1.62l2.753.77c-.29.94-.777 1.76-1.461 2.46-.685.71-1.53 1.25-2.536 1.65-1.006.38-2.137.58-3.393.58Zm11.64-.39v-18.55h2.753v2.81h.193c.338-.92.95-1.67 1.835-2.24.886-.57 1.884-.86 2.994-.86.21 0 .471.01.785.02.314 0 .552.02.713.03v2.9c-.097-.02-.318-.06-.664-.11a7.348 7.348 0 0 0-1.075-.08c-.902 0-1.707.19-2.415.57-.7.37-1.256.88-1.666 1.54-.402.65-.604 1.4-.604 2.23v11.74h-2.849Zm19.487.39c-1.787 0-3.328-.4-4.624-1.19-1.288-.79-2.282-1.9-2.982-3.33-.692-1.43-1.039-3.1-1.039-5s.347-3.57 1.039-5.02c.7-1.46 1.674-2.59 2.922-3.41 1.255-.82 2.72-1.23 4.395-1.23.965 0 1.919.16 2.861.49a6.99 6.99 0 0 1 2.572 1.57c.773.71 1.388 1.66 1.847 2.85.459 1.18.688 2.64.688 4.37v1.2h-14.295v-2.46h11.398c0-1.05-.21-1.98-.628-2.8a4.698 4.698 0 0 0-1.763-1.94c-.757-.48-1.65-.72-2.68-.72-1.135 0-2.117.28-2.946.85a5.54 5.54 0 0 0-1.896 2.17 6.362 6.362 0 0 0-.664 2.87v1.65c0 1.4.241 2.58.724 3.56.491.96 1.171 1.7 2.041 2.21.869.5 1.879.75 3.03.75.749 0 1.425-.11 2.029-.32a4.309 4.309 0 0 0 1.581-.96 4.48 4.48 0 0 0 1.027-1.62l2.753.77c-.29.94-.777 1.76-1.461 2.46-.685.71-1.53 1.25-2.536 1.65-1.006.38-2.137.58-3.393.58Zm14.489-11.55v11.16h-2.849v-18.55h2.753v2.9h.241a5.303 5.303 0 0 1 1.98-2.27c.886-.58 2.029-.87 3.429-.87 1.256 0 2.355.26 3.296.78.942.5 1.675 1.28 2.198 2.31.523 1.03.785 2.34.785 3.92v11.78h-2.85v-11.59c0-1.46-.378-2.59-1.135-3.41-.756-.82-1.795-1.23-3.115-1.23-.909 0-1.722.2-2.439.59a4.26 4.26 0 0 0-1.678 1.73c-.41.76-.616 1.68-.616 2.75Zm24.2 11.55c-1.739 0-3.236-.41-4.492-1.24-1.256-.82-2.221-1.95-2.898-3.39-.676-1.44-1.014-3.08-1.014-4.94 0-1.88.346-3.54 1.039-4.98.7-1.45 1.674-2.58 2.921-3.4 1.256-.82 2.721-1.23 4.395-1.23 1.304 0 2.479.24 3.526.73a6.724 6.724 0 0 1 2.572 2.03c.668.87 1.082 1.88 1.243 3.04h-2.849c-.218-.85-.701-1.6-1.449-2.25-.741-.66-1.739-.99-2.994-.99-1.111 0-2.085.29-2.922.87-.829.57-1.477 1.38-1.944 2.43-.459 1.04-.688 2.26-.688 3.66 0 1.43.225 2.68.676 3.74.459 1.06 1.103 1.89 1.932 2.48.837.58 1.819.88 2.946.88.74 0 1.412-.13 2.016-.39a4.21 4.21 0 0 0 1.533-1.11c.419-.48.717-1.06.894-1.74h2.849a6.594 6.594 0 0 1-1.195 2.96c-.628.87-1.461 1.56-2.499 2.08-1.031.5-2.23.76-3.598.76Zm18.859 0c-1.787 0-3.328-.4-4.624-1.19-1.288-.79-2.282-1.9-2.982-3.33-.692-1.43-1.039-3.1-1.039-5s.347-3.57 1.039-5.02c.7-1.46 1.674-2.59 2.922-3.41 1.255-.82 2.72-1.23 4.394-1.23.966 0 1.92.16 2.862.49a6.99 6.99 0 0 1 2.572 1.57c.772.71 1.388 1.66 1.847 2.85.459 1.18.688 2.64.688 4.37v1.2H367.24v-2.46h11.398c0-1.05-.21-1.98-.628-2.8a4.698 4.698 0 0 0-1.763-1.94c-.757-.48-1.65-.72-2.681-.72-1.134 0-2.116.28-2.946.85a5.538 5.538 0 0 0-1.895 2.17 6.362 6.362 0 0 0-.664 2.87v1.65c0 1.4.241 2.58.724 3.56.491.96 1.171 1.7 2.041 2.21.869.5 1.879.75 3.03.75.749 0 1.425-.11 2.029-.32a4.317 4.317 0 0 0 1.581-.96 4.48 4.48 0 0 0 1.027-1.62l2.752.77a5.989 5.989 0 0 1-1.46 2.46c-.685.71-1.53 1.25-2.536 1.65-1.006.38-2.137.58-3.393.58Zm24.776-14.78-2.56.72a4.8 4.8 0 0 0-.712-1.24c-.306-.41-.724-.75-1.256-1.02-.531-.26-1.211-.39-2.04-.39-1.135 0-2.081.26-2.837.78-.749.52-1.123 1.17-1.123 1.97 0 .71.257 1.27.772 1.68.516.41 1.321.75 2.415 1.02l2.753.68c1.658.4 2.894 1.02 3.707 1.85.813.82 1.219 1.88 1.219 3.17 0 1.06-.306 2.01-.917 2.85-.604.84-1.449 1.5-2.536 1.98s-2.35.73-3.791.73c-1.892 0-3.457-.41-4.697-1.24-1.239-.82-2.024-2.02-2.354-3.59l2.704-.68c.258 1 .745 1.75 1.461 2.25.725.5 1.67.75 2.838.75 1.328 0 2.382-.29 3.163-.85.789-.57 1.183-1.26 1.183-2.05 0-.65-.225-1.19-.676-1.62-.451-.44-1.143-.77-2.077-.99l-3.091-.73c-1.698-.4-2.946-1.02-3.742-1.87-.789-.85-1.184-1.92-1.184-3.2 0-1.04.294-1.97.882-2.77.595-.81 1.404-1.44 2.427-1.9 1.03-.46 2.197-.69 3.501-.69 1.835 0 3.276.41 4.322 1.21 1.055.81 1.803 1.87 2.246 3.19ZM306.5 2231c0-.28-.224-.5-.5-.5s-.5.22-.5.5h1Zm-.854 42.35c.196.2.512.2.708 0l3.182-3.18a.504.504 0 0 0 0-.71.511.511 0 0 0-.708 0l-2.828 2.83-2.828-2.83a.511.511 0 0 0-.708 0 .504.504 0 0 0 0 .71l3.182 3.18ZM305.5 2231v42h1v-42h-1Z"/>
  <rect width="368" height="208" x="122" y="2535" fill="#fff" stroke="#000" stroke-linecap="round" stroke-miterlimit="0" rx="25"/>
  <path fill="#000" d="M162.597 2651.5v-24.73h8.355c1.932 0 3.517.33 4.757.99 1.239.65 2.157 1.55 2.753 2.7.595 1.14.893 2.44.893 3.9 0 1.45-.298 2.74-.893 3.87-.596 1.13-1.509 2.01-2.741 2.66-1.232.63-2.805.95-4.721.95h-6.761v-2.7h6.665c1.32 0 2.382-.2 3.187-.58.813-.39 1.401-.94 1.763-1.65.37-.71.555-1.56.555-2.55 0-.99-.185-1.86-.555-2.6-.37-.74-.962-1.31-1.775-1.72-.813-.41-1.888-.61-3.224-.61h-5.264v22.07h-2.994Zm11.639-11.11 6.085 11.11h-3.477l-5.989-11.11h3.381Zm16.925 11.5c-1.787 0-3.329-.4-4.625-1.19-1.287-.79-2.282-1.9-2.982-3.33-.692-1.43-1.038-3.1-1.038-5s.346-3.57 1.038-5.02c.7-1.46 1.674-2.59 2.922-3.41 1.256-.82 2.721-1.23 4.395-1.23.966 0 1.92.16 2.861.49a6.99 6.99 0 0 1 2.572 1.57c.773.71 1.389 1.66 1.847 2.85.459 1.18.689 2.64.689 4.37v1.2h-14.296v-2.46h11.398c0-1.05-.209-1.98-.628-2.8a4.692 4.692 0 0 0-1.763-1.94c-.756-.48-1.65-.72-2.68-.72-1.135 0-2.117.28-2.946.85a5.54 5.54 0 0 0-1.896 2.17 6.375 6.375 0 0 0-.664 2.87v1.65c0 1.4.242 2.58.725 3.56.491.96 1.171 1.7 2.04 2.21.87.5 1.88.75 3.031.75.748 0 1.424-.11 2.028-.32a4.321 4.321 0 0 0 1.582-.96c.443-.44.785-.98 1.026-1.62l2.753.77c-.29.94-.777 1.76-1.461 2.46-.684.71-1.529 1.25-2.536 1.65-1.006.38-2.137.58-3.392.58Zm19.173 0c-1.738 0-3.235-.41-4.491-1.24-1.256-.82-2.222-1.95-2.898-3.39-.676-1.44-1.014-3.08-1.014-4.94 0-1.88.346-3.54 1.038-4.98.701-1.45 1.674-2.58 2.922-3.4 1.256-.82 2.721-1.23 4.395-1.23 1.304 0 2.479.24 3.526.73a6.72 6.72 0 0 1 2.571 2.03c.668.87 1.083 1.88 1.244 3.04h-2.85c-.217-.85-.7-1.6-1.448-2.25-.741-.66-1.739-.99-2.995-.99-1.11 0-2.084.29-2.922.87-.829.57-1.477 1.38-1.943 2.43-.459 1.04-.689 2.26-.689 3.66 0 1.43.226 2.68.676 3.74.459 1.06 1.103 1.89 1.932 2.48.837.58 1.819.88 2.946.88.741 0 1.413-.13 2.017-.39a4.227 4.227 0 0 0 1.533-1.11c.419-.48.716-1.06.893-1.74h2.85a6.606 6.606 0 0 1-1.195 2.96c-.628.87-1.461 1.56-2.5 2.08-1.03.5-2.229.76-3.598.76Zm18.618 0c-1.674 0-3.143-.4-4.406-1.2-1.256-.8-2.238-1.91-2.946-3.34-.701-1.44-1.051-3.11-1.051-5.03 0-1.93.35-3.61 1.051-5.06.708-1.44 1.69-2.55 2.946-3.35 1.263-.8 2.732-1.2 4.406-1.2 1.675 0 3.14.4 4.395 1.2 1.264.8 2.246 1.91 2.946 3.35.709 1.45 1.063 3.13 1.063 5.06 0 1.92-.354 3.59-1.063 5.03-.7 1.43-1.682 2.54-2.946 3.34-1.255.8-2.72 1.2-4.395 1.2Zm0-2.56c1.272 0 2.319-.33 3.14-.98.821-.65 1.428-1.51 1.823-2.57.394-1.07.591-2.22.591-3.46 0-1.24-.197-2.39-.591-3.46-.395-1.07-1.002-1.94-1.823-2.6-.821-.66-1.868-.99-3.14-.99-1.271 0-2.318.33-3.139.99-.821.66-1.428 1.53-1.823 2.6-.394 1.07-.591 2.22-.591 3.46 0 1.24.197 2.39.591 3.46.395 1.06 1.002 1.92 1.823 2.57.821.65 1.868.98 3.139.98Zm12.38 2.17v-18.55h2.752v2.9h.242c.386-.99 1.01-1.76 1.871-2.3.862-.56 1.896-.84 3.103-.84 1.224 0 2.242.28 3.055.84.821.54 1.461 1.31 1.92 2.3h.193a5.365 5.365 0 0 1 2.137-2.28c.95-.57 2.089-.86 3.417-.86 1.658 0 3.014.52 4.069 1.56 1.054 1.03 1.581 2.64 1.581 4.82v12.41h-2.849v-12.41c0-1.37-.374-2.35-1.123-2.94-.748-.58-1.63-.88-2.644-.88-1.304 0-2.314.4-3.031 1.19-.716.78-1.074 1.77-1.074 2.97v12.07h-2.898v-12.7c0-1.06-.342-1.91-1.026-2.55-.684-.65-1.566-.98-2.644-.98-.741 0-1.433.2-2.077.59-.636.4-1.151.95-1.546 1.65-.386.69-.579 1.49-.579 2.4v11.59h-2.849Zm29.176 0v-18.55h2.753v2.9h.242c.386-.99 1.01-1.76 1.871-2.3.861-.56 1.896-.84 3.103-.84 1.224 0 2.242.28 3.055.84.821.54 1.461 1.31 1.919 2.3h.194a5.365 5.365 0 0 1 2.137-2.28c.95-.57 2.089-.86 3.417-.86 1.658 0 3.014.52 4.069 1.56 1.054 1.03 1.581 2.64 1.581 4.82v12.41H292v-12.41c0-1.37-.375-2.35-1.123-2.94-.749-.58-1.63-.88-2.644-.88-1.304 0-2.314.4-3.031 1.19-.716.78-1.074 1.77-1.074 2.97v12.07h-2.898v-12.7c0-1.06-.342-1.91-1.026-2.55-.685-.65-1.566-.98-2.645-.98-.74 0-1.432.2-2.076.59-.636.4-1.151.95-1.546 1.65-.386.69-.579 1.49-.579 2.4v11.59h-2.85Zm36.953.39c-1.787 0-3.329-.4-4.625-1.19-1.288-.79-2.282-1.9-2.982-3.33-.692-1.43-1.038-3.1-1.038-5s.346-3.57 1.038-5.02c.7-1.46 1.674-2.59 2.922-3.41 1.256-.82 2.721-1.23 4.395-1.23.966 0 1.92.16 2.861.49a6.99 6.99 0 0 1 2.572 1.57c.773.71 1.389 1.66 1.847 2.85.459 1.18.689 2.64.689 4.37v1.2h-14.296v-2.46h11.398c0-1.05-.209-1.98-.628-2.8a4.692 4.692 0 0 0-1.763-1.94c-.756-.48-1.65-.72-2.68-.72-1.135 0-2.117.28-2.946.85a5.54 5.54 0 0 0-1.896 2.17 6.375 6.375 0 0 0-.664 2.87v1.65c0 1.4.242 2.58.725 3.56.491.96 1.171 1.7 2.04 2.21.869.5 1.88.75 3.031.75.748 0 1.424-.11 2.028-.32a4.321 4.321 0 0 0 1.582-.96c.442-.44.785-.98 1.026-1.62l2.753.77c-.29.94-.777 1.76-1.461 2.46-.684.71-1.529 1.25-2.536 1.65-1.006.38-2.137.58-3.392.58Zm14.489-11.55v11.16h-2.85v-18.55h2.753v2.9h.241a5.298 5.298 0 0 1 1.981-2.27c.885-.58 2.028-.87 3.429-.87 1.255 0 2.354.26 3.296.78.941.5 1.674 1.28 2.197 2.31.523 1.03.785 2.34.785 3.92v11.78h-2.849v-11.59c0-1.46-.379-2.59-1.135-3.41-.757-.82-1.795-1.23-3.115-1.23-.91 0-1.723.2-2.439.59-.709.4-1.268.97-1.679 1.73-.41.76-.615 1.68-.615 2.75Zm23.668 11.55c-1.546 0-2.91-.39-4.093-1.17-1.184-.79-2.109-1.9-2.777-3.34-.668-1.44-1.003-3.14-1.003-5.1 0-1.95.335-3.64 1.003-5.08.668-1.43 1.597-2.53 2.789-3.32 1.191-.78 2.567-1.17 4.129-1.17 1.207 0 2.161.2 2.861.61.709.39 1.248.84 1.618 1.35.379.5.672.91.882 1.23h.241v-9.13h2.85v24.73h-2.753v-2.85h-.338c-.21.34-.507.77-.894 1.28-.386.51-.937.96-1.654 1.36-.716.4-1.67.6-2.861.6Zm.386-2.56c1.143 0 2.109-.3 2.898-.9.789-.6 1.388-1.43 1.799-2.5.41-1.07.616-2.3.616-3.7 0-1.39-.202-2.6-.604-3.64-.403-1.04-.998-1.86-1.787-2.44-.789-.58-1.763-.88-2.922-.88-1.207 0-2.214.31-3.018.93-.797.61-1.397 1.45-1.799 2.5-.395 1.05-.592 2.22-.592 3.53 0 1.32.201 2.52.604 3.6.41 1.07 1.014 1.92 1.811 2.55.805.63 1.803.95 2.994.95Zm18.811 2.6c-1.175 0-2.241-.22-3.199-.66a5.51 5.51 0 0 1-2.282-1.94c-.564-.86-.845-1.89-.845-3.09 0-1.07.209-1.93.628-2.59.418-.67.978-1.19 1.678-1.57.7-.38 1.473-.66 2.318-.84.853-.2 1.71-.35 2.572-.46a88.26 88.26 0 0 1 2.74-.33c.709-.08 1.224-.21 1.546-.4.33-.18.495-.5.495-.96v-.1c0-1.19-.326-2.12-.978-2.78-.644-.66-1.622-.99-2.934-.99-1.36 0-2.427.3-3.2.9-.772.59-1.316 1.23-1.63 1.91l-2.704-.97c.483-1.13 1.127-2 1.932-2.63a7.187 7.187 0 0 1 2.656-1.33c.966-.26 1.916-.39 2.849-.39.596 0 1.28.08 2.053.22.781.14 1.533.42 2.258.86.732.43 1.34 1.09 1.823 1.97.483.87.724 2.05.724 3.52v12.22h-2.849v-2.51h-.145c-.193.4-.515.83-.966 1.29-.451.46-1.05.85-1.799 1.17-.748.32-1.662.48-2.741.48Zm.435-2.55c1.127 0 2.077-.23 2.849-.67.781-.44 1.369-1.01 1.763-1.71.403-.7.604-1.44.604-2.21v-2.61c-.121.14-.386.28-.797.4-.402.11-.869.21-1.4.3-.524.08-1.035.15-1.534.22-.491.05-.889.1-1.195.14-.741.1-1.433.26-2.077.47-.636.21-1.151.53-1.545.96-.387.41-.58.99-.58 1.71 0 .99.366 1.74 1.099 2.25.74.5 1.678.75 2.813.75Zm20.958-16.43v2.42h-9.611v-2.42h9.611Zm-6.81-4.44h2.849v17.68c0 .8.117 1.41.35 1.81.242.39.548.66.918.8.378.12.777.19 1.195.19.314 0 .572-.02.773-.05.201-.04.362-.07.483-.1l.58 2.56a4.66 4.66 0 0 1-.809.22c-.346.08-.785.12-1.316.12-.805 0-1.594-.17-2.367-.52a4.64 4.64 0 0 1-1.908-1.58c-.499-.71-.748-1.6-.748-2.68v-18.45Zm10.722 22.99v-18.55h2.849v18.55h-2.849Zm1.449-21.64c-.556 0-1.035-.19-1.437-.56a1.838 1.838 0 0 1-.592-1.37c0-.53.197-.98.592-1.36a2.02 2.02 0 0 1 1.437-.57c.555 0 1.03.19 1.424.57.403.38.604.83.604 1.36 0 .53-.201.99-.604 1.37a2.01 2.01 0 0 1-1.424.56Zm13.779 22.03c-1.674 0-3.143-.4-4.407-1.2-1.255-.8-2.237-1.91-2.946-3.34-.7-1.44-1.05-3.11-1.05-5.03 0-1.93.35-3.61 1.05-5.06.709-1.44 1.691-2.55 2.946-3.35 1.264-.8 2.733-1.2 4.407-1.2s3.139.4 4.395 1.2c1.264.8 2.246 1.91 2.946 3.35.708 1.45 1.063 3.13 1.063 5.06 0 1.92-.355 3.59-1.063 5.03-.7 1.43-1.682 2.54-2.946 3.34-1.256.8-2.721 1.2-4.395 1.2Zm0-2.56c1.272 0 2.318-.33 3.139-.98.821-.65 1.429-1.51 1.824-2.57.394-1.07.591-2.22.591-3.46 0-1.24-.197-2.39-.591-3.46-.395-1.07-1.003-1.94-1.824-2.6-.821-.66-1.867-.99-3.139-.99-1.272 0-2.318.33-3.139.99-.821.66-1.429 1.53-1.823 2.6-.395 1.07-.592 2.22-.592 3.46 0 1.24.197 2.39.592 3.46.394 1.06 1.002 1.92 1.823 2.57.821.65 1.867.98 3.139.98Zm15.229-8.99v11.16h-2.85v-18.55h2.753v2.9h.242a5.29 5.29 0 0 1 1.98-2.27c.885-.58 2.028-.87 3.429-.87 1.255 0 2.354.26 3.296.78.942.5 1.674 1.28 2.197 2.31.523 1.03.785 2.34.785 3.92v11.78h-2.849v-11.59c0-1.46-.379-2.59-1.135-3.41-.757-.82-1.795-1.23-3.115-1.23-.91 0-1.723.2-2.439.59-.709.4-1.268.97-1.679 1.73-.41.76-.615 1.68-.615 2.75Zm29.801-3.23-2.559.72a4.805 4.805 0 0 0-.713-1.24c-.306-.41-.724-.75-1.255-1.02-.532-.26-1.212-.39-2.041-.39-1.135 0-2.081.26-2.837.78-.749.52-1.123 1.17-1.123 1.97 0 .71.257 1.27.773 1.68.515.41 1.32.75 2.414 1.02l2.753.68c1.658.4 2.894 1.02 3.707 1.85.813.82 1.219 1.88 1.219 3.17 0 1.06-.306 2.01-.917 2.85-.604.84-1.449 1.5-2.536 1.98-1.086.48-2.35.73-3.791.73-1.892 0-3.457-.41-4.697-1.24-1.239-.82-2.024-2.02-2.354-3.59l2.704-.68c.258 1 .745 1.75 1.461 2.25.725.5 1.671.75 2.838.75 1.328 0 2.382-.29 3.163-.85.789-.57 1.183-1.26 1.183-2.05 0-.65-.225-1.19-.676-1.62-.451-.44-1.143-.77-2.077-.99l-3.09-.73c-1.699-.4-2.946-1.02-3.743-1.87-.789-.85-1.184-1.92-1.184-3.2 0-1.04.294-1.97.882-2.77.595-.81 1.404-1.44 2.427-1.9 1.03-.46 2.197-.69 3.501-.69 1.835 0 3.276.41 4.323 1.21 1.054.81 1.803 1.87 2.245 3.19ZM306.5 2489c0-.28-.224-.5-.5-.5s-.5.22-.5.5h1Zm-.854 42.35c.196.2.512.2.708 0l3.182-3.18a.504.504 0 0 0 0-.71.511.511 0 0 0-.708 0l-2.828 2.83-2.828-2.83a.511.511 0 0 0-.708 0 .504.504 0 0 0 0 .71l3.182 3.18ZM305.5 2489v42h1v-42h-1Z"/>
  <rect width="208" height="208" x="202" y="2793" fill="#fff" stroke="#000" stroke-linecap="round" stroke-miterlimit="0" rx="25"/>
  <path fill="#000" d="M276.352 2884.77h2.994v16.37c0 1.7-.398 3.2-1.195 4.53-.789 1.32-1.904 2.37-3.345 3.13-1.44.76-3.131 1.13-5.071 1.13-1.939 0-3.63-.37-5.071-1.13-1.44-.76-2.559-1.81-3.356-3.13-.789-1.33-1.183-2.83-1.183-4.53v-16.37h2.994v16.13c0 1.21.266 2.29.797 3.23a5.743 5.743 0 0 0 2.27 2.21c.99.53 2.173.79 3.549.79 1.377 0 2.56-.26 3.55-.79.99-.54 1.747-1.28 2.27-2.21.531-.94.797-2.02.797-3.23v-16.13Zm8.213 31.68v-25.5h2.753v2.95h.338c.21-.32.499-.73.87-1.23.378-.51.917-.96 1.618-1.35.708-.41 1.666-.61 2.873-.61 1.562 0 2.938.39 4.129 1.17 1.192.79 2.121 1.89 2.789 3.32.669 1.44 1.003 3.13 1.003 5.08 0 1.96-.334 3.66-1.003 5.1-.668 1.44-1.593 2.55-2.777 3.34-1.183.78-2.547 1.17-4.093 1.17-1.191 0-2.145-.2-2.861-.6-.716-.4-1.268-.85-1.654-1.36-.387-.51-.684-.94-.894-1.28h-.241v9.8h-2.85Zm2.802-16.22c0 1.4.205 2.63.615 3.7.411 1.07 1.011 1.9 1.799 2.5.789.6 1.755.9 2.898.9 1.191 0 2.185-.32 2.982-.95.805-.63 1.409-1.48 1.811-2.55.411-1.08.616-2.28.616-3.6 0-1.31-.201-2.48-.604-3.53-.394-1.05-.994-1.89-1.799-2.5-.796-.62-1.799-.93-3.006-.93-1.159 0-2.133.3-2.922.88-.789.58-1.384 1.4-1.787 2.44-.402 1.04-.603 2.25-.603 3.64Zm30.68-5.12-2.56.72a4.83 4.83 0 0 0-.712-1.24c-.306-.41-.725-.75-1.256-1.02-.531-.26-1.212-.39-2.041-.39-1.135 0-2.08.26-2.837.78-.749.52-1.123 1.17-1.123 1.97 0 .71.258 1.27.773 1.68.515.41 1.32.75 2.415 1.02l2.752.68c1.659.4 2.894 1.02 3.707 1.85.813.82 1.22 1.88 1.22 3.17a4.72 4.72 0 0 1-.918 2.85c-.604.84-1.449 1.5-2.536 1.98-1.086.48-2.35.73-3.791.73-1.891 0-3.457-.41-4.696-1.24-1.24-.82-2.025-2.02-2.355-3.59l2.705-.68c.257 1 .744 1.75 1.461 2.25.724.5 1.67.75 2.837.75 1.328 0 2.383-.29 3.163-.85.789-.57 1.184-1.26 1.184-2.05 0-.65-.226-1.19-.677-1.62-.45-.44-1.143-.77-2.076-.99l-3.091-.73c-1.699-.4-2.946-1.02-3.743-1.87-.789-.85-1.183-1.92-1.183-3.2 0-1.04.294-1.97.881-2.77.596-.81 1.405-1.44 2.427-1.9 1.03-.46 2.197-.69 3.501-.69 1.836 0 3.276.41 4.323 1.21 1.054.81 1.803 1.87 2.246 3.19Zm12.028 14.78c-1.786 0-3.328-.4-4.624-1.19-1.288-.79-2.282-1.9-2.982-3.33-.692-1.43-1.038-3.1-1.038-5s.346-3.57 1.038-5.02c.7-1.46 1.674-2.59 2.922-3.41 1.255-.82 2.72-1.23 4.395-1.23.966 0 1.919.16 2.861.49a6.99 6.99 0 0 1 2.572 1.57c.773.71 1.388 1.66 1.847 2.85.459 1.18.688 2.64.688 4.37v1.2h-14.295v-2.46h11.398c0-1.05-.21-1.98-.628-2.8a4.698 4.698 0 0 0-1.763-1.94c-.757-.48-1.65-.72-2.68-.72-1.135 0-2.117.28-2.946.85a5.54 5.54 0 0 0-1.896 2.17 6.362 6.362 0 0 0-.664 2.87v1.65c0 1.4.241 2.58.724 3.56.491.96 1.172 1.7 2.041 2.21.869.5 1.879.75 3.03.75.749 0 1.425-.11 2.029-.32a4.321 4.321 0 0 0 1.582-.96 4.49 4.49 0 0 0 1.026-1.62l2.753.77c-.29.94-.777 1.76-1.461 2.46-.684.71-1.53 1.25-2.536 1.65-1.006.38-2.137.58-3.393.58Zm14.489-25.12v24.73h-2.849v-24.73h2.849Zm7.695 0v24.73h-2.85v-24.73h2.85ZM306.5 2747c0-.28-.224-.5-.5-.5s-.5.22-.5.5h1Zm-.854 42.35c.196.2.512.2.708 0l3.182-3.18a.504.504 0 0 0 0-.71.511.511 0 0 0-.708 0l-2.828 2.83-2.828-2.83a.511.511 0 0 0-.708 0 .504.504 0 0 0 0 .71l3.182 3.18ZM305.5 2747v42h1v-42h-1Z"/>
  <rect width="208" height="208" x="202" y="3051" fill="#fff" stroke="#000" stroke-linecap="round" stroke-miterlimit="0" rx="25"/>
  <path fill="#000" d="M231.778 3167.5v-24.73h14.827v2.66h-11.833v8.35h10.722v2.66h-10.722v11.06h-2.994Zm25.609.39c-1.787 0-3.328-.4-4.624-1.19-1.288-.79-2.282-1.9-2.983-3.33-.692-1.43-1.038-3.1-1.038-5s.346-3.57 1.038-5.02c.701-1.46 1.675-2.59 2.922-3.41 1.256-.82 2.721-1.23 4.395-1.23.966 0 1.92.16 2.862.49.941.32 1.799.84 2.571 1.57.773.71 1.389 1.66 1.848 2.85.458 1.18.688 2.64.688 4.37v1.2H250.77v-2.46h11.398c0-1.05-.209-1.98-.628-2.8a4.696 4.696 0 0 0-1.762-1.94c-.757-.48-1.651-.72-2.681-.72-1.135 0-2.117.28-2.946.85a5.54 5.54 0 0 0-1.896 2.17 6.375 6.375 0 0 0-.664 2.87v1.65c0 1.4.242 2.58.725 3.56.491.96 1.171 1.7 2.04 2.21.87.5 1.88.75 3.031.75.748 0 1.425-.11 2.028-.32a4.321 4.321 0 0 0 1.582-.96c.443-.44.785-.98 1.026-1.62l2.753.77c-.29.94-.777 1.76-1.461 2.46-.684.71-1.529 1.25-2.535 1.65-1.007.38-2.137.58-3.393.58Zm19.415 0c-1.787 0-3.328-.4-4.624-1.19-1.288-.79-2.282-1.9-2.983-3.33-.692-1.43-1.038-3.1-1.038-5s.346-3.57 1.038-5.02c.701-1.46 1.675-2.59 2.922-3.41 1.256-.82 2.721-1.23 4.395-1.23.966 0 1.92.16 2.862.49.941.32 1.799.84 2.571 1.57.773.71 1.389 1.66 1.848 2.85.459 1.18.688 2.64.688 4.37v1.2h-14.296v-2.46h11.398c0-1.05-.209-1.98-.628-2.8a4.696 4.696 0 0 0-1.762-1.94c-.757-.48-1.651-.72-2.681-.72-1.135 0-2.117.28-2.946.85a5.53 5.53 0 0 0-1.895 2.17 6.363 6.363 0 0 0-.665 2.87v1.65c0 1.4.242 2.58.725 3.56.491.96 1.171 1.7 2.04 2.21.87.5 1.88.75 3.031.75.749 0 1.425-.11 2.028-.32a4.321 4.321 0 0 0 1.582-.96c.443-.44.785-.98 1.026-1.62l2.753.77c-.29.94-.777 1.76-1.461 2.46-.684.71-1.529 1.25-2.535 1.65-1.006.38-2.137.58-3.393.58Zm18.642 0c-1.545 0-2.91-.39-4.093-1.17-1.183-.79-2.109-1.9-2.777-3.34-.668-1.44-1.002-3.14-1.002-5.1 0-1.95.334-3.64 1.002-5.08.668-1.43 1.598-2.53 2.789-3.32 1.192-.78 2.568-1.17 4.13-1.17 1.207 0 2.161.2 2.861.61.708.39 1.248.84 1.618 1.35.378.5.672.91.881 1.23h.242v-9.13h2.849v24.73h-2.753v-2.85h-.338c-.209.34-.507.77-.893 1.28s-.938.96-1.654 1.36c-.717.4-1.67.6-2.862.6Zm.387-2.56c1.143 0 2.109-.3 2.897-.9.789-.6 1.389-1.43 1.799-2.5.411-1.07.616-2.3.616-3.7 0-1.39-.201-2.6-.604-3.64-.402-1.04-.998-1.86-1.786-2.44-.789-.58-1.763-.88-2.922-.88-1.208 0-2.214.31-3.019.93-.797.61-1.396 1.45-1.799 2.5-.394 1.05-.591 2.22-.591 3.53 0 1.32.201 2.52.603 3.6.411 1.07 1.014 1.92 1.811 2.55.805.63 1.803.95 2.995.95Zm13.74 2.17v-24.73h2.849v9.13h.242c.209-.32.499-.73.869-1.23.379-.51.918-.96 1.618-1.35.708-.41 1.666-.61 2.874-.61 1.561 0 2.938.39 4.129 1.17 1.191.79 2.121 1.89 2.789 3.32.668 1.44 1.002 3.13 1.002 5.08 0 1.96-.334 3.66-1.002 5.1-.668 1.44-1.594 2.55-2.777 3.34-1.183.78-2.548 1.17-4.093 1.17-1.191 0-2.145-.2-2.862-.6-.716-.4-1.267-.85-1.654-1.36-.386-.51-.684-.94-.893-1.28h-.338v2.85h-2.753Zm2.801-9.27c0 1.4.205 2.63.616 3.7.41 1.07 1.01 1.9 1.799 2.5.789.6 1.755.9 2.898.9 1.191 0 2.185-.32 2.982-.95.805-.63 1.408-1.48 1.811-2.55.41-1.08.616-2.28.616-3.6 0-1.31-.202-2.48-.604-3.53-.394-1.05-.994-1.89-1.799-2.5-.797-.62-1.799-.93-3.006-.93-1.159 0-2.133.3-2.922.88-.789.58-1.385 1.4-1.787 2.44-.403 1.04-.604 2.25-.604 3.64Zm23.013 9.7c-1.175 0-2.242-.22-3.199-.66a5.51 5.51 0 0 1-2.282-1.94c-.564-.86-.846-1.89-.846-3.09 0-1.07.21-1.93.628-2.59a4.43 4.43 0 0 1 1.679-1.57c.7-.38 1.473-.66 2.318-.84.853-.2 1.71-.35 2.572-.46 1.126-.15 2.04-.26 2.74-.33.709-.08 1.224-.21 1.546-.4.33-.18.495-.5.495-.96v-.1c0-1.19-.326-2.12-.978-2.78-.644-.66-1.622-.99-2.934-.99-1.36 0-2.427.3-3.2.9-.772.59-1.316 1.23-1.63 1.91l-2.704-.97c.483-1.13 1.127-2 1.932-2.63a7.187 7.187 0 0 1 2.656-1.33c.966-.26 1.916-.39 2.849-.39.596 0 1.28.08 2.053.22.781.14 1.533.42 2.258.86.732.43 1.34 1.09 1.823 1.97.483.87.724 2.05.724 3.52v12.22h-2.849v-2.51h-.145c-.193.4-.515.83-.966 1.29-.451.46-1.05.85-1.799 1.17-.749.32-1.662.48-2.741.48Zm.435-2.55c1.127 0 2.077-.23 2.849-.67.781-.44 1.369-1.01 1.763-1.71.403-.7.604-1.44.604-2.21v-2.61c-.121.14-.387.28-.797.4-.403.11-.869.21-1.401.3-.523.08-1.034.15-1.533.22-.491.05-.89.1-1.195.14-.741.1-1.433.26-2.077.47-.636.21-1.151.53-1.546.96-.386.41-.579.99-.579 1.71 0 .99.366 1.74 1.099 2.25.74.5 1.678.75 2.813.75Zm20.426 2.51c-1.739 0-3.236-.41-4.491-1.24-1.256-.82-2.222-1.95-2.898-3.39-.676-1.44-1.014-3.08-1.014-4.94 0-1.88.346-3.54 1.038-4.98.7-1.45 1.674-2.58 2.922-3.4 1.256-.82 2.721-1.23 4.395-1.23 1.304 0 2.479.24 3.525.73a6.716 6.716 0 0 1 2.572 2.03c.668.87 1.083 1.88 1.244 3.04h-2.85c-.217-.85-.7-1.6-1.449-2.25-.74-.66-1.738-.99-2.994-.99-1.111 0-2.085.29-2.922.87-.829.57-1.477 1.38-1.944 2.43-.458 1.04-.688 2.26-.688 3.66 0 1.43.226 2.68.676 3.74.459 1.06 1.103 1.89 1.932 2.48.837.58 1.819.88 2.946.88.741 0 1.413-.13 2.016-.39a4.222 4.222 0 0 0 1.534-1.11c.418-.48.716-1.06.893-1.74h2.85a6.596 6.596 0 0 1-1.196 2.96c-.627.87-1.461 1.56-2.499 2.08-1.03.5-2.23.76-3.598.76Zm13.74-7.15-.048-3.53h.58l8.113-8.26h3.526l-8.645 8.75h-.241l-3.285 3.04Zm-2.656 6.76v-24.73h2.85v24.73h-2.85Zm11.784 0-7.244-9.18 2.028-1.98 8.838 11.16h-3.622ZM306.5 3005c0-.28-.224-.5-.5-.5s-.5.22-.5.5h1Zm-.854 42.35c.196.2.512.2.708 0l3.182-3.18a.504.504 0 0 0 0-.71.511.511 0 0 0-.708 0l-2.828 2.83-2.828-2.83a.511.511 0 0 0-.708 0 .504.504 0 0 0 0 .71l3.182 3.18ZM305.5 3005v42h1v-42h-1Z"/>
  <circle cx="306" cy="3413" r="104" fill="#fff" stroke="#000" stroke-linecap="round" stroke-miterlimit="0"/>
  <path fill="#000" d="M278.705 3425.5v-24.73h14.924v2.66H281.7v8.35h11.156v2.66H281.7v8.4h12.122v2.66h-15.117Zm22.41-11.16v11.16h-2.85v-18.55h2.753v2.9h.241a5.298 5.298 0 0 1 1.981-2.27c.885-.58 2.028-.87 3.429-.87 1.255 0 2.354.26 3.296.78.942.5 1.674 1.28 2.197 2.31.523 1.03.785 2.34.785 3.92v11.78h-2.849v-11.59c0-1.46-.379-2.59-1.135-3.41-.757-.82-1.795-1.23-3.115-1.23-.91 0-1.723.2-2.439.59-.709.4-1.268.97-1.679 1.73-.41.76-.615 1.68-.615 2.75Zm23.668 11.55c-1.546 0-2.91-.39-4.093-1.17-1.184-.79-2.109-1.9-2.777-3.34-.668-1.44-1.002-3.14-1.002-5.1 0-1.95.334-3.64 1.002-5.08.668-1.43 1.597-2.53 2.789-3.32 1.191-.78 2.567-1.17 4.129-1.17 1.207 0 2.161.2 2.861.61.709.39 1.248.84 1.618 1.35.379.5.673.91.882 1.23h.241v-9.13h2.85v24.73h-2.753v-2.85h-.338c-.209.34-.507.77-.894 1.28-.386.51-.937.96-1.654 1.36-.716.4-1.67.6-2.861.6Zm.386-2.56c1.143 0 2.109-.3 2.898-.9.789-.6 1.388-1.43 1.799-2.5.41-1.07.616-2.3.616-3.7 0-1.39-.202-2.6-.604-3.64-.403-1.04-.998-1.86-1.787-2.44-.789-.58-1.763-.88-2.922-.88-1.207 0-2.213.31-3.018.93-.797.61-1.397 1.45-1.799 2.5-.395 1.05-.592 2.22-.592 3.53 0 1.32.201 2.52.604 3.6.41 1.07 1.014 1.92 1.811 2.55.805.63 1.803.95 2.994.95ZM306.5 3263c0-.28-.224-.5-.5-.5s-.5.22-.5.5h1Zm-.854 42.35c.196.2.512.2.708 0l3.182-3.18a.504.504 0 0 0 0-.71.511.511 0 0 0-.708 0l-2.828 2.83-2.828-2.83a.511.511 0 0 0-.708 0 .504.504 0 0 0 0 .71l3.182 3.18ZM305.5 3263v42h1v-42h-1Z"/>
</svg>
