<svg width="64" height="74" viewBox="0 0 64 74" fill="none" xmlns="http://www.w3.org/2000/svg">
<path d="M26.92 57.16V73H35.56V57.16M26.92 57.16H2.44C1.576 57.16 1 56.584 1 55.72V26.92C1 19.72 8.2 13.96 13.96 13.96H16.84M26.92 57.16H28.36M35.56 57.16H61.48C62.344 57.16 62.92 56.584 62.92 55.72V26.92C62.92 18.28 54.28 13.96 49.96 13.96H37M35.56 57.16H28.36M28.36 57.16C29.224 57.16 29.8 56.584 29.8 55.72V26.92C29.8 21.16 22.6 13.96 16.84 13.96M16.84 13.96H32.68M28.36 29.8V26.92C28.36 21.16 21.16 15.4 15.4 15.4H13.96C8.2 15.4 2.44 21.16 2.44 26.92V54.28C2.44 55.144 3.016 55.72 3.88 55.72H9.64M28.36 29.8H9.64C8.776 29.8 8.2 30.376 8.2 31.24V32.68M28.36 29.8V44.2M9.64 55.72H26.92C27.784 55.72 28.36 55.144 28.36 54.28V44.2M9.64 55.72C8.776 55.72 8.2 55.144 8.2 54.28V52.84M8.2 32.68V52.84M8.2 32.68L21.16 42.1054M28.36 44.2C27.928 44.488 27.496 44.776 26.92 44.776H25.48C24.904 44.776 24.472 44.488 24.04 44.2L21.16 42.1054M8.2 52.84L21.16 42.1054M32.68 13.96V29.8C32.68 33.544 37 33.544 37 29.8V13.96M32.68 13.96V2.44C32.68 1.576 33.256 1 34.12 1H45.64C46.504 1 47.08 1.576 47.08 2.44V9.64C47.08 10.504 46.504 11.08 45.64 11.08H37V13.96M34.84 29.08C34.12 29.08 33.688 29.512 33.688 30.232C33.688 30.952 34.12 31.384 34.84 31.384C35.56 31.384 35.992 30.952 35.992 30.232C35.992 29.512 35.56 29.08 34.84 29.08Z" stroke="#B5CF54"/>
</svg>
