<svg width="78" height="74" viewBox="0 0 78 74" fill="none" xmlns="http://www.w3.org/2000/svg">
<path d="M5.55173 71.4828V51.7586H72.3105V71.4828M5.55173 71.4828H72.3105M5.55173 71.4828V73H4.03449V71.4828V51.7586H1V45.6896H5.55173M72.3105 71.4828V73H73.8278V71.4828V51.7586H76.8622V45.6896H70.7933M5.55173 45.6896C4.03449 45.6896 2.51724 42.6551 5.55173 42.6551H7.06898M5.55173 45.6896H34.3794M34.3794 45.6896C35.8966 45.6896 37.4139 42.6551 34.3794 42.6551H32.8621M34.3794 45.6896H37.4139M7.06898 42.6551C6.15863 42.6551 5.55173 42.0482 5.55173 41.1378V25.9654C5.55173 23.6895 6.31036 22.9309 8.58622 22.9309H29.8277M7.06898 42.6551H32.8621M32.8621 42.6551C33.7725 42.6551 34.3794 42.0482 34.3794 41.1378V28.935M54.1036 45.6896C53.3449 45.6896 52.5863 44.931 52.5863 44.1723V42.6551C52.5863 41.8965 53.3449 41.1378 54.1036 41.1378M54.1036 45.6896H58.6553M54.1036 45.6896H51.0691M54.1036 41.1378H58.6553M54.1036 41.1378C53.3449 41.1378 52.5863 40.3792 52.5863 39.6206V38.1034M70.7933 41.1378C71.5519 41.1378 72.3105 41.8965 72.3105 42.6551V44.1723C72.3105 44.931 71.5519 45.6896 70.7933 45.6896M70.7933 41.1378H66.2415M70.7933 41.1378C71.5519 41.1378 72.3105 40.3792 72.3105 39.6206V38.1034C72.3105 37.3448 71.5519 36.5861 70.7933 36.5861H66.2415M70.7933 45.6896H66.2415M58.6553 45.6896H60.1726M58.6553 45.6896V41.1378M58.6553 41.1378H60.1726M58.6553 41.1378V36.5861M60.1726 41.1378H64.7243M60.1726 41.1378V45.6896M60.1726 41.1378V36.5861M60.1726 45.6896H64.7243M64.7243 45.6896H66.2415M64.7243 45.6896V41.1378M64.7243 41.1378H66.2415M64.7243 41.1378V36.5861M66.2415 41.1378V45.6896M66.2415 41.1378V36.5861M52.5863 38.1034C52.5863 37.3448 53.3449 36.5861 54.1036 36.5861H58.6553M52.5863 38.1034C51.0691 38.1034 48.0346 35.0689 44.6967 34.7744M58.6553 36.5861H60.1726M60.1726 36.5861H64.7243M64.7243 36.5861H66.2415M51.0691 32.0344C50.3105 32.0344 49.5518 32.793 49.5518 33.5516V35.0689C49.5518 35.8275 50.3105 36.5861 51.0691 36.5861H55.6208M51.0691 32.0344H55.6208M51.0691 32.0344C50.3105 32.0344 49.5518 31.2758 49.5518 30.5172V28.9999C49.5518 28.2413 50.3105 27.4827 51.0691 27.4827H55.6208M67.7588 32.0344C68.5174 32.0344 69.276 32.793 69.276 33.5516V35.0689C69.276 35.8275 68.5174 36.5861 67.7588 36.5861H63.207M67.7588 32.0344H63.207M67.7588 32.0344C68.5174 32.0344 69.276 31.2758 69.276 30.5172V28.9999C69.276 28.2413 68.5174 27.4827 67.7588 27.4827H63.207M55.6208 36.5861H57.1381M55.6208 36.5861V32.0344M55.6208 32.0344H57.1381M55.6208 32.0344V27.4827M57.1381 32.0344H61.6898M57.1381 32.0344V36.5861M57.1381 32.0344V27.4827M57.1381 36.5861H61.6898M61.6898 36.5861H63.207M61.6898 36.5861V32.0344M61.6898 32.0344H63.207M61.6898 32.0344V27.4827M63.207 32.0344V36.5861M63.207 32.0344V27.4827M55.6208 27.4827H57.1381M57.1381 27.4827H61.6898M61.6898 27.4827H63.207M58.6553 27.4827H54.1036C53.3449 27.4827 52.5863 26.724 52.5863 25.9654V24.4482C52.5863 23.6895 53.3449 22.9309 54.1036 22.9309H58.6553M58.6553 27.4827H60.1726M58.6553 27.4827V22.9309M58.6553 22.9309H60.1726M60.1726 22.9309H64.7243M60.1726 22.9309V27.4827M60.1726 27.4827H64.7243M64.7243 27.4827H66.2415M64.7243 27.4827V22.9309M64.7243 22.9309H66.2415M66.2415 22.9309H70.7933C71.5519 22.9309 72.3105 23.6895 72.3105 24.4482V25.9654C72.3105 26.724 71.5519 27.4827 70.7933 27.4827H66.2415M66.2415 22.9309V27.4827M29.8277 22.9309H31.3449C33.6208 22.9309 34.3794 23.6895 34.3794 25.9654V28.935M29.8277 22.9309V22.1723M29.8277 14.5861V12.3102C30.1311 10.793 31.3449 9.27572 32.8621 9.88262C37.4139 13.8275 40.4484 13.8275 45.0001 9.88262C46.5173 9.27572 47.7311 10.793 48.0346 12.3102V14.5861M29.8277 14.5861V22.1723M29.8277 14.5861C29.2481 14.5861 28.7424 14.7091 28.3104 14.9237M29.8277 22.1723C25.8555 22.1723 25.3497 16.3949 28.3104 14.9237M48.0346 14.5861V22.1723M48.0346 14.5861C48.6141 14.5861 49.1199 14.7091 49.5518 14.9237M48.0346 22.1723V22.9309C48.0346 28.5117 41.1922 30.6712 35.8966 29.4096M48.0346 22.1723C52.0068 22.1723 52.5125 16.3949 49.5518 14.9237M28.3104 14.9237V9.27572C28.3104 -1.34504 47.276 -1.34503 47.276 6.99981C48.0346 6.24119 49.5518 7.75843 49.5518 9.27572V14.9237M36.2001 25.3585C38.3242 23.5378 39.8415 23.5378 41.9656 25.3585M35.8966 29.4096L34.9863 33.5516L38.9311 36.5861M35.8966 29.4096C35.3731 29.2848 34.8646 29.1266 34.3794 28.935M38.9311 36.5861L42.876 33.5516M38.9311 36.5861L37.4139 38.1033M38.9311 36.5861L40.4484 38.1033M38.9311 36.5861L34.3794 33.0964M42.876 33.5516L41.9632 29.4096M42.876 33.5516L43.5203 33.0568L45.0001 34.5366L44.6967 34.7744M37.4139 38.1033L38.0208 39.924M37.4139 38.1033L34.3794 35.6757M38.0208 39.924H39.8415M38.0208 39.924L37.4139 45.6896M39.8415 39.924L40.4484 38.1033M39.8415 39.924L40.4484 45.6896M40.4484 38.1033L44.6967 34.7744M37.4139 45.6896H40.4484M40.4484 45.6896H51.0691M51.0691 45.6896V41.8964M2.51724 47.2068H75.345V50.2413H2.51724V47.2068ZM16.1724 32.0344C14.6552 32.0344 14.6552 35.0689 16.1724 35.0689H23.7587C25.2759 35.0689 25.2759 32.0344 23.7587 32.0344H16.1724ZM34.9863 18.0757C34.5311 18.0757 34.2277 18.3791 34.2277 18.8343C34.2277 19.2895 34.5311 19.5929 34.9863 19.5929C35.4415 19.5929 35.7449 19.2895 35.7449 18.8343C35.7449 18.3791 35.4415 18.0757 34.9863 18.0757ZM42.876 18.0757C42.4208 18.0757 42.1173 18.3791 42.1173 18.8343C42.1173 19.2895 42.4208 19.5929 42.876 19.5929C43.3311 19.5929 43.6346 19.2895 43.6346 18.8343C43.6346 18.3791 43.3311 18.0757 42.876 18.0757Z" stroke="#B5CF54"/>
</svg>
