<svg width="79" height="74" viewBox="0 0 79 74" fill="none" xmlns="http://www.w3.org/2000/svg">
<path d="M32.344 47.9248C32.6574 46.9845 32.9709 46.3576 33.9112 46.0441C35.4784 45.7307 35.6351 46.5143 37.2023 46.5143H43.4711C45.0383 46.5143 44.8816 45.7307 46.4488 46.0441C47.3891 46.3576 47.7026 46.9845 48.016 47.9248M32.344 47.9248V52.6264M32.344 47.9248C32.1122 47.9248 31.9032 47.9705 31.7171 48.0529M48.016 47.9248V52.6264M48.016 47.9248C48.2478 47.9248 48.4568 47.9705 48.6429 48.0529M48.016 52.6264C48.016 55.4729 45.948 57.2854 43.3144 58.0638M48.016 52.6264C50.135 52.6264 50.3439 48.8064 48.6429 48.0529M32.344 52.6264C32.344 55.4729 34.412 57.2854 37.0456 58.0638M32.344 52.6264C30.225 52.6264 30.0161 48.8064 31.7171 48.0529M37.0456 58.0638L37.0461 60.2015M37.0456 58.0638C39.0283 58.6499 41.3317 58.6499 43.3144 58.0638M37.0461 60.2015C36.5235 59.8532 36.001 59.4178 35.4784 58.8952C31.2413 58.8952 27.7201 62.4751 25.8828 66.7312M37.0461 60.2015C39.1355 61.5943 41.225 61.5942 43.3144 60.2012M43.3144 58.0638V60.2012M43.3144 60.2012C43.8368 59.8529 44.3592 59.4176 44.8816 58.8952C49.1187 58.8952 52.6399 62.4751 54.4772 66.7312M31.7171 48.0529V43.2232C31.7171 40.5836 33.6377 38.8331 36.1849 37.9719M48.6429 48.0529V43.2232C48.6429 40.9638 47.2358 39.3559 45.233 38.3994M25.8828 66.7312C25.0018 68.772 24.508 70.9683 24.508 73H55.852C55.852 70.9683 55.3582 68.772 54.4772 66.7312M25.8828 66.7312H1C1 35.3872 15.1048 35.3872 16.672 35.3872M16.672 35.3872V30.6856M16.672 35.3872C21.3736 40.0888 24.508 40.0888 29.2096 35.3872M29.2096 35.3872C29.8917 35.3872 32.9492 35.3872 36.1849 37.9719M29.2096 35.3872V30.6856M54.2848 35.3872C53.567 35.3872 48.6514 35.3872 45.233 38.3994M54.2848 35.3872C57.4192 37.8946 60.5536 37.8946 63.688 35.3872M54.2848 35.3872V30.6855M63.688 35.3872C65.2552 35.3872 77.7928 35.3872 77.7928 66.7312H54.4772M63.688 35.3872V30.6855M36.1849 37.9719C39.0192 37.0135 42.6294 37.156 45.233 38.3994M16.672 30.6856C21.3736 34.6036 24.508 34.6036 29.2096 30.6856M16.672 30.6856C14.7993 28.8128 13.9755 27.1149 13.6785 24.4167M29.2096 30.6856C31.0823 28.8128 31.9061 27.1149 32.2031 24.4167M13.5376 21.2824V16.5808C13.851 15.0136 15.1048 13.4464 16.672 13.4464H22.9408C26.0752 13.4464 27.6424 12.5061 29.2096 10.312C30.7768 11.0956 32.344 13.4464 32.344 15.0136V21.2824M13.5376 21.2824C13.0471 20.4352 12.6379 19.5982 12.3037 18.7748M13.5376 21.2824C13.5376 22.4726 13.5778 23.5021 13.6785 24.4167M32.344 21.2824C32.8425 20.4516 33.2617 19.612 33.6072 18.7748M32.344 21.2824C32.344 22.4726 32.3038 23.5021 32.2031 24.4167M12.3037 18.7748C6.76529 5.12735 21.8641 -4.78042 29.9932 4.82677C34.1963 4.82677 36.5207 11.7155 33.6072 18.7748M12.3037 18.7748C10.4032 19.7151 11.0301 22.8495 13.6785 24.4167M33.6072 18.7748C35.4784 19.7151 35.0082 22.8495 32.2031 24.4167M63.688 30.6855C60.5536 32.2527 57.4192 32.2527 54.2848 30.6855M63.688 30.6855C66.0388 26.7675 66.8224 24.4167 66.0388 18.9315C65.2552 16.5807 64.4716 14.2299 63.2178 11.8791C61.3372 15.7971 58.9864 18.1479 54.2848 18.1479C49.5832 19.7151 49.5832 27.5511 54.2848 30.6855M63.688 30.6855C66.8224 33.8199 69.9568 33.8199 76.2256 29.9019C73.8748 29.9019 71.524 29.1183 71.524 25.9839V13.4463C71.524 10.3119 69.1732 7.17753 65.2552 7.17753C60.5536 0.908727 44.8816 2.47593 44.8816 13.4463V25.9839C44.8816 29.1183 42.5308 29.9019 40.18 30.6855C46.4488 33.8199 49.5832 33.8199 54.2848 30.6855" stroke="#B5CF54"/>
</svg>
