<svg width="75" height="72" viewBox="0 0 75 72" fill="none" xmlns="http://www.w3.org/2000/svg">
<path d="M60.9574 8.44679H9.94676M9.38293 8.44679H9.94676M9.94676 8.44679V1.74467C1.38293 1.74467 1.38293 7.70211 1.38293 7.70211L1.38293 59.0851M9.94676 8.44679V52.383C9.94676 52.383 1.38291 52.3085 1.38293 59.0851M1.38293 59.0851C1.38296 65.7872 9.94676 65.7872 9.94676 65.7872H37.8723M17.0212 53.1277H31.9148M17.0212 58.3404H37.8723M73.617 46.4255V71H38.617L73.617 36V46.4255ZM73.617 46.4255H69.5212M73.617 43.4468H70.6383M73.617 52.383H69.5212M73.617 49.4043H70.6383M73.617 58.3404H69.5212M73.617 55.3617H70.6383M73.617 64.2979H69.5212M73.617 67.2766H70.6383M73.617 61.3191H70.6383M64.6808 29.2979C64.6808 29.2979 64.6808 12.4655 64.6808 5.46809M64.6808 29.2979H68.4042M64.6808 29.2979L68.4042 34.5106L72.1276 29.2979M72.1276 29.2979C72.1276 29.2979 72.1276 15.7897 72.1276 5.46809M72.1276 29.2979H68.4042M72.1276 5.46809C72.1276 4.4379 72.1276 3.43946 72.1276 2.48936C72.1276 1.74469 71.3829 1 70.6383 1C69.1489 1 67.6595 1 66.1702 1C65.4255 1 64.6808 1.74468 64.6808 2.48936C64.6808 2.6356 64.6808 3.75821 64.6808 5.46809M72.1276 5.46809H68.4042M64.6808 5.46809H68.4042M68.4042 5.46809V29.2979M36.3829 30.0426V47.9149M36.3829 30.0426L40.1063 35.2553L53.5106 30.7872M36.3829 30.0426L53.5106 24.0851M36.3829 30.0426L33.4042 36L18.5106 31.0975M36.3829 30.0426L19.2553 24.8298M36.3829 47.9149L53.5106 41.9575V30.7872M36.3829 47.9149L18.5106 41.9575V31.0975M53.5106 30.7872L56.3404 29.8936L53.5106 24.0851M53.5106 24.0851L56.4893 18.8723L39.3617 12.9149L36.3829 18.8723M53.5106 24.0851L36.3829 18.8723M36.3829 18.8723L32.6595 12.9149L15.5319 18.8723L19.2553 24.8298M36.3829 18.8723L19.2553 24.8298M19.2553 24.8298L15.5319 30.117L18.5106 31.0975M66.1702 65.7872V50.1489L50.5319 65.7872H66.1702Z" stroke="url(#paint0_angular_65_14212)" stroke-width="2"/>
<defs>
<radialGradient id="paint0_angular_65_14212" cx="-.5" cy="-.5" r="1" gradientUnits="userSpaceOnUse" gradientTransform="translate(37.5 36) rotate(41.0994) scale(31.185 32.1802)">
  <stop offset="0.85" stop-color="#e7d1b2"/>
  <stop offset="1" stop-color="#82a9e4"/>
</radialGradient>
</defs>
</svg>
