<svg width="50" height="72" viewBox="0 0 50 72" fill="none" xmlns="http://www.w3.org/2000/svg">
<path d="M6.66663 61.8333H20C19.8333 62.6667 19.1666 66.8334 13.3333 66.8334C7.49994 66.8334 6.83329 62.6667 6.66663 61.8333Z" fill="url(#paint0_linear_65_14222)"/>
<path d="M33.3333 41.75L37.9166 37.1667L42.5 32.5833C43.3333 33.4167 45 37.5833 41.6667 40.9167C38.3333 44.25 34.1667 42.5833 33.3333 41.75Z" fill="url(#paint1_linear_65_14222)"/>
<path d="M18.3333 10.1667V5.16667H13.6038C10.4563 5.16667 7.66194 7.18071 6.66663 10.1667H18.3333Z" fill="url(#paint2_linear_65_14222)"/>
<path d="M25 24.3333H36.6666C43.1099 24.3333 48.3333 19.11 48.3333 12.6667C48.3333 6.22335 43.1099 1 36.6666 1H25M25 24.3333V47.6667M25 24.3333V1M25 24.3333H13.3333M13.3333 24.3333C6.88997 24.3333 1.66663 29.5567 1.66663 36C1.66663 42.4433 6.88997 47.6667 13.3333 47.6667M13.3333 24.3333C6.88997 24.3333 1.66663 19.11 1.66663 12.6667C1.66663 6.22335 6.88997 1 13.3333 1H25M25 47.6667H13.3333M25 47.6667V59.3333C25 65.7767 19.7766 71 13.3333 71C6.88997 71 1.66663 65.7767 1.66663 59.3333C1.66663 52.89 6.88997 47.6667 13.3333 47.6667M44.5833 43.9167C48.4953 40.0046 48.4953 33.662 44.5833 29.75C40.6713 25.838 34.3286 25.838 30.4166 29.75C26.5046 33.662 26.5046 40.0046 30.4166 43.9167C34.3286 47.8287 40.6713 47.8287 44.5833 43.9167ZM20 61.8333H6.66663C6.83329 62.6667 7.49994 66.8334 13.3333 66.8334C19.1666 66.8334 19.8333 62.6667 20 61.8333ZM42.5 32.5833C43.3333 33.4167 45 37.5833 41.6667 40.9167C38.3333 44.25 34.1667 42.5833 33.3333 41.75L37.9166 37.1667L42.5 32.5833ZM18.3333 5.16667V10.1667H6.66663C7.66194 7.18071 10.4563 5.16667 13.6038 5.16667H18.3333Z" stroke="url(#paint3_angular_65_14222)" stroke-width="2"/>
<defs>
<linearGradient id="paint0_linear_65_14222" x1="6" y1="61.5" x2="20.5" y2="61.5" gradientUnits="userSpaceOnUse">
<stop stop-color="#82a9e4"/>
<stop offset="1" stop-color="#82a9e4"/>
</linearGradient>
<linearGradient id="paint1_linear_65_14222" x1="42.5" y1="31.5" x2="36.5" y2="43.5" gradientUnits="userSpaceOnUse">
<stop stop-color="#82a9e4"/>
<stop offset="0.932292" stop-color="#82a9e4"/>
</linearGradient>
<linearGradient id="paint2_linear_65_14222" x1="19" y1="4.5" x2="5.5" y2="11" gradientUnits="userSpaceOnUse">
<stop stop-color="#e7d1b2"/>
<stop offset="0.932292" stop-color="#e7d1b2"/>
</linearGradient>
<radialGradient id="paint3_angular_65_14222" cx="-.75" cy="-.5" r="1" gradientUnits="userSpaceOnUse" gradientTransform="translate(13 36) rotate(90) scale(35 23.3333)">
<stop offset="0.85" stop-color="#e7d1b2"/>
  <stop offset="1" stop-color="#82a9e4"/>
</radialGradient>
</defs>
</svg>
