<svg width="74" height="74" viewBox="0 0 74 74" fill="none" xmlns="http://www.w3.org/2000/svg">
<path d="M51.8696 34.6522C62.0435 34.6522 64.3913 33.0869 64.3913 26.8261H51.8696M51.8696 34.6522V26.8261M51.8696 34.6522C37.1983 34.6522 37.0026 46.0803 43.7655 57.6609M51.8696 34.6522C52.6522 44.8261 51.087 49.5217 43.7655 57.6609M22.1304 34.6522C11.9565 34.6522 9.60869 33.0869 9.60869 26.8261H22.1304M22.1304 34.6522V26.8261M22.1304 34.6522C21.6326 41.124 22.0848 45.3791 24.3644 49.7139M22.1304 34.6522C28.5944 34.6522 32.2484 36.8706 33.7354 40.343M22.1304 26.8261C16.6522 24.4783 16.6522 21.3478 16.6522 13.5217C19.7826 16.6522 22.913 22.1304 26.0435 22.1304H47.9565C51.087 22.1304 54.2174 16.6522 57.3478 13.5217C57.3478 14.6994 57.3478 15.7708 57.3292 16.7492M22.1304 26.8261H31.9913M51.8696 26.8261H49.5429M51.8696 26.8261C55.7907 25.1456 56.9052 23.0642 57.222 19.147M30.2345 57.6609C30.1431 57.8174 30.0504 57.9739 29.9565 58.1304C27.6087 62.0435 24.4783 63.6087 29.1739 66.7391C35.4348 69.0869 38.5652 69.0869 44.8261 66.7391C49.5217 63.6087 46.3913 62.0435 44.0435 58.1304C43.9496 57.9739 43.8569 57.8174 43.7655 57.6609M30.2345 57.6609C28.0902 55.2771 26.4397 53.1888 25.1973 51.1716M30.2345 57.6609C33.5449 51.9922 35.188 46.36 34.2821 42.0869M28.2348 45.7652C26.9826 45.7652 25.887 44.6696 25.887 43.4174C25.887 42.1652 26.9826 41.0695 28.2348 41.0695C29.487 41.0695 30.5826 42.1652 30.5826 43.4174M31.9913 26.8261V31.6783M31.9913 26.8261H37M42.0087 26.8261V31.6783M42.0087 26.8261H37M42.0087 26.8261H47.2522M37 26.8261V34.4956M24.3644 49.7139L33.7354 40.343M24.3644 49.7139L12.4849 61.5934C6.29839 55.4277 2.56523 46.8033 2.56523 37C2.56522 17.4348 17.4348 2.56524 37 2.56522C46.8033 2.56521 55.4278 6.29836 61.5935 12.4848L57.3292 16.7492M25.1973 51.1716L34.2821 42.0869M25.1973 51.1716L13.6603 62.7087C19.7169 68.1785 27.8443 71.4347 37 71.4348C56.5652 71.4348 71.4348 56.5652 71.4348 37C71.4348 27.8443 68.1786 19.7168 62.7087 13.6603L57.222 19.147M33.7354 40.343L47.2522 26.8261M34.2821 42.0869L49.5429 26.8261M47.2522 26.8261L57.3292 16.7492M49.5429 26.8261L57.222 19.147M37 1C16.6522 1.00001 1 16.6522 1 37C1 47.1945 4.92888 56.2103 11.4088 62.6695C11.5894 62.8496 11.772 63.0276 11.9565 63.2037C12.1628 63.4004 12.3715 63.5947 12.5826 63.7864C18.9315 69.551 27.4484 73 37 73C57.3478 73 73 57.3478 73 37C73 27.4484 69.551 18.9315 63.7864 12.5826C63.5947 12.3715 63.4005 12.1628 63.2037 11.9565C63.0277 11.772 62.8496 11.5894 62.6696 11.4088C56.2103 4.92888 47.1945 0.999996 37 1ZM45.7652 41.0695C44.513 41.0695 43.4174 42.1652 43.4174 43.4174C43.4174 44.6696 44.513 45.7652 45.7652 45.7652C47.0174 45.7652 48.113 44.6696 48.113 43.4174C48.113 42.1652 47.0174 41.0695 45.7652 41.0695ZM34.4957 62.2443C33.8696 62.2443 33.4 62.6695 33.4 63.2956C33.4 63.9217 33.8696 64.3913 34.4957 64.3913C35.1217 64.3913 35.5913 63.9217 35.5913 63.2956C35.5913 62.6695 35.1217 62.2443 34.4957 62.2443ZM39.5043 62.2443C38.8783 62.2443 38.4087 62.6695 38.4087 63.2956C38.4087 63.9217 38.8783 64.3913 39.5043 64.3913C40.1304 64.3913 40.6 63.9217 40.6 63.2956C40.6 62.6695 40.1304 62.2443 39.5043 62.2443Z" stroke="url(#paint0_angular_211_19663)"/>
<defs>
<radialGradient id="paint0_angular_211_19663" cx="0" cy="0" r="1" gradientUnits="userSpaceOnUse" gradientTransform="translate(37 37) rotate(90) scale(36)">
<stop offset="0.499628" stop-color="white"/>
<stop offset="1" stop-color="#E4C4CF"/>
</radialGradient>
</defs>
</svg>
