<svg width="79" height="74" viewBox="0 0 79 74" fill="none" xmlns="http://www.w3.org/2000/svg">
<path d="M4.09013 68.3648H1V73H78.2532V68.3648H75.1631M4.09013 68.3648V56.0043M4.09013 68.3648H22.6309M4.09013 56.0043H22.6309M4.09013 56.0043H2.54506V51.3691H4.09013M22.6309 56.0043V68.3648M22.6309 56.0043V51.3691M22.6309 68.3648H27.2661M22.6309 51.3691H4.09013M22.6309 51.3691V39.0086M4.09013 51.3691V39.0086M4.09013 39.0086H1V25.103H24.176M4.09013 39.0086H15.6781M22.6309 39.0086H18.7682M22.6309 39.0086V35.1459M75.1631 68.3648V56.0043M75.1631 68.3648H56.6223M75.1631 56.0043H56.6223M75.1631 56.0043H76.7082V51.3691H75.1631M56.6223 56.0043V68.3648M56.6223 56.0043V51.3691M56.6223 68.3648H51.9871M56.6223 39.0086V51.3691M56.6223 39.0086H60.485M56.6223 39.0086V35.1459M75.1631 39.0086V51.3691M75.1631 39.0086H78.2532V25.103H53.5322M75.1631 39.0086H63.5751M75.1631 51.3691H56.6223M34.9914 68.3648V57.5494H44.2618V68.3648M34.9914 68.3648H44.2618M34.9914 68.3648H33.4464H31.9013M44.2618 68.3648H45.8069H47.3519M30.3562 68.3648V54.4592H28.8112V68.3648M30.3562 68.3648H28.8112M30.3562 68.3648H31.9013M28.8112 68.3648H27.2661M48.897 68.3648V54.4592H50.4421V68.3648M48.897 68.3648H50.4421M48.897 68.3648H47.3519M50.4421 68.3648H51.9871M31.9013 68.3648V54.4592H47.3519V68.3648M27.2661 68.3648V54.4592H24.176V48.279H55.0773V54.4592H51.9871V68.3648M15.6781 39.0086L13.3605 36.691L39.0086 11.0429M15.6781 39.0086L17.2232 40.5536L18.7682 39.0086M18.7682 39.0086L22.6309 35.1459M60.485 39.0086L62.03 40.5536L63.5751 39.0086M60.485 39.0086L56.6223 35.1459M63.5751 39.0086L65.8927 36.691L40.2446 11.0429M22.6309 35.1459L39.6266 18.1502L56.6223 35.1459M39.0086 11.0429L39.6266 10.4249L40.2446 11.0429M39.0086 11.0429V1H48.279V7.79828H40.2446V11.0429M25.721 52.9142V49.824H53.5322V52.9142H25.721ZM39.6266 30.3562C35.6094 30.3562 32.6738 33.2918 32.6738 37.309C32.6738 41.3262 35.6094 44.2618 39.6266 44.2618C43.6438 44.2618 46.5794 41.3262 46.5794 37.309C46.5794 33.2918 43.6438 30.3562 39.6266 30.3562ZM36.5365 36.5365C35.9185 36.5365 35.9185 37.7725 36.5365 37.7725H40.2446V32.2103C40.2446 31.5923 39.0086 31.5923 39.0086 32.2103V36.5365H36.5365ZM40.5536 2.23605V6.25322H46.7339V2.23605H40.5536ZM8.72532 42.0987V48.279H14.9056V42.0987H8.72532ZM7.18026 48.279C7.18026 49.206 7.79828 49.824 8.72532 49.824H14.9056C15.8326 49.824 16.4506 49.206 16.4506 48.279V42.0987C16.4506 41.1717 15.8326 40.5536 14.9056 40.5536H8.72532C7.79828 40.5536 7.18026 41.1717 7.18026 42.0987V48.279ZM8.72532 59.0944V65.2747H14.9056V59.0944H8.72532ZM7.18026 65.2747C7.18026 66.2017 7.79828 66.8197 8.72532 66.8197H14.9056C15.8326 66.8197 16.4506 66.2017 16.4506 65.2747V59.0944C16.4506 58.1674 15.8326 57.5494 14.9056 57.5494H8.72532C7.79828 57.5494 7.18026 58.1674 7.18026 59.0944V65.2747ZM64.3476 59.0944V65.2747H70.5279V59.0944H64.3476ZM62.8026 65.2747C62.8026 66.2017 63.4206 66.8197 64.3476 66.8197H70.5279C71.4549 66.8197 72.073 66.2017 72.073 65.2747V59.0944C72.073 58.1674 71.4549 57.5494 70.5279 57.5494H64.3476C63.4206 57.5494 62.8026 58.1674 62.8026 59.0944V65.2747ZM64.3476 42.0987V48.279H70.5279V42.0987H64.3476ZM62.8026 48.279C62.8026 49.206 63.4206 49.824 64.3476 49.824H70.5279C71.4549 49.824 72.073 49.206 72.073 48.279V42.0987C72.073 41.1717 71.4549 40.5536 70.5279 40.5536H64.3476C63.4206 40.5536 62.8026 41.1717 62.8026 42.0987V48.279Z" stroke="#B5CF54"/>
</svg>
