<svg width="76" height="74" viewBox="0 0 76 74" fill="none" xmlns="http://www.w3.org/2000/svg">
<path d="M2.19735 39.5543C0.6009 39.5543 0.600866 34.7649 2.19735 34.7649C2.19735 34.7649 9.2217 34.7649 9.2217 30.9335L9.22168 15.6075C9.22168 2.83589 29.6562 2.83589 29.6562 15.6075V20.3969C29.6562 25.5055 39.8735 25.5055 39.8735 20.3969V7.62525H38.9157C37.3193 7.62525 36.6807 6.66738 37.3192 6.0288L42.1086 1.23944C42.4279 0.920185 42.4279 0.920185 42.7472 1.23944L47.5365 6.0288C48.1752 6.66738 47.5365 7.62525 45.9401 7.62525H44.9822V20.3969C44.9822 32.2106 24.5476 32.2106 24.5476 20.3969V15.6075C24.5476 10.1796 14.3303 10.1796 14.3303 15.6075V30.9335C14.3303 32.3133 14.0195 33.4722 13.4973 34.4457M2.19735 39.5543C2.19735 39.5543 10.7572 39.5543 13.4973 34.4457M2.19735 39.5543L23.5331 39.5544M15.3395 39.5544C17.5166 39.903 19.439 41.393 19.439 44.0244V58.7118C19.439 70.5255 39.8736 70.5255 39.8736 58.7118L39.8736 54.0821C39.8736 48.6541 50.0909 48.6541 50.0909 54.0821V66.3747H49.133C47.5365 66.3747 46.8979 67.3326 47.5365 67.9712L52.3259 72.7606C52.6451 73.0798 52.6451 73.0798 52.9645 72.7606L57.7539 67.9712C58.3923 67.3326 57.7538 66.3747 56.1574 66.3747H55.1995V54.0821C55.1995 41.3104 34.765 41.3104 34.765 54.0821V58.7118C34.765 63.8204 24.5477 63.8204 24.5477 58.7118L24.5476 44.0244C24.5476 42.3021 24.1761 40.8121 23.5331 39.5544M13.4973 34.4457H51.3681V33.4879C51.3681 31.8915 52.3259 31.2529 52.9645 31.8914L57.7539 36.6808C58.0731 37.0002 58.0731 37.0002 57.7539 37.3194L52.9645 42.1087C52.3259 42.7474 51.3681 42.1087 51.3681 40.5123V39.5544L23.5331 39.5544M66.694 29.0178C62.224 29.0178 58.7118 32.53 58.7118 37.0001C58.7118 41.4702 62.224 44.9824 66.694 44.9824C71.1641 44.9823 74.6763 41.4702 74.6763 37.0001C74.6763 32.53 71.1641 29.0178 66.694 29.0178ZM62.5432 37.0001C61.745 36.2019 63.3415 34.6054 64.1397 35.4036L65.7361 37.0001L69.2483 33.4879C70.0466 32.6897 71.643 34.2861 70.8448 35.0843L65.7361 40.193L62.5432 37.0001Z" stroke="#B5CF54"/>
</svg>
