<svg width="57" height="74" viewBox="0 0 57 74" fill="none" xmlns="http://www.w3.org/2000/svg">
<path d="M56.1489 22.4468V73H1V1H34.7021M56.1489 22.4468L34.7021 1M56.1489 22.4468H34.7021V1M40.1045 54.617C37.7069 56.2157 36.234 58.9516 36.234 62.2766C36.234 67.6383 40.0638 71.4681 45.4255 71.4681C50.7872 71.4681 54.617 67.6383 54.617 62.2766C54.617 56.9149 50.7872 53.0851 45.4255 53.0851C45.0608 53.0851 44.7031 53.1028 44.3532 53.1376M40.1045 54.617H10.1915L23.9787 37.766L30.1064 46.9574L34.7021 40.8298L44.3532 53.1376M40.1045 54.617C41.3101 53.8131 42.7496 53.2967 44.3532 53.1376M43.8936 68.8638H46.9574V61.2043H50.0213L45.4255 56.6085L40.8298 61.2043H43.8936V68.8638ZM42.3617 31.0255C40.5234 31.0255 39.2979 32.2511 39.2979 34.0894C39.2979 35.9277 40.5234 37.1532 42.3617 37.1532C44.2 37.1532 45.4255 35.9277 45.4255 34.0894C45.4255 32.2511 44.2 31.0255 42.3617 31.0255Z" stroke="url(#paint0_angular_211_19660)"/>
<defs>
<radialGradient id="paint0_angular_211_19660" cx="0" cy="0" r="1" gradientUnits="userSpaceOnUse" gradientTransform="translate(28.5745 37) rotate(90) scale(36 27.5745)">
<stop offset="0.50208" stop-color="white"/>
<stop offset="1" stop-color="#E4C4CF"/>
</radialGradient>
</defs>
</svg>
