<svg width="58" height="74" viewBox="0 0 58 74" fill="none" xmlns="http://www.w3.org/2000/svg">
<path d="M12.1607 26.5673H2.54288C0.485691 26.5673 0.485721 23.0408 2.54288 23.0408H11.3592L13.3629 31.8571M18.7062 55.3673H51.9143L54.4123 43.6122M18.7062 55.3673L16.0345 43.6122M18.7062 55.3673V61.8431M13.3629 31.8571H56.9102L54.4123 43.6122M13.3629 31.8571L16.0345 43.6122M16.0345 43.6122H54.4123M30.6082 55.3673L27.9366 43.6122L25.2649 31.8571M40.3061 55.3673L42.8041 43.6122L45.302 31.8571M27.5225 67.1225C27.5225 63.449 25.3184 61.2449 21.6449 61.2449C17.9714 61.2449 15.7673 63.449 15.7673 67.1225C15.7673 70.7959 17.9714 73 21.6449 73C25.3184 73 27.5225 70.7959 27.5225 67.1225ZM27.5225 67.1225H40.7469M40.7469 67.1225C40.7469 70.7959 42.951 73 46.6245 73C50.298 73 52.502 70.7959 52.502 67.1225C52.502 63.449 50.298 61.2449 46.6245 61.2449C42.951 61.2449 40.7469 63.449 40.7469 67.1225ZM39.2776 11.2857H45.1551L34.8694 1L24.5837 11.2857H30.4612M18.5943 41.6957H20.0637L18.7061 36.2653C18.4122 35.3837 16.9429 35.3837 17.2367 36.2653L18.5943 41.6957ZM19.5335 45.4522H21.0028L22.3796 50.9592H27.6087L27.9026 52.4286H22.3796C21.351 52.2816 21.0571 51.6939 20.9102 50.9592L20.1755 48.0204L19.5335 45.4522ZM31.6783 50.9592L31.9721 52.4286H38.8974L39.1913 50.9592H31.6783ZM43.2417 50.9592L42.9478 52.4286H48.9755C49.8571 52.4286 49.8571 50.9592 48.9755 50.9592H43.2417ZM21.6449 65.2122C20.6163 65.2122 19.8816 65.9469 19.8816 66.9755C19.8816 68.0041 20.6163 68.7388 21.6449 68.7388C22.6735 68.7388 23.4082 68.0041 23.4082 66.9755C23.4082 65.9469 22.6735 65.2122 21.6449 65.2122ZM46.6245 65.2122C45.5959 65.2122 44.8612 65.9469 44.8612 66.9755C44.8612 68.0041 45.5959 68.7388 46.6245 68.7388C47.6531 68.7388 48.3878 68.0041 48.3878 66.9755C48.3878 65.9469 47.6531 65.2122 46.6245 65.2122ZM30.4612 27.449H39.2776V17.1633H45.1551L34.8694 6.87755L24.5837 17.1633H30.4612V27.449Z" stroke="black"/>
</svg>
