<svg width="35" height="72" viewBox="0 0 35 72" fill="none" xmlns="http://www.w3.org/2000/svg">
<path d="M15.4448 65.5213H15.1428C14.5526 65.5213 14.0741 65.9998 14.0741 66.59V69.9313C14.0741 70.5215 14.5526 71 15.1428 71H30.1387C30.7289 71 31.2074 70.5215 31.2074 69.9313V66.59C31.2074 65.9998 30.7289 65.5213 30.1387 65.5213H29.8367M15.4448 65.5213L7.22078 49.7701C7.22078 49.7701 6.90449 48.4531 7.22078 47.7156C7.51897 47.0204 7.89565 46.6439 8.59144 46.346C9.32161 46.0333 9.85458 46.159 10.6227 46.3401L10.6474 46.346C12.8882 46.8743 14.0741 51.8246 14.0741 51.1398L14.0741 41.6107M15.4448 65.5213H29.8367M18.8714 41.5521V31.9644C18.8714 31.2796 18.2036 30.8757 17.5008 30.5948C16.8154 30.3208 16.1301 30.3208 15.4448 30.5948C14.7419 30.8757 14.0741 31.2796 14.0741 31.9644V33.0611M18.8714 41.5521V47.0308M18.8714 41.5521C18.8714 41.5521 19.5392 40.4634 20.2421 40.1825C20.9274 39.9085 21.6127 39.9085 22.2981 40.1825C23.0009 40.4634 23.6688 40.7957 23.6688 41.5521V42.9218M23.6688 42.9218V46.346M23.6688 42.9218C23.6688 42.9218 24.3366 41.8331 25.0394 41.5521C25.7247 41.2782 26.4101 41.2782 27.0954 41.5521C27.7983 41.8331 28.4661 42.1653 28.4661 42.9218V44.2915M28.4661 44.2915V47.0308M28.4661 44.2915C28.4661 44.2915 29.1339 43.2028 29.8367 42.9218C30.5221 42.6478 31.2074 42.6478 31.8927 42.9218C32.5781 43.1957 33.2634 43.6066 33.2634 44.2915V53.8107L29.8367 65.5213M14.0741 41.6107V37.3359M14.0741 41.6107H4.9428M14.0741 37.3359V33.0611M14.0741 37.3359H4.9428M14.0741 33.0611H4.9428M8.68326 22.9084L12.9581 26.1145L22.042 15.9618M9.21761 54.4351H4.40845C2.93288 54.4351 1.73669 53.2389 1.73669 51.7634V3.67176C1.73669 2.19619 2.93288 1 4.40845 1H27.4196C28.8818 1 30.0724 2.17541 30.0911 3.63751L30.5917 42.6794M5.47715 28.2249V12.2214C5.47715 11.6311 5.95563 11.1527 6.54585 11.1527H25.7825C26.3727 11.1527 26.8512 11.6311 26.8512 12.2214V27.7439C26.8512 28.3238 26.3888 28.7978 25.8092 28.8123L6.57256 29.2932C5.97206 29.3082 5.47715 28.8255 5.47715 28.2249Z" stroke="url(#paint0_angular_65_14219)" stroke-width="2"/>
<defs>
<radialGradient id="paint0_angular_65_14219" cx="-1.5" cy="-.5" r="1" gradientUnits="userSpaceOnUse" gradientTransform="translate(8 36) rotate(90) scale(20 16.0727)">
<stop offset="0.85" stop-color="#e7d1b2"/>
  <stop offset="1" stop-color="#82a9e4"/>
</radialGradient>
</defs>
</svg>

