<svg width="68" height="72" viewBox="0 0 68 72" fill="none" xmlns="http://www.w3.org/2000/svg">
<path d="M34.443 39.9873H30.0126C29.1266 39.9873 28.2405 39.1013 28.2405 38.2152V24.038C28.2405 23.1519 29.1266 22.2658 30.0126 22.2658H55.7088C56.5949 22.2658 57.481 23.1519 57.481 24.038V38.2152C57.481 39.1013 56.5949 39.9873 55.7088 39.9873H51.2785M34.443 39.9873L42.8607 28.4684M34.443 39.9873L32.5548 42.8197C30.4537 45.9712 30.3136 50.0394 32.1929 53.3281L32.6709 54.1646M51.2785 39.9873C51.2785 39.9873 42.8607 28.2911 42.8607 28.4684M51.2785 39.9873L53.1667 42.8197C55.2677 45.9712 55.4078 50.0394 53.5286 53.3281L53.0506 54.1646M42.8607 28.4684V43.5316M32.6709 54.1646H53.0506M32.6709 54.1646V57.7089C32.6709 58.5949 33.5569 59.481 34.443 59.481H35.3291M53.0506 54.1646V57.7089C53.0506 58.5949 52.1645 59.481 51.2785 59.481H50.3924M35.3291 59.481V63.4683C35.3291 67.628 38.7011 71 42.8607 71C47.0203 71 50.3924 67.628 50.3924 63.4684V59.481M35.3291 59.481H50.3924M42.8607 43.5316C44.0841 43.5316 45.0759 44.5234 45.0759 45.7468C45.0759 46.9702 44.0841 47.962 42.8607 47.962C41.6373 47.962 40.6455 46.9702 40.6455 45.7468C40.6455 44.5234 41.6373 43.5316 42.8607 43.5316ZM28.6026 59.481H3.42979C2.54372 59.481 1.65822 58.5949 1.65822 57.7089V52.3924M56.957 59.481H64.5696C65.4557 59.481 66.3418 58.5949 66.3418 57.7089V52.3924M1.65822 52.3924C1.65822 53.2785 2.54367 54.1646 3.42979 54.1646H28.6026M1.65822 52.3924L1.65821 11.6329M66.3418 52.3924C66.3418 53.2785 65.4557 54.1646 64.5696 54.1646C62.0876 54.1646 58.3157 54.1941 56.957 54.1646M66.3418 52.3924V11.6329M1.65821 11.6329L1.6582 2.77215C1.6582 1.88608 2.54428 1 3.43036 1H20.5316M1.65821 11.6329H25.8481M66.3418 11.6329V2.77215C66.3418 1.88608 65.4557 1 64.5696 1H30.3671M66.3418 11.6329H35.6835M20.5316 1H30.3671M20.5316 1L25.8481 11.6329M30.3671 1L35.6835 11.6329M25.8481 11.6329H35.6835M8.74681 23.1519H21.5063M8.74681 28.4684H21.5063M8.74681 33.7848H21.5063M8.74681 39.1013H21.5063" stroke="url(#paint0_angular_65_14215)" stroke-width="2"/>
<defs>
<radialGradient id="paint0_angular_65_14215" cx="-.5" cy="-.5" r="1" gradientUnits="userSpaceOnUse" gradientTransform="translate(35 36) rotate(41.0994) scale(31.185 32.1802)">
<stop offset="0.85" stop-color="#e7d1b2"/>
  <stop offset="1" stop-color="#82a9e4"/>
</radialGradient>
</defs>
</svg>