<svg width="659" height="1856" viewBox="0 0 659 1856" fill="none" xmlns="http://www.w3.org/2000/svg">
<circle cx="224" cy="1752" r="104" fill="#B5CF54"/>
<path d="M196.705 1764V1739.27H211.629V1741.93H199.7V1750.28H210.856V1752.94H199.7V1761.34H211.822V1764H196.705ZM219.115 1752.84V1764H216.265V1745.45H219.018V1748.35H219.259C219.694 1747.41 220.354 1746.65 221.24 1746.08C222.125 1745.5 223.268 1745.21 224.669 1745.21C225.924 1745.21 227.023 1745.47 227.965 1745.99C228.907 1746.49 229.639 1747.27 230.162 1748.3C230.685 1749.33 230.947 1750.64 230.947 1752.22V1764H228.098V1752.41C228.098 1750.95 227.719 1749.82 226.963 1749C226.206 1748.18 225.168 1747.77 223.848 1747.77C222.938 1747.77 222.125 1747.97 221.409 1748.36C220.7 1748.76 220.141 1749.33 219.73 1750.09C219.32 1750.85 219.115 1751.77 219.115 1752.84ZM242.783 1764.39C241.237 1764.39 239.873 1764 238.69 1763.22C237.506 1762.43 236.581 1761.32 235.913 1759.88C235.245 1758.44 234.911 1756.74 234.911 1754.78C234.911 1752.83 235.245 1751.14 235.913 1749.7C236.581 1748.27 237.51 1747.17 238.702 1746.38C239.893 1745.6 241.269 1745.21 242.831 1745.21C244.038 1745.21 244.992 1745.41 245.692 1745.82C246.401 1746.21 246.94 1746.66 247.31 1747.17C247.689 1747.67 247.983 1748.08 248.192 1748.4H248.433V1739.27H251.283V1764H248.53V1761.15H248.192C247.983 1761.49 247.685 1761.92 247.298 1762.43C246.912 1762.94 246.361 1763.39 245.644 1763.79C244.928 1764.19 243.974 1764.39 242.783 1764.39ZM243.169 1761.83C244.312 1761.83 245.278 1761.53 246.067 1760.93C246.856 1760.33 247.455 1759.5 247.866 1758.43C248.276 1757.36 248.482 1756.13 248.482 1754.73C248.482 1753.34 248.28 1752.13 247.878 1751.09C247.475 1750.05 246.88 1749.23 246.091 1748.65C245.302 1748.07 244.328 1747.77 243.169 1747.77C241.962 1747.77 240.956 1748.08 240.151 1748.7C239.354 1749.31 238.754 1750.15 238.352 1751.2C237.957 1752.25 237.76 1753.42 237.76 1754.73C237.76 1756.05 237.961 1757.25 238.364 1758.33C238.774 1759.4 239.378 1760.25 240.175 1760.88C240.98 1761.51 241.978 1761.83 243.169 1761.83Z" fill="black"/>
<circle cx="224" cy="104" r="104" fill="#B5CF54"/>
<path d="M201.587 97.4545C201.442 96.2311 200.855 95.2812 199.825 94.6051C198.794 93.929 197.53 93.5909 196.033 93.5909C194.939 93.5909 193.981 93.768 193.16 94.1222C192.347 94.4763 191.711 94.9633 191.252 95.5831C190.801 96.2029 190.576 96.9072 190.576 97.696C190.576 98.3561 190.733 98.9235 191.047 99.3984C191.369 99.8653 191.779 100.256 192.278 100.57C192.777 100.875 193.301 101.129 193.848 101.33C194.395 101.523 194.898 101.68 195.357 101.801L197.869 102.477C198.513 102.646 199.229 102.88 200.018 103.178C200.815 103.475 201.575 103.882 202.3 104.397C203.032 104.904 203.636 105.556 204.111 106.353C204.586 107.15 204.823 108.128 204.823 109.287C204.823 110.623 204.473 111.83 203.773 112.909C203.08 113.988 202.066 114.845 200.73 115.481C199.402 116.117 197.788 116.435 195.888 116.435C194.118 116.435 192.584 116.149 191.288 115.577C190 115.006 188.986 114.209 188.246 113.187C187.513 112.165 187.099 110.977 187.002 109.625H190.093C190.173 110.559 190.487 111.331 191.035 111.943C191.59 112.547 192.29 112.998 193.136 113.295C193.989 113.585 194.906 113.73 195.888 113.73C197.031 113.73 198.058 113.545 198.967 113.175C199.877 112.796 200.597 112.273 201.129 111.605C201.66 110.929 201.925 110.14 201.925 109.239C201.925 108.418 201.696 107.75 201.237 107.234C200.778 106.719 200.175 106.301 199.426 105.979C198.678 105.657 197.869 105.375 196.999 105.134L193.957 104.264C192.025 103.709 190.495 102.916 189.369 101.886C188.242 100.855 187.678 99.5071 187.678 97.8409C187.678 96.4564 188.053 95.2491 188.801 94.2188C189.558 93.1804 190.572 92.3755 191.844 91.804C193.124 91.2244 194.552 90.9347 196.13 90.9347C197.724 90.9347 199.14 91.2204 200.38 91.7919C201.62 92.3553 202.602 93.1281 203.326 94.1101C204.058 95.0921 204.445 96.2069 204.485 97.4545H201.587ZM217.051 97.4545V99.8693H207.44V97.4545H217.051ZM210.242 93.0114H213.091V110.688C213.091 111.492 213.208 112.096 213.441 112.499C213.683 112.893 213.988 113.159 214.359 113.295C214.737 113.424 215.135 113.489 215.554 113.489C215.868 113.489 216.126 113.473 216.327 113.44C216.528 113.4 216.689 113.368 216.81 113.344L217.389 115.903C217.196 115.976 216.926 116.048 216.58 116.121C216.234 116.201 215.796 116.241 215.264 116.241C214.459 116.241 213.671 116.068 212.898 115.722C212.133 115.376 211.497 114.849 210.99 114.141C210.491 113.432 210.242 112.539 210.242 111.46V93.0114ZM226.421 116.435C225.246 116.435 224.179 116.213 223.221 115.771C222.263 115.32 221.503 114.672 220.939 113.827C220.376 112.973 220.094 111.943 220.094 110.736C220.094 109.673 220.303 108.812 220.722 108.152C221.141 107.484 221.7 106.961 222.4 106.582C223.1 106.204 223.873 105.922 224.718 105.737C225.572 105.544 226.429 105.391 227.29 105.278C228.417 105.134 229.331 105.025 230.031 104.952C230.739 104.872 231.254 104.739 231.576 104.554C231.906 104.369 232.071 104.047 232.071 103.588V103.491C232.071 102.3 231.745 101.375 231.093 100.714C230.449 100.054 229.471 99.7244 228.159 99.7244C226.799 99.7244 225.733 100.022 224.96 100.618C224.187 101.214 223.644 101.849 223.33 102.526L220.625 101.56C221.108 100.433 221.752 99.5554 222.557 98.9276C223.37 98.2917 224.256 97.849 225.213 97.5994C226.179 97.3419 227.129 97.2131 228.063 97.2131C228.658 97.2131 229.343 97.2855 230.115 97.4304C230.896 97.5672 231.649 97.853 232.373 98.2876C233.106 98.7223 233.713 99.3783 234.196 100.256C234.679 101.133 234.921 102.308 234.921 103.781V116H232.071V113.489H231.926C231.733 113.891 231.411 114.322 230.961 114.781C230.51 115.239 229.91 115.63 229.162 115.952C228.413 116.274 227.499 116.435 226.421 116.435ZM226.855 113.875C227.982 113.875 228.932 113.654 229.705 113.211C230.486 112.768 231.073 112.197 231.468 111.496C231.87 110.796 232.071 110.06 232.071 109.287V106.679C231.951 106.824 231.685 106.957 231.275 107.077C230.872 107.19 230.405 107.291 229.874 107.379C229.351 107.46 228.84 107.532 228.341 107.597C227.85 107.653 227.451 107.701 227.145 107.741C226.405 107.838 225.712 107.995 225.069 108.212C224.433 108.422 223.917 108.74 223.523 109.166C223.137 109.585 222.944 110.156 222.944 110.881C222.944 111.871 223.31 112.619 224.042 113.126C224.783 113.625 225.721 113.875 226.855 113.875ZM239.748 116V97.4545H242.5V100.256H242.694C243.032 99.3381 243.643 98.5935 244.529 98.022C245.414 97.4505 246.412 97.1648 247.523 97.1648C247.732 97.1648 247.994 97.1688 248.308 97.1768C248.622 97.1849 248.859 97.197 249.02 97.2131V100.111C248.924 100.087 248.702 100.05 248.356 100.002C248.018 99.9458 247.66 99.9176 247.282 99.9176C246.38 99.9176 245.575 100.107 244.867 100.485C244.167 100.855 243.611 101.371 243.201 102.031C242.798 102.683 242.597 103.427 242.597 104.264V116H239.748ZM261.251 97.4545V99.8693H251.641V97.4545H261.251ZM254.442 93.0114H257.291V110.688C257.291 111.492 257.408 112.096 257.641 112.499C257.883 112.893 258.189 113.159 258.559 113.295C258.937 113.424 259.336 113.489 259.754 113.489C260.068 113.489 260.326 113.473 260.527 113.44C260.728 113.4 260.889 113.368 261.01 113.344L261.59 115.903C261.396 115.976 261.127 116.048 260.781 116.121C260.434 116.201 259.996 116.241 259.465 116.241C258.66 116.241 257.871 116.068 257.098 115.722C256.333 115.376 255.697 114.849 255.19 114.141C254.691 113.432 254.442 112.539 254.442 111.46V93.0114Z" fill="black"/>
<rect x="120" y="258" width="208" height="208" rx="25" fill="#B5CF54"/>
<path d="M168.921 349.273V374H166.023L152.549 354.585H152.307V374H149.313V349.273H152.211L165.734 368.736H165.975V349.273H168.921ZM181.928 374.386C180.141 374.386 178.6 373.992 177.304 373.203C176.016 372.406 175.022 371.295 174.321 369.871C173.629 368.438 173.283 366.772 173.283 364.872C173.283 362.973 173.629 361.298 174.321 359.849C175.022 358.393 175.996 357.258 177.243 356.445C178.499 355.624 179.964 355.213 181.638 355.213C182.604 355.213 183.558 355.374 184.5 355.696C185.441 356.018 186.299 356.541 187.071 357.266C187.844 357.982 188.46 358.932 188.919 360.115C189.377 361.298 189.607 362.755 189.607 364.486V365.693H175.311V363.23H186.709C186.709 362.184 186.5 361.25 186.081 360.429C185.671 359.608 185.083 358.96 184.319 358.485C183.562 358.01 182.668 357.773 181.638 357.773C180.503 357.773 179.521 358.054 178.692 358.618C177.871 359.173 177.239 359.898 176.797 360.791C176.354 361.685 176.132 362.643 176.132 363.665V365.307C176.132 366.707 176.374 367.895 176.857 368.869C177.348 369.835 178.028 370.571 178.897 371.078C179.767 371.577 180.777 371.827 181.928 371.827C182.676 371.827 183.353 371.722 183.956 371.513C184.568 371.295 185.095 370.973 185.538 370.547C185.981 370.112 186.323 369.573 186.564 368.929L189.317 369.702C189.027 370.635 188.54 371.456 187.856 372.165C187.172 372.865 186.327 373.412 185.321 373.807C184.314 374.193 183.184 374.386 181.928 374.386ZM197.769 374L192.119 355.455H195.113L199.121 369.653H199.315L203.275 355.455H206.317L210.229 369.605H210.423L214.431 355.455H217.425L211.775 374H208.974L204.917 359.753H204.627L200.57 374H197.769ZM246.621 349.273H249.615V365.645C249.615 367.335 249.216 368.844 248.42 370.173C247.631 371.493 246.516 372.535 245.075 373.3C243.634 374.056 241.944 374.435 240.004 374.435C238.064 374.435 236.374 374.056 234.933 373.3C233.492 372.535 232.373 371.493 231.576 370.173C230.788 368.844 230.393 367.335 230.393 365.645V349.273H233.388V365.403C233.388 366.611 233.653 367.685 234.184 368.627C234.716 369.561 235.472 370.297 236.454 370.837C237.444 371.368 238.628 371.634 240.004 371.634C241.38 371.634 242.564 371.368 243.554 370.837C244.544 370.297 245.3 369.561 245.824 368.627C246.355 367.685 246.621 366.611 246.621 365.403V349.273ZM267.97 359.608L265.411 360.332C265.25 359.906 265.012 359.491 264.698 359.089C264.393 358.678 263.974 358.34 263.443 358.075C262.911 357.809 262.231 357.676 261.402 357.676C260.267 357.676 259.322 357.938 258.565 358.461C257.816 358.976 257.442 359.632 257.442 360.429C257.442 361.137 257.7 361.697 258.215 362.107C258.73 362.518 259.535 362.86 260.63 363.134L263.382 363.81C265.04 364.212 266.276 364.828 267.089 365.657C267.902 366.478 268.308 367.536 268.308 368.832C268.308 369.895 268.003 370.845 267.391 371.682C266.787 372.519 265.942 373.179 264.855 373.662C263.769 374.145 262.505 374.386 261.064 374.386C259.173 374.386 257.607 373.976 256.367 373.155C255.128 372.334 254.343 371.134 254.013 369.557L256.718 368.881C256.975 369.879 257.462 370.627 258.179 371.126C258.903 371.625 259.849 371.875 261.016 371.875C262.344 371.875 263.398 371.593 264.179 371.03C264.968 370.458 265.362 369.774 265.362 368.977C265.362 368.333 265.137 367.794 264.686 367.359C264.236 366.917 263.543 366.587 262.61 366.369L259.519 365.645C257.82 365.242 256.573 364.619 255.776 363.773C254.987 362.92 254.593 361.854 254.593 360.574C254.593 359.527 254.886 358.602 255.474 357.797C256.07 356.992 256.879 356.36 257.901 355.901C258.931 355.442 260.098 355.213 261.402 355.213C263.237 355.213 264.678 355.616 265.725 356.42C266.779 357.225 267.528 358.288 267.97 359.608ZM279.999 374.386C278.212 374.386 276.671 373.992 275.375 373.203C274.087 372.406 273.093 371.295 272.393 369.871C271.701 368.438 271.354 366.772 271.354 364.872C271.354 362.973 271.701 361.298 272.393 359.849C273.093 358.393 274.067 357.258 275.315 356.445C276.57 355.624 278.035 355.213 279.71 355.213C280.675 355.213 281.629 355.374 282.571 355.696C283.513 356.018 284.37 356.541 285.143 357.266C285.916 357.982 286.531 358.932 286.99 360.115C287.449 361.298 287.678 362.755 287.678 364.486V365.693H273.383V363.23H284.781C284.781 362.184 284.571 361.25 284.153 360.429C283.742 359.608 283.155 358.96 282.39 358.485C281.633 358.01 280.74 357.773 279.71 357.773C278.575 357.773 277.593 358.054 276.764 358.618C275.942 359.173 275.311 359.898 274.868 360.791C274.425 361.685 274.204 362.643 274.204 363.665V365.307C274.204 366.707 274.445 367.895 274.928 368.869C275.419 369.835 276.099 370.571 276.969 371.078C277.838 371.577 278.848 371.827 279.999 371.827C280.748 371.827 281.424 371.722 282.028 371.513C282.639 371.295 283.167 370.973 283.609 370.547C284.052 370.112 284.394 369.573 284.636 368.929L287.389 369.702C287.099 370.635 286.612 371.456 285.928 372.165C285.243 372.865 284.398 373.412 283.392 373.807C282.386 374.193 281.255 374.386 279.999 374.386ZM291.639 374V355.455H294.392V358.256H294.585C294.923 357.338 295.535 356.594 296.42 356.022C297.305 355.451 298.304 355.165 299.414 355.165C299.624 355.165 299.885 355.169 300.199 355.177C300.513 355.185 300.751 355.197 300.912 355.213V358.111C300.815 358.087 300.594 358.05 300.247 358.002C299.909 357.946 299.551 357.918 299.173 357.918C298.271 357.918 297.466 358.107 296.758 358.485C296.058 358.855 295.502 359.371 295.092 360.031C294.689 360.683 294.488 361.427 294.488 362.264V374H291.639Z" fill="black"/>
<path d="M224.5 212C224.5 211.724 224.276 211.5 224 211.5C223.724 211.5 223.5 211.724 223.5 212H224.5ZM223.646 254.354C223.842 254.549 224.158 254.549 224.354 254.354L227.536 251.172C227.731 250.976 227.731 250.66 227.536 250.464C227.34 250.269 227.024 250.269 226.828 250.464L224 253.293L221.172 250.464C220.976 250.269 220.66 250.269 220.464 250.464C220.269 250.66 220.269 250.976 220.464 251.172L223.646 254.354ZM223.5 212V254H224.5V212H223.5Z" fill="black"/>
<rect x="120" y="516" width="208" height="208" rx="25" fill="#B5CF54"/>
<path d="M148.515 632H140.884V607.273H148.853C151.251 607.273 153.304 607.768 155.01 608.758C156.717 609.74 158.025 611.152 158.934 612.996C159.844 614.831 160.299 617.028 160.299 619.588C160.299 622.164 159.84 624.381 158.922 626.241C158.005 628.092 156.668 629.517 154.914 630.515C153.159 631.505 151.026 632 148.515 632ZM143.878 629.344H148.321C150.366 629.344 152.06 628.949 153.404 628.161C154.749 627.372 155.751 626.249 156.411 624.792C157.071 623.335 157.401 621.6 157.401 619.588C157.401 617.592 157.075 615.873 156.423 614.433C155.771 612.984 154.797 611.873 153.501 611.1C152.205 610.319 150.591 609.929 148.659 609.929H143.878V629.344ZM170.018 632.435C168.843 632.435 167.777 632.213 166.819 631.771C165.861 631.32 165.1 630.672 164.537 629.827C163.973 628.973 163.692 627.943 163.692 626.736C163.692 625.673 163.901 624.812 164.32 624.152C164.738 623.484 165.298 622.961 165.998 622.582C166.698 622.204 167.471 621.922 168.316 621.737C169.169 621.544 170.026 621.391 170.888 621.278C172.015 621.134 172.928 621.025 173.628 620.952C174.337 620.872 174.852 620.739 175.174 620.554C175.504 620.369 175.669 620.047 175.669 619.588V619.491C175.669 618.3 175.343 617.375 174.691 616.714C174.047 616.054 173.069 615.724 171.757 615.724C170.397 615.724 169.33 616.022 168.557 616.618C167.785 617.214 167.241 617.849 166.927 618.526L164.223 617.56C164.706 616.433 165.35 615.555 166.155 614.928C166.968 614.292 167.853 613.849 168.811 613.599C169.777 613.342 170.727 613.213 171.66 613.213C172.256 613.213 172.94 613.286 173.713 613.43C174.494 613.567 175.246 613.853 175.971 614.288C176.703 614.722 177.311 615.378 177.794 616.256C178.277 617.133 178.518 618.308 178.518 619.781V632H175.669V629.489H175.524C175.331 629.891 175.009 630.322 174.558 630.781C174.107 631.239 173.508 631.63 172.759 631.952C172.011 632.274 171.097 632.435 170.018 632.435ZM170.453 629.875C171.58 629.875 172.53 629.654 173.302 629.211C174.083 628.768 174.671 628.197 175.065 627.496C175.468 626.796 175.669 626.06 175.669 625.287V622.679C175.548 622.824 175.283 622.957 174.872 623.077C174.47 623.19 174.003 623.291 173.472 623.379C172.948 623.46 172.437 623.532 171.938 623.597C171.447 623.653 171.049 623.701 170.743 623.741C170.002 623.838 169.31 623.995 168.666 624.212C168.03 624.422 167.515 624.74 167.121 625.166C166.734 625.585 166.541 626.156 166.541 626.881C166.541 627.871 166.907 628.619 167.64 629.126C168.38 629.625 169.318 629.875 170.453 629.875ZM196.482 617.608L193.922 618.332C193.761 617.906 193.523 617.491 193.21 617.089C192.904 616.678 192.485 616.34 191.954 616.075C191.423 615.809 190.742 615.676 189.913 615.676C188.778 615.676 187.833 615.938 187.076 616.461C186.327 616.976 185.953 617.632 185.953 618.429C185.953 619.137 186.211 619.697 186.726 620.107C187.241 620.518 188.046 620.86 189.141 621.134L191.894 621.81C193.552 622.212 194.787 622.828 195.6 623.657C196.413 624.478 196.82 625.536 196.82 626.832C196.82 627.895 196.514 628.845 195.902 629.682C195.298 630.519 194.453 631.179 193.367 631.662C192.28 632.145 191.016 632.386 189.575 632.386C187.684 632.386 186.118 631.976 184.879 631.155C183.639 630.334 182.854 629.134 182.524 627.557L185.229 626.881C185.486 627.879 185.973 628.627 186.69 629.126C187.414 629.625 188.36 629.875 189.527 629.875C190.855 629.875 191.91 629.593 192.69 629.03C193.479 628.458 193.874 627.774 193.874 626.977C193.874 626.333 193.648 625.794 193.197 625.359C192.747 624.917 192.054 624.587 191.121 624.369L188.03 623.645C186.331 623.242 185.084 622.619 184.287 621.773C183.498 620.92 183.104 619.854 183.104 618.574C183.104 617.527 183.398 616.602 183.985 615.797C184.581 614.992 185.39 614.36 186.412 613.901C187.442 613.442 188.609 613.213 189.913 613.213C191.749 613.213 193.189 613.616 194.236 614.42C195.29 615.225 196.039 616.288 196.482 617.608ZM203.584 620.844V632H200.735V607.273H203.584V616.352H203.826C204.26 615.394 204.912 614.634 205.782 614.07C206.659 613.499 207.826 613.213 209.283 613.213C210.547 613.213 211.654 613.467 212.603 613.974C213.553 614.473 214.29 615.241 214.813 616.28C215.344 617.31 215.61 618.622 215.61 620.216V632H212.76V620.409C212.76 618.936 212.378 617.797 211.613 616.992C210.857 616.179 209.806 615.773 208.462 615.773C207.528 615.773 206.691 615.97 205.951 616.364C205.218 616.759 204.639 617.334 204.212 618.091C203.794 618.848 203.584 619.765 203.584 620.844ZM220.835 632V607.273H223.685V616.401H223.926C224.135 616.079 224.425 615.668 224.795 615.169C225.174 614.662 225.713 614.211 226.413 613.817C227.122 613.414 228.079 613.213 229.287 613.213C230.848 613.213 232.225 613.603 233.416 614.384C234.607 615.165 235.537 616.272 236.205 617.705C236.873 619.137 237.207 620.828 237.207 622.776C237.207 624.74 236.873 626.442 236.205 627.883C235.537 629.316 234.611 630.426 233.428 631.215C232.245 631.996 230.881 632.386 229.335 632.386C228.144 632.386 227.19 632.189 226.474 631.795C225.757 631.392 225.206 630.937 224.82 630.43C224.433 629.915 224.135 629.489 223.926 629.151H223.588V632H220.835ZM223.636 622.727C223.636 624.128 223.842 625.363 224.252 626.434C224.663 627.496 225.262 628.33 226.051 628.933C226.84 629.529 227.806 629.827 228.949 629.827C230.14 629.827 231.134 629.513 231.931 628.885C232.736 628.249 233.34 627.396 233.742 626.325C234.153 625.247 234.358 624.047 234.358 622.727C234.358 621.423 234.157 620.248 233.754 619.202C233.36 618.147 232.76 617.314 231.955 616.702C231.158 616.083 230.156 615.773 228.949 615.773C227.79 615.773 226.816 616.067 226.027 616.654C225.238 617.234 224.642 618.047 224.24 619.093C223.838 620.131 223.636 621.343 223.636 622.727ZM248.726 632.386C247.052 632.386 245.583 631.988 244.319 631.191C243.063 630.394 242.081 629.279 241.373 627.847C240.673 626.414 240.323 624.74 240.323 622.824C240.323 620.892 240.673 619.206 241.373 617.765C242.081 616.324 243.063 615.205 244.319 614.408C245.583 613.612 247.052 613.213 248.726 613.213C250.4 613.213 251.865 613.612 253.121 614.408C254.385 615.205 255.367 616.324 256.067 617.765C256.775 619.206 257.129 620.892 257.129 622.824C257.129 624.74 256.775 626.414 256.067 627.847C255.367 629.279 254.385 630.394 253.121 631.191C251.865 631.988 250.4 632.386 248.726 632.386ZM248.726 629.827C249.998 629.827 251.044 629.501 251.865 628.849C252.686 628.197 253.294 627.339 253.688 626.277C254.083 625.214 254.28 624.063 254.28 622.824C254.28 621.584 254.083 620.429 253.688 619.359C253.294 618.288 252.686 617.423 251.865 616.763C251.044 616.103 249.998 615.773 248.726 615.773C247.454 615.773 246.408 616.103 245.587 616.763C244.766 617.423 244.158 618.288 243.764 619.359C243.369 620.429 243.172 621.584 243.172 622.824C243.172 624.063 243.369 625.214 243.764 626.277C244.158 627.339 244.766 628.197 245.587 628.849C246.408 629.501 247.454 629.827 248.726 629.827ZM266.562 632.435C265.387 632.435 264.321 632.213 263.363 631.771C262.405 631.32 261.644 630.672 261.081 629.827C260.517 628.973 260.236 627.943 260.236 626.736C260.236 625.673 260.445 624.812 260.864 624.152C261.282 623.484 261.842 622.961 262.542 622.582C263.242 622.204 264.015 621.922 264.86 621.737C265.713 621.544 266.571 621.391 267.432 621.278C268.559 621.134 269.472 621.025 270.173 620.952C270.881 620.872 271.396 620.739 271.718 620.554C272.048 620.369 272.213 620.047 272.213 619.588V619.491C272.213 618.3 271.887 617.375 271.235 616.714C270.591 616.054 269.613 615.724 268.301 615.724C266.941 615.724 265.874 616.022 265.102 616.618C264.329 617.214 263.785 617.849 263.472 618.526L260.767 617.56C261.25 616.433 261.894 615.555 262.699 614.928C263.512 614.292 264.397 613.849 265.355 613.599C266.321 613.342 267.271 613.213 268.205 613.213C268.8 613.213 269.484 613.286 270.257 613.43C271.038 613.567 271.79 613.853 272.515 614.288C273.247 614.722 273.855 615.378 274.338 616.256C274.821 617.133 275.062 618.308 275.062 619.781V632H272.213V629.489H272.068C271.875 629.891 271.553 630.322 271.102 630.781C270.651 631.239 270.052 631.63 269.303 631.952C268.555 632.274 267.641 632.435 266.562 632.435ZM266.997 629.875C268.124 629.875 269.074 629.654 269.847 629.211C270.627 628.768 271.215 628.197 271.609 627.496C272.012 626.796 272.213 626.06 272.213 625.287V622.679C272.092 622.824 271.827 622.957 271.416 623.077C271.014 623.19 270.547 623.291 270.016 623.379C269.492 623.46 268.981 623.532 268.482 623.597C267.991 623.653 267.593 623.701 267.287 623.741C266.546 623.838 265.854 623.995 265.21 624.212C264.574 624.422 264.059 624.74 263.665 625.166C263.278 625.585 263.085 626.156 263.085 626.881C263.085 627.871 263.451 628.619 264.184 629.126C264.924 629.625 265.862 629.875 266.997 629.875ZM279.889 632V613.455H282.642V616.256H282.835C283.173 615.338 283.785 614.594 284.671 614.022C285.556 613.451 286.554 613.165 287.665 613.165C287.874 613.165 288.136 613.169 288.45 613.177C288.764 613.185 289.001 613.197 289.162 613.213V616.111C289.065 616.087 288.844 616.05 288.498 616.002C288.16 615.946 287.802 615.918 287.423 615.918C286.522 615.918 285.717 616.107 285.009 616.485C284.308 616.855 283.753 617.371 283.342 618.031C282.94 618.683 282.739 619.427 282.739 620.264V632H279.889ZM298.604 632.386C297.059 632.386 295.694 631.996 294.511 631.215C293.328 630.426 292.402 629.316 291.734 627.883C291.066 626.442 290.732 624.74 290.732 622.776C290.732 620.828 291.066 619.137 291.734 617.705C292.402 616.272 293.332 615.165 294.523 614.384C295.714 613.603 297.091 613.213 298.652 613.213C299.86 613.213 300.814 613.414 301.514 613.817C302.222 614.211 302.761 614.662 303.132 615.169C303.51 615.668 303.804 616.079 304.013 616.401H304.255V607.273H307.104V632H304.351V629.151H304.013C303.804 629.489 303.506 629.915 303.12 630.43C302.733 630.937 302.182 631.392 301.466 631.795C300.749 632.189 299.795 632.386 298.604 632.386ZM298.99 629.827C300.133 629.827 301.099 629.529 301.888 628.933C302.677 628.33 303.277 627.496 303.687 626.434C304.098 625.363 304.303 624.128 304.303 622.727C304.303 621.343 304.102 620.131 303.699 619.093C303.297 618.047 302.701 617.234 301.912 616.654C301.123 616.067 300.15 615.773 298.99 615.773C297.783 615.773 296.777 616.083 295.972 616.702C295.175 617.314 294.575 618.147 294.173 619.202C293.779 620.248 293.581 621.423 293.581 622.727C293.581 624.047 293.783 625.247 294.185 626.325C294.596 627.396 295.199 628.249 295.996 628.885C296.801 629.513 297.799 629.827 298.99 629.827Z" fill="black"/>
<path d="M224.5 470C224.5 469.724 224.276 469.5 224 469.5C223.724 469.5 223.5 469.724 223.5 470H224.5ZM223.646 512.354C223.842 512.549 224.158 512.549 224.354 512.354L227.536 509.172C227.731 508.976 227.731 508.66 227.536 508.464C227.34 508.269 227.024 508.269 226.828 508.464L224 511.293L221.172 508.464C220.976 508.269 220.66 508.269 220.464 508.464C220.269 508.66 220.269 508.976 220.464 509.172L223.646 512.354ZM223.5 470V512H224.5V470H223.5Z" fill="black"/>
<rect x="120" y="774" width="208" height="208" rx="25" fill="#B5CF54"/>
<path d="M144.603 890V865.273H152.958C154.89 865.273 156.475 865.603 157.715 866.263C158.954 866.915 159.872 867.812 160.468 868.955C161.063 870.098 161.361 871.398 161.361 872.855C161.361 874.312 161.063 875.604 160.468 876.731C159.872 877.858 158.958 878.743 157.727 879.387C156.495 880.023 154.922 880.341 153.006 880.341H146.245V877.636H152.909C154.23 877.636 155.292 877.443 156.097 877.057C156.91 876.67 157.498 876.123 157.86 875.415C158.23 874.698 158.415 873.845 158.415 872.855C158.415 871.865 158.23 871 157.86 870.259C157.489 869.519 156.898 868.947 156.085 868.545C155.272 868.134 154.197 867.929 152.861 867.929H147.597V890H144.603ZM156.242 878.892L162.327 890H158.85L152.861 878.892H156.242ZM173.167 890.386C171.38 890.386 169.838 889.992 168.542 889.203C167.254 888.406 166.26 887.295 165.56 885.871C164.868 884.438 164.522 882.772 164.522 880.872C164.522 878.973 164.868 877.298 165.56 875.849C166.26 874.393 167.234 873.258 168.482 872.445C169.738 871.624 171.203 871.213 172.877 871.213C173.843 871.213 174.797 871.374 175.738 871.696C176.68 872.018 177.537 872.541 178.31 873.266C179.083 873.982 179.699 874.932 180.157 876.115C180.616 877.298 180.846 878.755 180.846 880.486V881.693H166.55V879.23H177.948C177.948 878.184 177.739 877.25 177.32 876.429C176.91 875.608 176.322 874.96 175.557 874.485C174.801 874.01 173.907 873.773 172.877 873.773C171.742 873.773 170.76 874.054 169.931 874.618C169.11 875.173 168.478 875.898 168.035 876.791C167.593 877.685 167.371 878.643 167.371 879.665V881.307C167.371 882.707 167.613 883.895 168.096 884.869C168.587 885.835 169.267 886.571 170.136 887.078C171.005 887.577 172.016 887.827 173.167 887.827C173.915 887.827 174.591 887.722 175.195 887.513C175.807 887.295 176.334 886.973 176.777 886.547C177.219 886.112 177.562 885.573 177.803 884.929L180.556 885.702C180.266 886.635 179.779 887.456 179.095 888.165C178.411 888.865 177.566 889.412 176.559 889.807C175.553 890.193 174.422 890.386 173.167 890.386ZM197.943 875.608L195.383 876.332C195.222 875.906 194.984 875.491 194.67 875.089C194.365 874.678 193.946 874.34 193.415 874.075C192.884 873.809 192.203 873.676 191.374 873.676C190.239 873.676 189.294 873.938 188.537 874.461C187.788 874.976 187.414 875.632 187.414 876.429C187.414 877.137 187.672 877.697 188.187 878.107C188.702 878.518 189.507 878.86 190.602 879.134L193.354 879.81C195.013 880.212 196.248 880.828 197.061 881.657C197.874 882.478 198.281 883.536 198.281 884.832C198.281 885.895 197.975 886.845 197.363 887.682C196.759 888.519 195.914 889.179 194.827 889.662C193.741 890.145 192.477 890.386 191.036 890.386C189.145 890.386 187.579 889.976 186.34 889.155C185.1 888.334 184.315 887.134 183.985 885.557L186.69 884.881C186.947 885.879 187.434 886.627 188.151 887.126C188.875 887.625 189.821 887.875 190.988 887.875C192.316 887.875 193.371 887.593 194.151 887.03C194.94 886.458 195.335 885.774 195.335 884.977C195.335 884.333 195.109 883.794 194.658 883.359C194.208 882.917 193.515 882.587 192.582 882.369L189.491 881.645C187.792 881.242 186.545 880.619 185.748 879.773C184.959 878.92 184.565 877.854 184.565 876.574C184.565 875.527 184.858 874.602 185.446 873.797C186.042 872.992 186.851 872.36 187.873 871.901C188.903 871.442 190.07 871.213 191.374 871.213C193.21 871.213 194.65 871.616 195.697 872.42C196.751 873.225 197.5 874.288 197.943 875.608ZM209.73 890.386C208.056 890.386 206.587 889.988 205.323 889.191C204.067 888.394 203.085 887.279 202.377 885.847C201.677 884.414 201.327 882.74 201.327 880.824C201.327 878.892 201.677 877.206 202.377 875.765C203.085 874.324 204.067 873.205 205.323 872.408C206.587 871.612 208.056 871.213 209.73 871.213C211.404 871.213 212.869 871.612 214.125 872.408C215.389 873.205 216.371 874.324 217.071 875.765C217.779 877.206 218.133 878.892 218.133 880.824C218.133 882.74 217.779 884.414 217.071 885.847C216.371 887.279 215.389 888.394 214.125 889.191C212.869 889.988 211.404 890.386 209.73 890.386ZM209.73 887.827C211.002 887.827 212.048 887.501 212.869 886.849C213.69 886.197 214.298 885.339 214.692 884.277C215.087 883.214 215.284 882.063 215.284 880.824C215.284 879.584 215.087 878.429 214.692 877.359C214.298 876.288 213.69 875.423 212.869 874.763C212.048 874.103 211.002 873.773 209.73 873.773C208.458 873.773 207.412 874.103 206.591 874.763C205.77 875.423 205.162 876.288 204.768 877.359C204.373 878.429 204.176 879.584 204.176 880.824C204.176 882.063 204.373 883.214 204.768 884.277C205.162 885.339 205.77 886.197 206.591 886.849C207.412 887.501 208.458 887.827 209.73 887.827ZM233.796 882.418V871.455H236.646V890H233.796V886.861H233.603C233.169 887.803 232.492 888.603 231.575 889.263C230.657 889.915 229.498 890.241 228.098 890.241C226.938 890.241 225.908 889.988 225.007 889.481C224.105 888.966 223.397 888.193 222.882 887.163C222.367 886.124 222.109 884.816 222.109 883.239V871.455H224.958V883.045C224.958 884.398 225.337 885.476 226.093 886.281C226.858 887.086 227.832 887.489 229.015 887.489C229.724 887.489 230.444 887.308 231.176 886.945C231.917 886.583 232.537 886.028 233.036 885.279C233.543 884.531 233.796 883.577 233.796 882.418ZM241.491 890V871.455H244.244V874.256H244.437C244.775 873.338 245.387 872.594 246.272 872.022C247.157 871.451 248.156 871.165 249.266 871.165C249.476 871.165 249.737 871.169 250.051 871.177C250.365 871.185 250.603 871.197 250.764 871.213V874.111C250.667 874.087 250.446 874.05 250.099 874.002C249.761 873.946 249.403 873.918 249.025 873.918C248.123 873.918 247.318 874.107 246.61 874.485C245.91 874.855 245.354 875.371 244.944 876.031C244.541 876.683 244.34 877.427 244.34 878.264V890H241.491ZM260.737 890.386C258.998 890.386 257.501 889.976 256.245 889.155C254.99 888.334 254.024 887.203 253.348 885.762C252.671 884.321 252.333 882.675 252.333 880.824C252.333 878.94 252.68 877.278 253.372 875.837C254.072 874.388 255.046 873.258 256.294 872.445C257.549 871.624 259.014 871.213 260.689 871.213C261.992 871.213 263.168 871.455 264.214 871.938C265.26 872.42 266.118 873.097 266.786 873.966C267.454 874.835 267.868 875.849 268.029 877.009H265.18C264.963 876.163 264.48 875.415 263.731 874.763C262.991 874.103 261.992 873.773 260.737 873.773C259.626 873.773 258.652 874.062 257.815 874.642C256.986 875.214 256.338 876.022 255.871 877.069C255.412 878.107 255.183 879.327 255.183 880.727C255.183 882.16 255.408 883.408 255.859 884.47C256.318 885.533 256.962 886.358 257.791 886.945C258.628 887.533 259.61 887.827 260.737 887.827C261.477 887.827 262.149 887.698 262.753 887.44C263.357 887.183 263.868 886.812 264.287 886.33C264.705 885.847 265.003 885.267 265.18 884.591H268.029C267.868 885.686 267.47 886.672 266.834 887.549C266.206 888.418 265.373 889.111 264.335 889.626C263.305 890.133 262.105 890.386 260.737 890.386ZM279.596 890.386C277.81 890.386 276.268 889.992 274.972 889.203C273.684 888.406 272.69 887.295 271.99 885.871C271.298 884.438 270.952 882.772 270.952 880.872C270.952 878.973 271.298 877.298 271.99 875.849C272.69 874.393 273.664 873.258 274.912 872.445C276.167 871.624 277.632 871.213 279.307 871.213C280.273 871.213 281.226 871.374 282.168 871.696C283.11 872.018 283.967 872.541 284.74 873.266C285.513 873.982 286.128 874.932 286.587 876.115C287.046 877.298 287.275 878.755 287.275 880.486V881.693H272.98V879.23H284.378C284.378 878.184 284.168 877.25 283.75 876.429C283.339 875.608 282.752 874.96 281.987 874.485C281.23 874.01 280.337 873.773 279.307 873.773C278.172 873.773 277.19 874.054 276.361 874.618C275.54 875.173 274.908 875.898 274.465 876.791C274.022 877.685 273.801 878.643 273.801 879.665V881.307C273.801 882.707 274.042 883.895 274.525 884.869C275.016 885.835 275.697 886.571 276.566 887.078C277.435 887.577 278.445 887.827 279.596 887.827C280.345 887.827 281.021 887.722 281.625 887.513C282.237 887.295 282.764 886.973 283.207 886.547C283.649 886.112 283.991 885.573 284.233 884.929L286.986 885.702C286.696 886.635 286.209 887.456 285.525 888.165C284.841 888.865 283.995 889.412 282.989 889.807C281.983 890.193 280.852 890.386 279.596 890.386ZM304.372 875.608L301.813 876.332C301.652 875.906 301.414 875.491 301.1 875.089C300.794 874.678 300.376 874.34 299.845 874.075C299.313 873.809 298.633 873.676 297.804 873.676C296.669 873.676 295.723 873.938 294.967 874.461C294.218 874.976 293.844 875.632 293.844 876.429C293.844 877.137 294.102 877.697 294.617 878.107C295.132 878.518 295.937 878.86 297.031 879.134L299.784 879.81C301.442 880.212 302.678 880.828 303.491 881.657C304.304 882.478 304.71 883.536 304.71 884.832C304.71 885.895 304.405 886.845 303.793 887.682C303.189 888.519 302.344 889.179 301.257 889.662C300.171 890.145 298.907 890.386 297.466 890.386C295.575 890.386 294.009 889.976 292.769 889.155C291.53 888.334 290.745 887.134 290.415 885.557L293.119 884.881C293.377 885.879 293.864 886.627 294.58 887.126C295.305 887.625 296.251 887.875 297.418 887.875C298.746 887.875 299.8 887.593 300.581 887.03C301.37 886.458 301.764 885.774 301.764 884.977C301.764 884.333 301.539 883.794 301.088 883.359C300.637 882.917 299.945 882.587 299.012 882.369L295.921 881.645C294.222 881.242 292.975 880.619 292.178 879.773C291.389 878.92 290.994 877.854 290.994 876.574C290.994 875.527 291.288 874.602 291.876 873.797C292.472 872.992 293.28 872.36 294.303 871.901C295.333 871.442 296.5 871.213 297.804 871.213C299.639 871.213 301.08 871.616 302.127 872.42C303.181 873.225 303.93 874.288 304.372 875.608Z" fill="black"/>
<path d="M224.5 728C224.5 727.724 224.276 727.5 224 727.5C223.724 727.5 223.5 727.724 223.5 728H224.5ZM223.646 770.354C223.842 770.549 224.158 770.549 224.354 770.354L227.536 767.172C227.731 766.976 227.731 766.66 227.536 766.464C227.34 766.269 227.024 766.269 226.828 766.464L224 769.293L221.172 766.464C220.976 766.269 220.66 766.269 220.464 766.464C220.269 766.66 220.269 766.976 220.464 767.172L223.646 770.354ZM223.5 728V770H224.5V728H223.5Z" fill="black"/>
<rect x="451" y="1340" width="208" height="208" rx="25" fill="#B5CF54"/>
<path d="M532.521 1420.45C532.376 1419.23 531.788 1418.28 530.758 1417.61C529.728 1416.93 528.464 1416.59 526.967 1416.59C525.872 1416.59 524.914 1416.77 524.093 1417.12C523.28 1417.48 522.644 1417.96 522.186 1418.58C521.735 1419.2 521.51 1419.91 521.51 1420.7C521.51 1421.36 521.667 1421.92 521.98 1422.4C522.302 1422.87 522.713 1423.26 523.212 1423.57C523.711 1423.88 524.234 1424.13 524.782 1424.33C525.329 1424.52 525.832 1424.68 526.291 1424.8L528.802 1425.48C529.446 1425.65 530.162 1425.88 530.951 1426.18C531.748 1426.48 532.509 1426.88 533.233 1427.4C533.966 1427.9 534.569 1428.56 535.044 1429.35C535.519 1430.15 535.757 1431.13 535.757 1432.29C535.757 1433.62 535.407 1434.83 534.706 1435.91C534.014 1436.99 533 1437.84 531.664 1438.48C530.336 1439.12 528.722 1439.43 526.822 1439.43C525.051 1439.43 523.518 1439.15 522.222 1438.58C520.934 1438.01 519.92 1437.21 519.179 1436.19C518.447 1435.16 518.032 1433.98 517.936 1432.62H521.027C521.107 1433.56 521.421 1434.33 521.968 1434.94C522.524 1435.55 523.224 1436 524.069 1436.3C524.922 1436.59 525.84 1436.73 526.822 1436.73C527.965 1436.73 528.991 1436.54 529.901 1436.17C530.81 1435.8 531.531 1435.27 532.062 1434.61C532.593 1433.93 532.859 1433.14 532.859 1432.24C532.859 1431.42 532.63 1430.75 532.171 1430.23C531.712 1429.72 531.108 1429.3 530.36 1428.98C529.611 1428.66 528.802 1428.37 527.933 1428.13L524.89 1427.26C522.958 1426.71 521.429 1425.92 520.302 1424.89C519.175 1423.86 518.612 1422.51 518.612 1420.84C518.612 1419.46 518.986 1418.25 519.735 1417.22C520.491 1416.18 521.506 1415.38 522.777 1414.8C524.057 1414.22 525.486 1413.93 527.064 1413.93C528.657 1413.93 530.074 1414.22 531.314 1414.79C532.553 1415.36 533.535 1416.13 534.26 1417.11C534.992 1418.09 535.378 1419.21 535.419 1420.45H532.521ZM541.755 1445.95C541.272 1445.95 540.841 1445.91 540.463 1445.83C540.084 1445.76 539.823 1445.69 539.678 1445.62L540.402 1443.11C541.095 1443.28 541.706 1443.35 542.238 1443.3C542.769 1443.25 543.24 1443.01 543.65 1442.59C544.069 1442.17 544.451 1441.49 544.797 1440.55L545.329 1439.1L538.471 1420.45H541.562L546.681 1435.23H546.874L551.993 1420.45H555.084L547.212 1441.7C546.858 1442.66 546.419 1443.46 545.896 1444.08C545.373 1444.72 544.765 1445.19 544.073 1445.5C543.389 1445.8 542.616 1445.95 541.755 1445.95ZM561.321 1427.84V1439H558.471V1420.45H561.224V1423.35H561.466C561.9 1422.41 562.56 1421.65 563.446 1421.08C564.331 1420.5 565.474 1420.21 566.875 1420.21C568.13 1420.21 569.229 1420.47 570.171 1420.99C571.113 1421.49 571.845 1422.27 572.368 1423.3C572.891 1424.33 573.153 1425.64 573.153 1427.22V1439H570.304V1427.41C570.304 1425.95 569.925 1424.82 569.169 1424C568.412 1423.18 567.374 1422.77 566.054 1422.77C565.144 1422.77 564.331 1422.97 563.615 1423.36C562.906 1423.76 562.347 1424.33 561.936 1425.09C561.526 1425.85 561.321 1426.77 561.321 1427.84ZM585.52 1439.39C583.781 1439.39 582.284 1438.98 581.029 1438.15C579.773 1437.33 578.807 1436.2 578.131 1434.76C577.455 1433.32 577.117 1431.68 577.117 1429.82C577.117 1427.94 577.463 1426.28 578.155 1424.84C578.855 1423.39 579.829 1422.26 581.077 1421.44C582.332 1420.62 583.797 1420.21 585.472 1420.21C586.776 1420.21 587.951 1420.45 588.997 1420.94C590.044 1421.42 590.901 1422.1 591.569 1422.97C592.237 1423.84 592.652 1424.85 592.813 1426.01H589.963C589.746 1425.16 589.263 1424.41 588.514 1423.76C587.774 1423.1 586.776 1422.77 585.52 1422.77C584.409 1422.77 583.435 1423.06 582.598 1423.64C581.769 1424.21 581.121 1425.02 580.654 1426.07C580.195 1427.11 579.966 1428.33 579.966 1429.73C579.966 1431.16 580.191 1432.41 580.642 1433.47C581.101 1434.53 581.745 1435.36 582.574 1435.95C583.411 1436.53 584.393 1436.83 585.52 1436.83C586.261 1436.83 586.933 1436.7 587.536 1436.44C588.14 1436.18 588.651 1435.81 589.07 1435.33C589.488 1434.85 589.786 1434.27 589.963 1433.59H592.813C592.652 1434.69 592.253 1435.67 591.617 1436.55C590.989 1437.42 590.156 1438.11 589.118 1438.63C588.088 1439.13 586.888 1439.39 585.52 1439.39ZM506.918 1456H503.924C503.746 1455.14 503.437 1454.38 502.994 1453.73C502.559 1453.08 502.028 1452.53 501.4 1452.09C500.78 1451.64 500.092 1451.3 499.335 1451.07C498.579 1450.85 497.79 1450.74 496.969 1450.74C495.472 1450.74 494.116 1451.11 492.9 1451.87C491.693 1452.63 490.731 1453.74 490.014 1455.22C489.306 1456.69 488.952 1458.5 488.952 1460.64C488.952 1462.78 489.306 1464.58 490.014 1466.06C490.731 1467.53 491.693 1468.65 492.9 1469.4C494.116 1470.16 495.472 1470.54 496.969 1470.54C497.79 1470.54 498.579 1470.42 499.335 1470.2C500.092 1469.97 500.78 1469.64 501.4 1469.2C502.028 1468.75 502.559 1468.19 502.994 1467.54C503.437 1466.88 503.746 1466.13 503.924 1465.27H506.918C506.692 1466.54 506.282 1467.67 505.686 1468.67C505.091 1469.66 504.35 1470.51 503.465 1471.21C502.579 1471.91 501.585 1472.43 500.482 1472.79C499.388 1473.16 498.217 1473.34 496.969 1473.34C494.86 1473.34 492.985 1472.82 491.343 1471.79C489.701 1470.76 488.409 1469.3 487.467 1467.4C486.525 1465.5 486.054 1463.24 486.054 1460.64C486.054 1458.03 486.525 1455.77 487.467 1453.88C488.409 1451.98 489.701 1450.51 491.343 1449.48C492.985 1448.45 494.86 1447.93 496.969 1447.93C498.217 1447.93 499.388 1448.12 500.482 1448.48C501.585 1448.84 502.579 1449.37 503.465 1450.07C504.35 1450.76 505.091 1451.61 505.686 1452.61C506.282 1453.6 506.692 1454.73 506.918 1456ZM516.453 1473.43C515.278 1473.43 514.212 1473.21 513.254 1472.77C512.296 1472.32 511.535 1471.67 510.972 1470.83C510.408 1469.97 510.127 1468.94 510.127 1467.74C510.127 1466.67 510.336 1465.81 510.755 1465.15C511.173 1464.48 511.733 1463.96 512.433 1463.58C513.133 1463.2 513.906 1462.92 514.751 1462.74C515.604 1462.54 516.462 1462.39 517.323 1462.28C518.45 1462.13 519.363 1462.02 520.064 1461.95C520.772 1461.87 521.287 1461.74 521.609 1461.55C521.939 1461.37 522.104 1461.05 522.104 1460.59V1460.49C522.104 1459.3 521.778 1458.37 521.126 1457.71C520.482 1457.05 519.504 1456.72 518.192 1456.72C516.832 1456.72 515.765 1457.02 514.993 1457.62C514.22 1458.21 513.676 1458.85 513.363 1459.53L510.658 1458.56C511.141 1457.43 511.785 1456.56 512.59 1455.93C513.403 1455.29 514.288 1454.85 515.246 1454.6C516.212 1454.34 517.162 1454.21 518.096 1454.21C518.691 1454.21 519.375 1454.29 520.148 1454.43C520.929 1454.57 521.681 1454.85 522.406 1455.29C523.138 1455.72 523.746 1456.38 524.229 1457.26C524.712 1458.13 524.953 1459.31 524.953 1460.78V1473H522.104V1470.49H521.959C521.766 1470.89 521.444 1471.32 520.993 1471.78C520.542 1472.24 519.943 1472.63 519.194 1472.95C518.446 1473.27 517.532 1473.43 516.453 1473.43ZM516.888 1470.88C518.015 1470.88 518.965 1470.65 519.738 1470.21C520.518 1469.77 521.106 1469.2 521.5 1468.5C521.903 1467.8 522.104 1467.06 522.104 1466.29V1463.68C521.983 1463.82 521.718 1463.96 521.307 1464.08C520.905 1464.19 520.438 1464.29 519.907 1464.38C519.383 1464.46 518.872 1464.53 518.373 1464.6C517.882 1464.65 517.484 1464.7 517.178 1464.74C516.437 1464.84 515.745 1465 515.101 1465.21C514.465 1465.42 513.95 1465.74 513.556 1466.17C513.169 1466.58 512.976 1467.16 512.976 1467.88C512.976 1468.87 513.342 1469.62 514.075 1470.13C514.815 1470.63 515.753 1470.88 516.888 1470.88ZM532.63 1448.27V1473H529.78V1448.27H532.63ZM545.25 1473.39C543.463 1473.39 541.922 1472.99 540.626 1472.2C539.338 1471.41 538.344 1470.3 537.644 1468.87C536.951 1467.44 536.605 1465.77 536.605 1463.87C536.605 1461.97 536.951 1460.3 537.644 1458.85C538.344 1457.39 539.318 1456.26 540.566 1455.44C541.821 1454.62 543.286 1454.21 544.96 1454.21C545.926 1454.21 546.88 1454.37 547.822 1454.7C548.764 1455.02 549.621 1455.54 550.394 1456.27C551.166 1456.98 551.782 1457.93 552.241 1459.12C552.7 1460.3 552.929 1461.76 552.929 1463.49V1464.69H538.634V1462.23H550.031C550.031 1461.18 549.822 1460.25 549.404 1459.43C548.993 1458.61 548.406 1457.96 547.641 1457.49C546.884 1457.01 545.991 1456.77 544.96 1456.77C543.825 1456.77 542.843 1457.05 542.014 1457.62C541.193 1458.17 540.562 1458.9 540.119 1459.79C539.676 1460.68 539.455 1461.64 539.455 1462.66V1464.31C539.455 1465.71 539.696 1466.89 540.179 1467.87C540.67 1468.83 541.35 1469.57 542.22 1470.08C543.089 1470.58 544.099 1470.83 545.25 1470.83C545.999 1470.83 546.675 1470.72 547.279 1470.51C547.89 1470.3 548.418 1469.97 548.86 1469.55C549.303 1469.11 549.645 1468.57 549.887 1467.93L552.639 1468.7C552.35 1469.64 551.863 1470.46 551.178 1471.16C550.494 1471.87 549.649 1472.41 548.643 1472.81C547.637 1473.19 546.506 1473.39 545.25 1473.39ZM559.739 1461.84V1473H556.89V1454.45H559.643V1457.35H559.884C560.319 1456.41 560.979 1455.65 561.864 1455.08C562.75 1454.5 563.893 1454.21 565.293 1454.21C566.549 1454.21 567.648 1454.47 568.589 1454.99C569.531 1455.49 570.264 1456.27 570.787 1457.3C571.31 1458.33 571.572 1459.64 571.572 1461.22V1473H568.722V1461.41C568.722 1459.95 568.344 1458.82 567.587 1458C566.831 1457.18 565.792 1456.77 564.472 1456.77C563.563 1456.77 562.75 1456.97 562.033 1457.36C561.325 1457.76 560.765 1458.33 560.355 1459.09C559.944 1459.85 559.739 1460.77 559.739 1461.84ZM583.407 1473.39C581.862 1473.39 580.497 1473 579.314 1472.22C578.131 1471.43 577.205 1470.32 576.537 1468.88C575.869 1467.44 575.535 1465.74 575.535 1463.78C575.535 1461.83 575.869 1460.14 576.537 1458.7C577.205 1457.27 578.135 1456.17 579.326 1455.38C580.518 1454.6 581.894 1454.21 583.456 1454.21C584.663 1454.21 585.617 1454.41 586.317 1454.82C587.025 1455.21 587.565 1455.66 587.935 1456.17C588.313 1456.67 588.607 1457.08 588.816 1457.4H589.058V1448.27H591.907V1473H589.154V1470.15H588.816C588.607 1470.49 588.309 1470.92 587.923 1471.43C587.536 1471.94 586.985 1472.39 586.269 1472.79C585.552 1473.19 584.599 1473.39 583.407 1473.39ZM583.794 1470.83C584.937 1470.83 585.902 1470.53 586.691 1469.93C587.48 1469.33 588.08 1468.5 588.49 1467.43C588.901 1466.36 589.106 1465.13 589.106 1463.73C589.106 1462.34 588.905 1461.13 588.502 1460.09C588.1 1459.05 587.504 1458.23 586.715 1457.65C585.927 1457.07 584.953 1456.77 583.794 1456.77C582.586 1456.77 581.58 1457.08 580.775 1457.7C579.978 1458.31 579.379 1459.15 578.976 1460.2C578.582 1461.25 578.384 1462.42 578.384 1463.73C578.384 1465.05 578.586 1466.25 578.988 1467.33C579.399 1468.4 580.002 1469.25 580.799 1469.88C581.604 1470.51 582.602 1470.83 583.794 1470.83ZM602.605 1473.43C601.43 1473.43 600.363 1473.21 599.405 1472.77C598.448 1472.32 597.687 1471.67 597.123 1470.83C596.56 1469.97 596.278 1468.94 596.278 1467.74C596.278 1466.67 596.488 1465.81 596.906 1465.15C597.325 1464.48 597.884 1463.96 598.584 1463.58C599.285 1463.2 600.057 1462.92 600.903 1462.74C601.756 1462.54 602.613 1462.39 603.474 1462.28C604.601 1462.13 605.515 1462.02 606.215 1461.95C606.923 1461.87 607.439 1461.74 607.76 1461.55C608.091 1461.37 608.256 1461.05 608.256 1460.59V1460.49C608.256 1459.3 607.93 1458.37 607.278 1457.71C606.634 1457.05 605.656 1456.72 604.344 1456.72C602.983 1456.72 601.917 1457.02 601.144 1457.62C600.371 1458.21 599.828 1458.85 599.514 1459.53L596.809 1458.56C597.292 1457.43 597.936 1456.56 598.741 1455.93C599.554 1455.29 600.44 1454.85 601.398 1454.6C602.363 1454.34 603.313 1454.21 604.247 1454.21C604.843 1454.21 605.527 1454.29 606.3 1454.43C607.08 1454.57 607.833 1454.85 608.557 1455.29C609.29 1455.72 609.898 1456.38 610.381 1457.26C610.863 1458.13 611.105 1459.31 611.105 1460.78V1473H608.256V1470.49H608.111C607.917 1470.89 607.595 1471.32 607.145 1471.78C606.694 1472.24 606.094 1472.63 605.346 1472.95C604.597 1473.27 603.684 1473.43 602.605 1473.43ZM603.04 1470.88C604.166 1470.88 605.116 1470.65 605.889 1470.21C606.67 1469.77 607.257 1469.2 607.652 1468.5C608.054 1467.8 608.256 1467.06 608.256 1466.29V1463.68C608.135 1463.82 607.869 1463.96 607.459 1464.08C607.056 1464.19 606.589 1464.29 606.058 1464.38C605.535 1464.46 605.024 1464.53 604.525 1464.6C604.034 1464.65 603.635 1464.7 603.329 1464.74C602.589 1464.84 601.897 1465 601.253 1465.21C600.617 1465.42 600.102 1465.74 599.707 1466.17C599.321 1466.58 599.128 1467.16 599.128 1467.88C599.128 1468.87 599.494 1469.62 600.226 1470.13C600.967 1470.63 601.905 1470.88 603.04 1470.88ZM615.932 1473V1454.45H618.685V1457.26H618.878C619.216 1456.34 619.828 1455.59 620.713 1455.02C621.598 1454.45 622.597 1454.16 623.707 1454.16C623.917 1454.16 624.178 1454.17 624.492 1454.18C624.806 1454.18 625.044 1454.2 625.205 1454.21V1457.11C625.108 1457.09 624.887 1457.05 624.54 1457C624.202 1456.95 623.844 1456.92 623.466 1456.92C622.564 1456.92 621.759 1457.11 621.051 1457.49C620.351 1457.86 619.795 1458.37 619.385 1459.03C618.982 1459.68 618.781 1460.43 618.781 1461.26V1473H615.932Z" fill="black"/>
<path d="M210.808 1035.46C218.64 1030.85 228.36 1030.85 236.192 1035.46L387.691 1114.46C404.103 1124.13 404.103 1147.87 387.692 1157.54L236.192 1236.54C228.36 1241.15 218.64 1241.15 210.808 1236.54L59.3085 1157.54C42.8972 1147.87 42.8971 1124.13 59.3085 1114.46L210.808 1035.46Z" fill="#B5CF54"/>
<path d="M177.608 1131V1106.27H192.435V1108.93H180.602V1117.28H191.324V1119.94H180.602V1131H177.608ZM202.976 1131.39C201.301 1131.39 199.832 1130.99 198.569 1130.19C197.313 1129.39 196.331 1128.28 195.623 1126.85C194.922 1125.41 194.572 1123.74 194.572 1121.82C194.572 1119.89 194.922 1118.21 195.623 1116.76C196.331 1115.32 197.313 1114.21 198.569 1113.41C199.832 1112.61 201.301 1112.21 202.976 1112.21C204.65 1112.21 206.115 1112.61 207.37 1113.41C208.634 1114.21 209.616 1115.32 210.316 1116.76C211.025 1118.21 211.379 1119.89 211.379 1121.82C211.379 1123.74 211.025 1125.41 210.316 1126.85C209.616 1128.28 208.634 1129.39 207.37 1130.19C206.115 1130.99 204.65 1131.39 202.976 1131.39ZM202.976 1128.83C204.247 1128.83 205.294 1128.5 206.115 1127.85C206.936 1127.2 207.543 1126.34 207.938 1125.28C208.332 1124.21 208.529 1123.06 208.529 1121.82C208.529 1120.58 208.332 1119.43 207.938 1118.36C207.543 1117.29 206.936 1116.42 206.115 1115.76C205.294 1115.1 204.247 1114.77 202.976 1114.77C201.704 1114.77 200.657 1115.1 199.836 1115.76C199.015 1116.42 198.408 1117.29 198.013 1118.36C197.619 1119.43 197.422 1120.58 197.422 1121.82C197.422 1123.06 197.619 1124.21 198.013 1125.28C198.408 1126.34 199.015 1127.2 199.836 1127.85C200.657 1128.5 201.704 1128.83 202.976 1128.83ZM227.042 1123.42V1112.45H229.891V1131H227.042V1127.86H226.849C226.414 1128.8 225.738 1129.6 224.82 1130.26C223.903 1130.92 222.744 1131.24 221.343 1131.24C220.184 1131.24 219.154 1130.99 218.252 1130.48C217.351 1129.97 216.642 1129.19 216.127 1128.16C215.612 1127.12 215.355 1125.82 215.355 1124.24V1112.45H218.204V1124.05C218.204 1125.4 218.582 1126.48 219.339 1127.28C220.104 1128.09 221.078 1128.49 222.261 1128.49C222.969 1128.49 223.69 1128.31 224.422 1127.95C225.163 1127.58 225.782 1127.03 226.281 1126.28C226.788 1125.53 227.042 1124.58 227.042 1123.42ZM237.586 1119.84V1131H234.736V1112.45H237.489V1115.35H237.731C238.165 1114.41 238.825 1113.65 239.711 1113.08C240.596 1112.5 241.739 1112.21 243.14 1112.21C244.395 1112.21 245.494 1112.47 246.436 1112.99C247.378 1113.49 248.11 1114.27 248.633 1115.3C249.157 1116.33 249.418 1117.64 249.418 1119.22V1131H246.569V1119.41C246.569 1117.95 246.19 1116.82 245.434 1116C244.677 1115.18 243.639 1114.77 242.319 1114.77C241.409 1114.77 240.596 1114.97 239.88 1115.36C239.172 1115.76 238.612 1116.33 238.202 1117.09C237.791 1117.85 237.586 1118.77 237.586 1119.84ZM261.254 1131.39C259.708 1131.39 258.344 1131 257.161 1130.22C255.978 1129.43 255.052 1128.32 254.384 1126.88C253.716 1125.44 253.382 1123.74 253.382 1121.78C253.382 1119.83 253.716 1118.14 254.384 1116.7C255.052 1115.27 255.982 1114.17 257.173 1113.38C258.364 1112.6 259.741 1112.21 261.302 1112.21C262.51 1112.21 263.463 1112.41 264.164 1112.82C264.872 1113.21 265.411 1113.66 265.782 1114.17C266.16 1114.67 266.454 1115.08 266.663 1115.4H266.904V1106.27H269.754V1131H267.001V1128.15H266.663C266.454 1128.49 266.156 1128.92 265.77 1129.43C265.383 1129.94 264.832 1130.39 264.115 1130.79C263.399 1131.19 262.445 1131.39 261.254 1131.39ZM261.64 1128.83C262.783 1128.83 263.749 1128.53 264.538 1127.93C265.327 1127.33 265.926 1126.5 266.337 1125.43C266.748 1124.36 266.953 1123.13 266.953 1121.73C266.953 1120.34 266.752 1119.13 266.349 1118.09C265.947 1117.05 265.351 1116.23 264.562 1115.65C263.773 1115.07 262.799 1114.77 261.64 1114.77C260.433 1114.77 259.427 1115.08 258.622 1115.7C257.825 1116.31 257.225 1117.15 256.823 1118.2C256.428 1119.25 256.231 1120.42 256.231 1121.73C256.231 1123.05 256.432 1124.25 256.835 1125.33C257.245 1126.4 257.849 1127.25 258.646 1127.88C259.451 1128.51 260.449 1128.83 261.64 1128.83ZM144.368 1165V1140.27H152.723C154.655 1140.27 156.241 1140.6 157.48 1141.26C158.72 1141.91 159.638 1142.81 160.233 1143.96C160.829 1145.1 161.127 1146.4 161.127 1147.86C161.127 1149.31 160.829 1150.6 160.233 1151.73C159.638 1152.86 158.724 1153.74 157.493 1154.39C156.261 1155.02 154.687 1155.34 152.772 1155.34H146.01V1152.64H152.675C153.995 1152.64 155.058 1152.44 155.863 1152.06C156.676 1151.67 157.263 1151.12 157.625 1150.41C157.996 1149.7 158.181 1148.85 158.181 1147.86C158.181 1146.87 157.996 1146 157.625 1145.26C157.255 1144.52 156.663 1143.95 155.85 1143.54C155.038 1143.13 153.963 1142.93 152.627 1142.93H147.363V1165H144.368ZM156.007 1153.89L162.093 1165H158.615L152.627 1153.89H156.007ZM172.932 1165.39C171.145 1165.39 169.604 1164.99 168.308 1164.2C167.02 1163.41 166.026 1162.3 165.326 1160.87C164.634 1159.44 164.287 1157.77 164.287 1155.87C164.287 1153.97 164.634 1152.3 165.326 1150.85C166.026 1149.39 167 1148.26 168.248 1147.44C169.503 1146.62 170.968 1146.21 172.643 1146.21C173.608 1146.21 174.562 1146.37 175.504 1146.7C176.446 1147.02 177.303 1147.54 178.076 1148.27C178.848 1148.98 179.464 1149.93 179.923 1151.12C180.382 1152.3 180.611 1153.76 180.611 1155.49V1156.69H166.316V1154.23H177.714C177.714 1153.18 177.504 1152.25 177.086 1151.43C176.675 1150.61 176.088 1149.96 175.323 1149.49C174.566 1149.01 173.673 1148.77 172.643 1148.77C171.508 1148.77 170.526 1149.05 169.696 1149.62C168.875 1150.17 168.244 1150.9 167.801 1151.79C167.358 1152.68 167.137 1153.64 167.137 1154.66V1156.31C167.137 1157.71 167.378 1158.89 167.861 1159.87C168.352 1160.83 169.032 1161.57 169.902 1162.08C170.771 1162.58 171.781 1162.83 172.932 1162.83C173.681 1162.83 174.357 1162.72 174.961 1162.51C175.572 1162.3 176.1 1161.97 176.542 1161.55C176.985 1161.11 177.327 1160.57 177.569 1159.93L180.321 1160.7C180.032 1161.64 179.545 1162.46 178.861 1163.16C178.176 1163.87 177.331 1164.41 176.325 1164.81C175.319 1165.19 174.188 1165.39 172.932 1165.39ZM197.708 1150.61L195.148 1151.33C194.987 1150.91 194.75 1150.49 194.436 1150.09C194.13 1149.68 193.712 1149.34 193.18 1149.07C192.649 1148.81 191.969 1148.68 191.14 1148.68C190.005 1148.68 189.059 1148.94 188.303 1149.46C187.554 1149.98 187.18 1150.63 187.18 1151.43C187.18 1152.14 187.437 1152.7 187.952 1153.11C188.468 1153.52 189.273 1153.86 190.367 1154.13L193.12 1154.81C194.778 1155.21 196.014 1155.83 196.827 1156.66C197.64 1157.48 198.046 1158.54 198.046 1159.83C198.046 1160.89 197.74 1161.84 197.129 1162.68C196.525 1163.52 195.68 1164.18 194.593 1164.66C193.506 1165.14 192.243 1165.39 190.802 1165.39C188.91 1165.39 187.345 1164.98 186.105 1164.15C184.866 1163.33 184.081 1162.13 183.751 1160.56L186.455 1159.88C186.713 1160.88 187.2 1161.63 187.916 1162.13C188.641 1162.63 189.586 1162.88 190.754 1162.88C192.082 1162.88 193.136 1162.59 193.917 1162.03C194.706 1161.46 195.1 1160.77 195.1 1159.98C195.1 1159.33 194.875 1158.79 194.424 1158.36C193.973 1157.92 193.281 1157.59 192.347 1157.37L189.256 1156.64C187.558 1156.24 186.31 1155.62 185.514 1154.77C184.725 1153.92 184.33 1152.85 184.33 1151.57C184.33 1150.53 184.624 1149.6 185.212 1148.8C185.807 1147.99 186.616 1147.36 187.639 1146.9C188.669 1146.44 189.836 1146.21 191.14 1146.21C192.975 1146.21 194.416 1146.62 195.462 1147.42C196.517 1148.23 197.265 1149.29 197.708 1150.61ZM209.496 1165.39C207.821 1165.39 206.352 1164.99 205.089 1164.19C203.833 1163.39 202.851 1162.28 202.143 1160.85C201.442 1159.41 201.092 1157.74 201.092 1155.82C201.092 1153.89 201.442 1152.21 202.143 1150.76C202.851 1149.32 203.833 1148.21 205.089 1147.41C206.352 1146.61 207.821 1146.21 209.496 1146.21C211.17 1146.21 212.635 1146.61 213.89 1147.41C215.154 1148.21 216.136 1149.32 216.836 1150.76C217.545 1152.21 217.899 1153.89 217.899 1155.82C217.899 1157.74 217.545 1159.41 216.836 1160.85C216.136 1162.28 215.154 1163.39 213.89 1164.19C212.635 1164.99 211.17 1165.39 209.496 1165.39ZM209.496 1162.83C210.767 1162.83 211.814 1162.5 212.635 1161.85C213.456 1161.2 214.063 1160.34 214.458 1159.28C214.852 1158.21 215.05 1157.06 215.05 1155.82C215.05 1154.58 214.852 1153.43 214.458 1152.36C214.063 1151.29 213.456 1150.42 212.635 1149.76C211.814 1149.1 210.767 1148.77 209.496 1148.77C208.224 1148.77 207.177 1149.1 206.356 1149.76C205.535 1150.42 204.928 1151.29 204.533 1152.36C204.139 1153.43 203.942 1154.58 203.942 1155.82C203.942 1157.06 204.139 1158.21 204.533 1159.28C204.928 1160.34 205.535 1161.2 206.356 1161.85C207.177 1162.5 208.224 1162.83 209.496 1162.83ZM233.562 1157.42V1146.45H236.411V1165H233.562V1161.86H233.369C232.934 1162.8 232.258 1163.6 231.34 1164.26C230.423 1164.92 229.264 1165.24 227.863 1165.24C226.704 1165.24 225.674 1164.99 224.772 1164.48C223.871 1163.97 223.162 1163.19 222.647 1162.16C222.132 1161.12 221.875 1159.82 221.875 1158.24V1146.45H224.724V1158.05C224.724 1159.4 225.102 1160.48 225.859 1161.28C226.624 1162.09 227.598 1162.49 228.781 1162.49C229.489 1162.49 230.21 1162.31 230.942 1161.95C231.683 1161.58 232.302 1161.03 232.801 1160.28C233.309 1159.53 233.562 1158.58 233.562 1157.42ZM241.256 1165V1146.45H244.009V1149.26H244.202C244.541 1148.34 245.152 1147.59 246.038 1147.02C246.923 1146.45 247.921 1146.16 249.032 1146.16C249.241 1146.16 249.503 1146.17 249.817 1146.18C250.131 1146.18 250.368 1146.2 250.529 1146.21V1149.11C250.433 1149.09 250.211 1149.05 249.865 1149C249.527 1148.95 249.169 1148.92 248.791 1148.92C247.889 1148.92 247.084 1149.11 246.376 1149.49C245.675 1149.86 245.12 1150.37 244.71 1151.03C244.307 1151.68 244.106 1152.43 244.106 1153.26V1165H241.256ZM260.502 1165.39C258.764 1165.39 257.267 1164.98 256.011 1164.15C254.755 1163.33 253.789 1162.2 253.113 1160.76C252.437 1159.32 252.099 1157.68 252.099 1155.82C252.099 1153.94 252.445 1152.28 253.137 1150.84C253.838 1149.39 254.812 1148.26 256.059 1147.44C257.315 1146.62 258.78 1146.21 260.454 1146.21C261.758 1146.21 262.933 1146.45 263.98 1146.94C265.026 1147.42 265.883 1148.1 266.551 1148.97C267.22 1149.84 267.634 1150.85 267.795 1152.01H264.946C264.728 1151.16 264.245 1150.41 263.497 1149.76C262.756 1149.1 261.758 1148.77 260.502 1148.77C259.392 1148.77 258.418 1149.06 257.581 1149.64C256.751 1150.21 256.104 1151.02 255.637 1152.07C255.178 1153.11 254.948 1154.33 254.948 1155.73C254.948 1157.16 255.174 1158.41 255.625 1159.47C256.083 1160.53 256.727 1161.36 257.556 1161.95C258.394 1162.53 259.376 1162.83 260.502 1162.83C261.243 1162.83 261.915 1162.7 262.519 1162.44C263.122 1162.18 263.634 1161.81 264.052 1161.33C264.471 1160.85 264.769 1160.27 264.946 1159.59H267.795C267.634 1160.69 267.236 1161.67 266.6 1162.55C265.972 1163.42 265.139 1164.11 264.1 1164.63C263.07 1165.13 261.871 1165.39 260.502 1165.39ZM279.362 1165.39C277.575 1165.39 276.034 1164.99 274.738 1164.2C273.45 1163.41 272.456 1162.3 271.756 1160.87C271.063 1159.44 270.717 1157.77 270.717 1155.87C270.717 1153.97 271.063 1152.3 271.756 1150.85C272.456 1149.39 273.43 1148.26 274.677 1147.44C275.933 1146.62 277.398 1146.21 279.072 1146.21C280.038 1146.21 280.992 1146.37 281.934 1146.7C282.876 1147.02 283.733 1147.54 284.506 1148.27C285.278 1148.98 285.894 1149.93 286.353 1151.12C286.812 1152.3 287.041 1153.76 287.041 1155.49V1156.69H272.746V1154.23H284.143C284.143 1153.18 283.934 1152.25 283.516 1151.43C283.105 1150.61 282.517 1149.96 281.753 1149.49C280.996 1149.01 280.103 1148.77 279.072 1148.77C277.937 1148.77 276.955 1149.05 276.126 1149.62C275.305 1150.17 274.673 1150.9 274.231 1151.79C273.788 1152.68 273.567 1153.64 273.567 1154.66V1156.31C273.567 1157.71 273.808 1158.89 274.291 1159.87C274.782 1160.83 275.462 1161.57 276.332 1162.08C277.201 1162.58 278.211 1162.83 279.362 1162.83C280.111 1162.83 280.787 1162.72 281.391 1162.51C282.002 1162.3 282.529 1161.97 282.972 1161.55C283.415 1161.11 283.757 1160.57 283.998 1159.93L286.751 1160.7C286.462 1161.64 285.975 1162.46 285.29 1163.16C284.606 1163.87 283.761 1164.41 282.755 1164.81C281.749 1165.19 280.618 1165.39 279.362 1165.39ZM294.72 1158.05V1157.9C294.736 1156.36 294.897 1155.14 295.203 1154.23C295.509 1153.32 295.944 1152.58 296.507 1152.02C297.071 1151.46 297.747 1150.94 298.536 1150.46C299.011 1150.17 299.437 1149.83 299.816 1149.44C300.194 1149.03 300.492 1148.57 300.709 1148.05C300.934 1147.53 301.047 1146.95 301.047 1146.31C301.047 1145.52 300.862 1144.84 300.492 1144.26C300.121 1143.68 299.626 1143.23 299.007 1142.92C298.387 1142.6 297.699 1142.45 296.942 1142.45C296.282 1142.45 295.646 1142.58 295.034 1142.86C294.423 1143.13 293.911 1143.56 293.501 1144.15C293.09 1144.74 292.853 1145.5 292.789 1146.45H289.746C289.81 1145.09 290.164 1143.92 290.808 1142.94C291.46 1141.97 292.318 1141.22 293.38 1140.71C294.451 1140.19 295.638 1139.93 296.942 1139.93C298.359 1139.93 299.59 1140.22 300.637 1140.78C301.691 1141.34 302.504 1142.12 303.075 1143.1C303.655 1144.08 303.945 1145.2 303.945 1146.45C303.945 1147.34 303.808 1148.14 303.534 1148.86C303.269 1149.57 302.882 1150.21 302.375 1150.78C301.876 1151.34 301.272 1151.84 300.564 1152.27C299.856 1152.72 299.288 1153.18 298.862 1153.67C298.435 1154.16 298.125 1154.73 297.932 1155.4C297.739 1156.07 297.634 1156.9 297.618 1157.9V1158.05H294.72ZM296.266 1165.19C295.67 1165.19 295.159 1164.98 294.732 1164.55C294.306 1164.13 294.093 1163.62 294.093 1163.02C294.093 1162.42 294.306 1161.91 294.732 1161.49C295.159 1161.06 295.67 1160.85 296.266 1160.85C296.861 1160.85 297.373 1161.06 297.799 1161.49C298.226 1161.91 298.439 1162.42 298.439 1163.02C298.439 1163.41 298.338 1163.78 298.137 1164.11C297.944 1164.44 297.682 1164.7 297.352 1164.9C297.03 1165.1 296.668 1165.19 296.266 1165.19Z" fill="black"/>
<path d="M43 1136.5C43.2761 1136.5 43.5 1136.28 43.5 1136C43.5 1135.72 43.2761 1135.5 43 1135.5V1136.5ZM116.354 878.354C116.549 878.158 116.549 877.842 116.354 877.646L113.172 874.464C112.976 874.269 112.66 874.269 112.464 874.464C112.269 874.66 112.269 874.976 112.464 875.172L115.293 878L112.464 880.828C112.269 881.024 112.269 881.34 112.464 881.536C112.66 881.731 112.976 881.731 113.172 881.536L116.354 878.354ZM43 1135.5H40V1136.5H43V1135.5ZM15.5 1111V1027H14.5V1111H15.5ZM15.5 987V903H14.5V987H15.5ZM40 878.5H116V877.5H40V878.5ZM15.5 903C15.5 889.469 26.469 878.5 40 878.5V877.5C25.9167 877.5 14.5 888.917 14.5 903H15.5ZM40 1135.5C26.469 1135.5 15.5 1124.53 15.5 1111H14.5C14.5 1125.08 25.9167 1136.5 40 1136.5V1135.5Z" fill="black"/>
<path d="M20.0874 1000.91V1014H17.6967L12.0014 1005.76H11.9055V1014H9.13778V1000.91H11.5668L17.2173 1009.14H17.3324V1000.91H20.0874Z" fill="black"/>
<path d="M210.256 1343.8C218.36 1338.73 228.64 1338.73 236.744 1343.8L378.244 1422.8C393.919 1432.59 393.919 1455.41 378.244 1465.2L236.744 1544.2C228.64 1549.27 218.36 1549.27 210.256 1544.2L68.7558 1465.2C53.0814 1455.41 53.0814 1432.59 68.7557 1422.8L210.256 1343.8Z" fill="#B5CF54"/>
<path d="M175.024 1439H171.885L180.964 1414.27H184.055L193.135 1439H189.996L182.606 1418.18H182.413L175.024 1439ZM176.183 1429.34H188.837V1432H176.183V1429.34ZM203.229 1439.39C201.683 1439.39 200.319 1439 199.136 1438.22C197.953 1437.43 197.027 1436.32 196.359 1434.88C195.691 1433.44 195.357 1431.74 195.357 1429.78C195.357 1427.83 195.691 1426.14 196.359 1424.7C197.027 1423.27 197.957 1422.17 199.148 1421.38C200.339 1420.6 201.716 1420.21 203.277 1420.21C204.485 1420.21 205.438 1420.41 206.139 1420.82C206.847 1421.21 207.386 1421.66 207.757 1422.17C208.135 1422.67 208.429 1423.08 208.638 1423.4H208.879V1414.27H211.729V1439H208.976V1436.15H208.638C208.429 1436.49 208.131 1436.92 207.745 1437.43C207.358 1437.94 206.807 1438.39 206.09 1438.79C205.374 1439.19 204.42 1439.39 203.229 1439.39ZM203.615 1436.83C204.758 1436.83 205.724 1436.53 206.513 1435.93C207.302 1435.33 207.901 1434.5 208.312 1433.43C208.723 1432.36 208.928 1431.13 208.928 1429.73C208.928 1428.34 208.727 1427.13 208.324 1426.09C207.922 1425.05 207.326 1424.23 206.537 1423.65C205.748 1423.07 204.774 1422.77 203.615 1422.77C202.408 1422.77 201.402 1423.08 200.597 1423.7C199.8 1424.31 199.2 1425.15 198.798 1426.2C198.403 1427.25 198.206 1428.42 198.206 1429.73C198.206 1431.05 198.407 1432.25 198.81 1433.33C199.22 1434.4 199.824 1435.25 200.621 1435.88C201.426 1436.51 202.424 1436.83 203.615 1436.83ZM223.972 1439.39C222.427 1439.39 221.062 1439 219.879 1438.22C218.696 1437.43 217.77 1436.32 217.102 1434.88C216.434 1433.44 216.1 1431.74 216.1 1429.78C216.1 1427.83 216.434 1426.14 217.102 1424.7C217.77 1423.27 218.7 1422.17 219.891 1421.38C221.082 1420.6 222.459 1420.21 224.02 1420.21C225.228 1420.21 226.182 1420.41 226.882 1420.82C227.59 1421.21 228.13 1421.66 228.5 1422.17C228.878 1422.67 229.172 1423.08 229.381 1423.4H229.623V1414.27H232.472V1439H229.719V1436.15H229.381C229.172 1436.49 228.874 1436.92 228.488 1437.43C228.101 1437.94 227.55 1438.39 226.834 1438.79C226.117 1439.19 225.163 1439.39 223.972 1439.39ZM224.358 1436.83C225.501 1436.83 226.467 1436.53 227.256 1435.93C228.045 1435.33 228.645 1434.5 229.055 1433.43C229.466 1432.36 229.671 1431.13 229.671 1429.73C229.671 1428.34 229.47 1427.13 229.067 1426.09C228.665 1425.05 228.069 1424.23 227.28 1423.65C226.492 1423.07 225.518 1422.77 224.358 1422.77C223.151 1422.77 222.145 1423.08 221.34 1423.7C220.543 1424.31 219.943 1425.15 219.541 1426.2C219.147 1427.25 218.949 1428.42 218.949 1429.73C218.949 1431.05 219.151 1432.25 219.553 1433.33C219.964 1434.4 220.567 1435.25 221.364 1435.88C222.169 1436.51 223.167 1436.83 224.358 1436.83ZM254.966 1420.45V1422.87H245.355V1420.45H254.966ZM248.157 1416.01H251.006V1433.69C251.006 1434.49 251.123 1435.1 251.356 1435.5C251.598 1435.89 251.904 1436.16 252.274 1436.3C252.652 1436.42 253.051 1436.49 253.469 1436.49C253.783 1436.49 254.041 1436.47 254.242 1436.44C254.443 1436.4 254.604 1436.37 254.725 1436.34L255.304 1438.9C255.111 1438.98 254.842 1439.05 254.495 1439.12C254.149 1439.2 253.711 1439.24 253.179 1439.24C252.374 1439.24 251.586 1439.07 250.813 1438.72C250.048 1438.38 249.412 1437.85 248.905 1437.14C248.406 1436.43 248.157 1435.54 248.157 1434.46V1416.01ZM266.213 1439.39C264.539 1439.39 263.07 1438.99 261.806 1438.19C260.551 1437.39 259.569 1436.28 258.86 1434.85C258.16 1433.41 257.81 1431.74 257.81 1429.82C257.81 1427.89 258.16 1426.21 258.86 1424.76C259.569 1423.32 260.551 1422.21 261.806 1421.41C263.07 1420.61 264.539 1420.21 266.213 1420.21C267.888 1420.21 269.353 1420.61 270.608 1421.41C271.872 1422.21 272.854 1423.32 273.554 1424.76C274.263 1426.21 274.617 1427.89 274.617 1429.82C274.617 1431.74 274.263 1433.41 273.554 1434.85C272.854 1436.28 271.872 1437.39 270.608 1438.19C269.353 1438.99 267.888 1439.39 266.213 1439.39ZM266.213 1436.83C267.485 1436.83 268.532 1436.5 269.353 1435.85C270.174 1435.2 270.781 1434.34 271.176 1433.28C271.57 1432.21 271.767 1431.06 271.767 1429.82C271.767 1428.58 271.57 1427.43 271.176 1426.36C270.781 1425.29 270.174 1424.42 269.353 1423.76C268.532 1423.1 267.485 1422.77 266.213 1422.77C264.942 1422.77 263.895 1423.1 263.074 1423.76C262.253 1424.42 261.645 1425.29 261.251 1426.36C260.857 1427.43 260.659 1428.58 260.659 1429.82C260.659 1431.06 260.857 1432.21 261.251 1433.28C261.645 1434.34 262.253 1435.2 263.074 1435.85C263.895 1436.5 264.942 1436.83 266.213 1436.83ZM166.989 1456H163.994C163.817 1455.14 163.507 1454.38 163.065 1453.73C162.63 1453.08 162.099 1452.53 161.471 1452.09C160.851 1451.64 160.163 1451.3 159.406 1451.07C158.65 1450.85 157.861 1450.74 157.04 1450.74C155.543 1450.74 154.186 1451.11 152.971 1451.87C151.763 1452.63 150.802 1453.74 150.085 1455.22C149.377 1456.69 149.023 1458.5 149.023 1460.64C149.023 1462.78 149.377 1464.58 150.085 1466.06C150.802 1467.53 151.763 1468.65 152.971 1469.4C154.186 1470.16 155.543 1470.54 157.04 1470.54C157.861 1470.54 158.65 1470.42 159.406 1470.2C160.163 1469.97 160.851 1469.64 161.471 1469.2C162.099 1468.75 162.63 1468.19 163.065 1467.54C163.507 1466.88 163.817 1466.13 163.994 1465.27H166.989C166.763 1466.54 166.353 1467.67 165.757 1468.67C165.161 1469.66 164.421 1470.51 163.536 1471.21C162.65 1471.91 161.656 1472.43 160.553 1472.79C159.459 1473.16 158.287 1473.34 157.04 1473.34C154.931 1473.34 153.055 1472.82 151.413 1471.79C149.771 1470.76 148.479 1469.3 147.538 1467.4C146.596 1465.5 146.125 1463.24 146.125 1460.64C146.125 1458.03 146.596 1455.77 147.538 1453.88C148.479 1451.98 149.771 1450.51 151.413 1449.48C153.055 1448.45 154.931 1447.93 157.04 1447.93C158.287 1447.93 159.459 1448.12 160.553 1448.48C161.656 1448.84 162.65 1449.37 163.536 1450.07C164.421 1450.76 165.161 1451.61 165.757 1452.61C166.353 1453.6 166.763 1454.73 166.989 1456ZM176.524 1473.43C175.349 1473.43 174.283 1473.21 173.325 1472.77C172.367 1472.32 171.606 1471.67 171.043 1470.83C170.479 1469.97 170.198 1468.94 170.198 1467.74C170.198 1466.67 170.407 1465.81 170.825 1465.15C171.244 1464.48 171.803 1463.96 172.504 1463.58C173.204 1463.2 173.977 1462.92 174.822 1462.74C175.675 1462.54 176.532 1462.39 177.394 1462.28C178.52 1462.13 179.434 1462.02 180.134 1461.95C180.843 1461.87 181.358 1461.74 181.68 1461.55C182.01 1461.37 182.175 1461.05 182.175 1460.59V1460.49C182.175 1459.3 181.849 1458.37 181.197 1457.71C180.553 1457.05 179.575 1456.72 178.263 1456.72C176.903 1456.72 175.836 1457.02 175.063 1457.62C174.291 1458.21 173.747 1458.85 173.433 1459.53L170.729 1458.56C171.212 1457.43 171.856 1456.56 172.661 1455.93C173.474 1455.29 174.359 1454.85 175.317 1454.6C176.283 1454.34 177.233 1454.21 178.166 1454.21C178.762 1454.21 179.446 1454.29 180.219 1454.43C181 1454.57 181.752 1454.85 182.477 1455.29C183.209 1455.72 183.817 1456.38 184.3 1457.26C184.783 1458.13 185.024 1459.31 185.024 1460.78V1473H182.175V1470.49H182.03C181.837 1470.89 181.515 1471.32 181.064 1471.78C180.613 1472.24 180.014 1472.63 179.265 1472.95C178.516 1473.27 177.603 1473.43 176.524 1473.43ZM176.959 1470.88C178.086 1470.88 179.036 1470.65 179.808 1470.21C180.589 1469.77 181.177 1469.2 181.571 1468.5C181.974 1467.8 182.175 1467.06 182.175 1466.29V1463.68C182.054 1463.82 181.788 1463.96 181.378 1464.08C180.975 1464.19 180.509 1464.29 179.977 1464.38C179.454 1464.46 178.943 1464.53 178.444 1464.6C177.953 1464.65 177.555 1464.7 177.249 1464.74C176.508 1464.84 175.816 1465 175.172 1465.21C174.536 1465.42 174.021 1465.74 173.627 1466.17C173.24 1466.58 173.047 1467.16 173.047 1467.88C173.047 1468.87 173.413 1469.62 174.146 1470.13C174.886 1470.63 175.824 1470.88 176.959 1470.88ZM192.701 1448.27V1473H189.851V1448.27H192.701ZM205.321 1473.39C203.534 1473.39 201.993 1472.99 200.697 1472.2C199.409 1471.41 198.415 1470.3 197.714 1468.87C197.022 1467.44 196.676 1465.77 196.676 1463.87C196.676 1461.97 197.022 1460.3 197.714 1458.85C198.415 1457.39 199.389 1456.26 200.636 1455.44C201.892 1454.62 203.357 1454.21 205.031 1454.21C205.997 1454.21 206.951 1454.37 207.893 1454.7C208.834 1455.02 209.692 1455.54 210.464 1456.27C211.237 1456.98 211.853 1457.93 212.312 1459.12C212.771 1460.3 213 1461.76 213 1463.49V1464.69H198.705V1462.23H210.102C210.102 1461.18 209.893 1460.25 209.474 1459.43C209.064 1458.61 208.476 1457.96 207.712 1457.49C206.955 1457.01 206.062 1456.77 205.031 1456.77C203.896 1456.77 202.914 1457.05 202.085 1457.62C201.264 1458.17 200.632 1458.9 200.19 1459.79C199.747 1460.68 199.526 1461.64 199.526 1462.66V1464.31C199.526 1465.71 199.767 1466.89 200.25 1467.87C200.741 1468.83 201.421 1469.57 202.29 1470.08C203.16 1470.58 204.17 1470.83 205.321 1470.83C206.07 1470.83 206.746 1470.72 207.349 1470.51C207.961 1470.3 208.488 1469.97 208.931 1469.55C209.374 1469.11 209.716 1468.57 209.957 1467.93L212.71 1468.7C212.42 1469.64 211.933 1470.46 211.249 1471.16C210.565 1471.87 209.72 1472.41 208.714 1472.81C207.708 1473.19 206.577 1473.39 205.321 1473.39ZM219.81 1461.84V1473H216.96V1454.45H219.713V1457.35H219.955C220.389 1456.41 221.05 1455.65 221.935 1455.08C222.82 1454.5 223.963 1454.21 225.364 1454.21C226.62 1454.21 227.718 1454.47 228.66 1454.99C229.602 1455.49 230.334 1456.27 230.858 1457.3C231.381 1458.33 231.642 1459.64 231.642 1461.22V1473H228.793V1461.41C228.793 1459.95 228.415 1458.82 227.658 1458C226.901 1457.18 225.863 1456.77 224.543 1456.77C223.633 1456.77 222.82 1456.97 222.104 1457.36C221.396 1457.76 220.836 1458.33 220.426 1459.09C220.015 1459.85 219.81 1460.77 219.81 1461.84ZM243.478 1473.39C241.933 1473.39 240.568 1473 239.385 1472.22C238.202 1471.43 237.276 1470.32 236.608 1468.88C235.94 1467.44 235.606 1465.74 235.606 1463.78C235.606 1461.83 235.94 1460.14 236.608 1458.7C237.276 1457.27 238.206 1456.17 239.397 1455.38C240.588 1454.6 241.965 1454.21 243.526 1454.21C244.734 1454.21 245.688 1454.41 246.388 1454.82C247.096 1455.21 247.635 1455.66 248.006 1456.17C248.384 1456.67 248.678 1457.08 248.887 1457.4H249.129V1448.27H251.978V1473H249.225V1470.15H248.887C248.678 1470.49 248.38 1470.92 247.994 1471.43C247.607 1471.94 247.056 1472.39 246.34 1472.79C245.623 1473.19 244.669 1473.39 243.478 1473.39ZM243.864 1470.83C245.007 1470.83 245.973 1470.53 246.762 1469.93C247.551 1469.33 248.151 1468.5 248.561 1467.43C248.972 1466.36 249.177 1465.13 249.177 1463.73C249.177 1462.34 248.976 1461.13 248.573 1460.09C248.171 1459.05 247.575 1458.23 246.786 1457.65C245.997 1457.07 245.023 1456.77 243.864 1456.77C242.657 1456.77 241.651 1457.08 240.846 1457.7C240.049 1458.31 239.449 1459.15 239.047 1460.2C238.652 1461.25 238.455 1462.42 238.455 1463.73C238.455 1465.05 238.657 1466.25 239.059 1467.33C239.469 1468.4 240.073 1469.25 240.87 1469.88C241.675 1470.51 242.673 1470.83 243.864 1470.83ZM262.676 1473.43C261.501 1473.43 260.434 1473.21 259.476 1472.77C258.518 1472.32 257.758 1471.67 257.194 1470.83C256.631 1469.97 256.349 1468.94 256.349 1467.74C256.349 1466.67 256.558 1465.81 256.977 1465.15C257.395 1464.48 257.955 1463.96 258.655 1463.58C259.355 1463.2 260.128 1462.92 260.973 1462.74C261.827 1462.54 262.684 1462.39 263.545 1462.28C264.672 1462.13 265.586 1462.02 266.286 1461.95C266.994 1461.87 267.509 1461.74 267.831 1461.55C268.161 1461.37 268.326 1461.05 268.326 1460.59V1460.49C268.326 1459.3 268 1458.37 267.348 1457.71C266.704 1457.05 265.726 1456.72 264.414 1456.72C263.054 1456.72 261.988 1457.02 261.215 1457.62C260.442 1458.21 259.899 1458.85 259.585 1459.53L256.88 1458.56C257.363 1457.43 258.007 1456.56 258.812 1455.93C259.625 1455.29 260.51 1454.85 261.468 1454.6C262.434 1454.34 263.384 1454.21 264.318 1454.21C264.913 1454.21 265.598 1454.29 266.37 1454.43C267.151 1454.57 267.904 1454.85 268.628 1455.29C269.361 1455.72 269.968 1456.38 270.451 1457.26C270.934 1458.13 271.176 1459.31 271.176 1460.78V1473H268.326V1470.49H268.181C267.988 1470.89 267.666 1471.32 267.216 1471.78C266.765 1472.24 266.165 1472.63 265.417 1472.95C264.668 1473.27 263.754 1473.43 262.676 1473.43ZM263.11 1470.88C264.237 1470.88 265.187 1470.65 265.96 1470.21C266.741 1469.77 267.328 1469.2 267.723 1468.5C268.125 1467.8 268.326 1467.06 268.326 1466.29V1463.68C268.206 1463.82 267.94 1463.96 267.529 1464.08C267.127 1464.19 266.66 1464.29 266.129 1464.38C265.606 1464.46 265.095 1464.53 264.595 1464.6C264.104 1464.65 263.706 1464.7 263.4 1464.74C262.66 1464.84 261.967 1465 261.323 1465.21C260.688 1465.42 260.172 1465.74 259.778 1466.17C259.392 1466.58 259.198 1467.16 259.198 1467.88C259.198 1468.87 259.565 1469.62 260.297 1470.13C261.038 1470.63 261.975 1470.88 263.11 1470.88ZM276.003 1473V1454.45H278.755V1457.26H278.949C279.287 1456.34 279.898 1455.59 280.784 1455.02C281.669 1454.45 282.667 1454.16 283.778 1454.16C283.987 1454.16 284.249 1454.17 284.563 1454.18C284.877 1454.18 285.114 1454.2 285.275 1454.21V1457.11C285.179 1457.09 284.957 1457.05 284.611 1457C284.273 1456.95 283.915 1456.92 283.537 1456.92C282.635 1456.92 281.83 1457.11 281.122 1457.49C280.422 1457.86 279.866 1458.37 279.456 1459.03C279.053 1459.68 278.852 1460.43 278.852 1461.26V1473H276.003ZM291.998 1466.05V1465.9C292.014 1464.36 292.175 1463.14 292.481 1462.23C292.787 1461.32 293.221 1460.58 293.785 1460.02C294.348 1459.46 295.024 1458.94 295.813 1458.46C296.288 1458.17 296.715 1457.83 297.093 1457.44C297.471 1457.03 297.769 1456.57 297.986 1456.05C298.212 1455.53 298.324 1454.95 298.324 1454.31C298.324 1453.52 298.139 1452.84 297.769 1452.26C297.399 1451.68 296.904 1451.23 296.284 1450.92C295.664 1450.6 294.976 1450.45 294.219 1450.45C293.559 1450.45 292.923 1450.58 292.312 1450.86C291.7 1451.13 291.189 1451.56 290.778 1452.15C290.368 1452.74 290.13 1453.5 290.066 1454.45H287.023C287.088 1453.09 287.442 1451.92 288.086 1450.94C288.738 1449.97 289.595 1449.22 290.657 1448.71C291.728 1448.19 292.915 1447.93 294.219 1447.93C295.636 1447.93 296.867 1448.22 297.914 1448.78C298.968 1449.34 299.781 1450.12 300.353 1451.1C300.932 1452.08 301.222 1453.2 301.222 1454.45C301.222 1455.34 301.085 1456.14 300.812 1456.86C300.546 1457.57 300.16 1458.21 299.653 1458.78C299.153 1459.34 298.55 1459.84 297.841 1460.27C297.133 1460.72 296.566 1461.18 296.139 1461.67C295.712 1462.16 295.403 1462.73 295.209 1463.4C295.016 1464.07 294.912 1464.9 294.895 1465.9V1466.05H291.998ZM293.543 1473.19C292.948 1473.19 292.436 1472.98 292.01 1472.55C291.583 1472.13 291.37 1471.62 291.37 1471.02C291.37 1470.42 291.583 1469.91 292.01 1469.49C292.436 1469.06 292.948 1468.85 293.543 1468.85C294.139 1468.85 294.65 1469.06 295.077 1469.49C295.503 1469.91 295.716 1470.42 295.716 1471.02C295.716 1471.41 295.616 1471.78 295.415 1472.11C295.221 1472.44 294.96 1472.7 294.63 1472.9C294.308 1473.1 293.946 1473.19 293.543 1473.19Z" fill="black"/>
<path d="M224 1244C224 1243.72 223.776 1243.5 223.5 1243.5C223.224 1243.5 223 1243.72 223 1244H224ZM223.146 1336.35C223.342 1336.55 223.658 1336.55 223.854 1336.35L227.036 1333.17C227.231 1332.98 227.231 1332.66 227.036 1332.46C226.84 1332.27 226.524 1332.27 226.328 1332.46L223.5 1335.29L220.672 1332.46C220.476 1332.27 220.16 1332.27 219.964 1332.46C219.769 1332.66 219.769 1332.98 219.964 1333.17L223.146 1336.35ZM223 1244V1270H224V1244H223ZM223 1310V1336H224V1310H223Z" fill="black"/>
<path d="M216.871 1283.91H219.971L222.956 1289.55H223.084L226.069 1283.91H229.169L224.394 1292.37V1297H221.646V1292.37L216.871 1283.91Z" fill="black"/>
<path d="M394 1443.5C393.724 1443.5 393.5 1443.72 393.5 1444C393.5 1444.28 393.724 1444.5 394 1444.5V1443.5ZM447.354 1444.35C447.549 1444.16 447.549 1443.84 447.354 1443.65L444.172 1440.46C443.976 1440.27 443.66 1440.27 443.464 1440.46C443.269 1440.66 443.269 1440.98 443.464 1441.17L446.293 1444L443.464 1446.83C443.269 1447.02 443.269 1447.34 443.464 1447.54C443.66 1447.73 443.976 1447.73 444.172 1447.54L447.354 1444.35ZM394 1444.5H405.5V1443.5H394V1444.5ZM435.5 1444.5H447V1443.5H435.5V1444.5Z" fill="black"/>
<path d="M413.871 1437.91H416.971L419.956 1443.55H420.084L423.069 1437.91H426.169L421.394 1446.37V1451H418.646V1446.37L413.871 1437.91Z" fill="black"/>
<path d="M224.5 1552C224.5 1551.72 224.276 1551.5 224 1551.5C223.724 1551.5 223.5 1551.72 223.5 1552H224.5ZM223.646 1644.35C223.842 1644.55 224.158 1644.55 224.354 1644.35L227.536 1641.17C227.731 1640.98 227.731 1640.66 227.536 1640.46C227.34 1640.27 227.024 1640.27 226.828 1640.46L224 1643.29L221.172 1640.46C220.976 1640.27 220.66 1640.27 220.464 1640.46C220.269 1640.66 220.269 1640.98 220.464 1641.17L223.646 1644.35ZM223.5 1552V1578H224.5V1552H223.5ZM223.5 1618V1644H224.5V1618H223.5Z" fill="black"/>
<path d="M229.087 1591.91V1605H226.697L221.001 1596.76H220.906V1605H218.138V1591.91H220.567L226.217 1600.14H226.332V1591.91H229.087Z" fill="black"/>
<path d="M555.5 1552C555.5 1551.72 555.276 1551.5 555 1551.5C554.724 1551.5 554.5 1551.72 554.5 1552H555.5ZM331.646 1751.65C331.451 1751.84 331.451 1752.16 331.646 1752.35L334.828 1755.54C335.024 1755.73 335.34 1755.73 335.536 1755.54C335.731 1755.34 335.731 1755.02 335.536 1754.83L332.707 1752L335.536 1749.17C335.731 1748.98 335.731 1748.66 335.536 1748.46C335.34 1748.27 335.024 1748.27 334.828 1748.46L331.646 1751.65ZM554.5 1552V1727H555.5V1552H554.5ZM530 1751.5H332V1752.5H530V1751.5ZM554.5 1727C554.5 1740.53 543.531 1751.5 530 1751.5V1752.5C544.083 1752.5 555.5 1741.08 555.5 1727H554.5Z" fill="black"/>
<path d="M224 986C224 985.724 223.776 985.5 223.5 985.5C223.224 985.5 223 985.724 223 986H224ZM223.146 1028.35C223.342 1028.55 223.658 1028.55 223.854 1028.35L227.036 1025.17C227.231 1024.98 227.231 1024.66 227.036 1024.46C226.84 1024.27 226.524 1024.27 226.328 1024.46L223.5 1027.29L220.672 1024.46C220.476 1024.27 220.16 1024.27 219.964 1024.46C219.769 1024.66 219.769 1024.98 219.964 1025.17L223.146 1028.35ZM223 986V1028H224V986H223Z" fill="black"/>
</svg>
